<?xml version="1.0" encoding="UTF-8" standalone="no"?>
<svg width="467px" height="468px" viewBox="0 0 467 468" version="1.1" xmlns="http://www.w3.org/2000/svg" xmlns:xlink="http://www.w3.org/1999/xlink" xmlns:sketch="http://www.bohemiancoding.com/sketch/ns">
    <!-- Generator: Sketch 3.3.2 (12043) - http://www.bohemiancoding.com/sketch -->
    <title>Group</title>
    <desc>Created with Sketch.</desc>
    <defs></defs>
    <g id="Page-1" stroke="none" stroke-width="1" fill="none" fill-rule="evenodd" sketch:type="MSPage">
        <g id="Group" sketch:type="MSLayerGroup">
            <path d="M467,233.6 C467,104.7 362.5,0.1 233.5,0.1 C104.6,0.1 0,104.6 0,233.6 C0,362.6 104.5,467.1 233.5,467.1 C362.5,467.1 467,362.6 467,233.6 L467,233.6 Z" id="Shape" fill="#FFFFFF" sketch:type="MSShapeGroup"></path>
            <g transform="translate(176.000000, 91.000000)" id="Shape" sketch:type="MSShapeGroup">
                <path d="M27.7,30.4 C36.1,30.4 42.9,23.6 42.9,15.2 C42.9,6.8 36.1,0 27.7,0 C19.3,0 12.5,6.8 12.5,15.2 C12.5,23.5 19.4,30.4 27.7,30.4 L27.7,30.4 Z" fill="#E30613"></path>
                <path d="M98.9,113.4 C94.2,86.1 69.1,75.3 47.2,62.8 C28.6,52.1 15,41.3 6,22.4 C6.6,34.7 10.9,59.7 39.6,75.5 C60.6,87 81.7,94.7 98.9,113.4 L98.9,113.4 Z" fill="#FFCC00"></path>
                <path d="M91.6,155.5 C83.2,112.9 19.1,126.7 4.2,78.6 C4,88.7 6.8,120 35.2,130.9 C61.6,140.9 73.7,137 91.6,155.5 L91.6,155.5 Z" fill="#009FE3"></path>
                <path d="M19,123.2 L27.1,129.1 L20.1,136.1 C13.2,143 11.4,153.3 11.4,163 C11.4,188.4 32.2,209.2 57.6,209.2 C83,209.2 104.8,188.4 103.8,163 C102.3,123.3 70.6,121.1 44,108.6 C5.5,90.5 2.3,56.1 2.6,42.9 C22.5,98.8 115.1,90.6 115.1,163 C115.1,194.7 89.3,220.6 57.5,220.6 C25.7,220.6 0,194.8 0,163.1 C0,152.3 2.4,142.4 8.2,134.1 C11.3,129.6 14.6,126.5 19,123.2 L19,123.2 Z" fill="#E30613"></path>
            </g>
            <g transform="translate(105.000000, 335.000000)" id="Shape" fill="#E2231A" sketch:type="MSShapeGroup">
                <path d="M8.1,37.6 C8.1,38.1 8,38.7 7,38.7 L1.8,38.7 C0.8,38.7 0.7,38.1 0.7,37.6 L0.7,2.9 C0.7,1.9 1.3,1.8 1.8,1.8 L10.6,1.8 C13,1.8 16.4,1.9 18.8,3.3 C20.8,4.4 23.2,6.8 23.2,12.1 C23.2,19.2 18.5,23.9 10.9,23.9 L8,23.9 L8,37.6 L8.1,37.6 Z M8.1,18.1 L9.8,18.1 C12.9,18.1 16,17.7 16,12.5 C16,7.5 12.6,7.5 10.5,7.5 L8.1,7.5 L8.1,18.1 L8.1,18.1 Z"></path>
                <path d="M40.4,1.8 C40.9,1.8 41,2.1 41.2,2.7 L51.7,37.4 C51.7,37.6 51.9,37.8 51.9,38 C51.9,38.6 51.3,38.6 51,38.6 L45,38.6 C44.4,38.6 44.2,38.5 43.9,37.5 L41.5,28.8 L32.3,28.8 L30.1,37.5 C29.9,38.4 29.8,38.6 29.1,38.6 L23.3,38.6 C22.2,38.6 22.4,37.9 22.5,37.5 L33.2,2.6 C33.4,2.1 33.4,1.8 34.1,1.8 L40.4,1.8 L40.4,1.8 Z M38,14.7 C37.6,13.1 37.2,11.3 36.8,7.6 L36.6,7.6 C36.5,9.1 36.4,11 35.4,14.7 L33,23.9 L40.1,23.9 L38,14.7 L38,14.7 Z"></path>
                <path d="M64.9,37.6 C64.9,38.1 64.8,38.7 63.8,38.7 L58.6,38.7 C57.6,38.7 57.5,38.1 57.5,37.6 L57.5,2.9 C57.5,1.9 58.1,1.8 58.6,1.8 L67.4,1.8 C70.7,1.8 74.4,2.1 77.1,4.4 C79.7,6.8 80,10.1 80,12 C80,14.2 79.6,16.5 78.3,18.5 C77.2,20.1 75.9,21 73.8,22.1 L81.8,36.5 C82,36.9 82.2,37.2 82.2,37.5 C82.2,37.9 81.9,38 81.5,38.1 L76.6,39.5 C75.8,39.7 75.6,39.9 74.6,37.9 L67.3,23.4 L64.7,23.4 L64.7,37.6 L64.9,37.6 Z M66.3,17.8 C69.5,17.8 72.7,17.4 72.7,12.3 C72.7,7.6 69.6,7.5 66.8,7.5 L64.8,7.5 L64.8,17.8 L66.3,17.8 L66.3,17.8 Z"></path>
                <path d="M102.3,1.8 C102.8,1.8 102.9,2.1 103.1,2.7 L113.6,37.4 C113.7,37.6 113.8,37.8 113.8,38 C113.8,38.6 113.2,38.6 112.9,38.6 L106.9,38.6 C106.3,38.6 106.1,38.5 105.8,37.5 L103.4,28.8 L94.2,28.8 L92,37.5 C91.8,38.4 91.7,38.6 91,38.6 L85.2,38.6 C84.1,38.6 84.3,37.9 84.4,37.5 L95.1,2.6 C95.3,2.1 95.3,1.8 96,1.8 L102.3,1.8 L102.3,1.8 Z M99.9,14.7 C99.5,13.1 99.2,11.3 98.7,7.6 L98.5,7.6 C98.4,9.1 98.3,11 97.3,14.7 L95,24 L102.1,24 L99.9,14.7 L99.9,14.7 Z"></path>
                <path d="M135.2,8.5 C135,8.8 134.9,9 134.6,9 C134.3,9 134.1,8.7 133,8.2 C131.4,7.4 129.2,6.6 126.8,6.6 C123.9,6.6 122.1,8.1 122.1,10.7 C122.1,13.5 124.1,14.4 127.9,16.2 C129,16.7 131.4,17.9 133.2,19.2 C136.9,21.9 137.8,25.2 137.8,28.1 C137.8,33.9 134.2,39.5 126.2,39.5 C122.1,39.5 119.1,38.4 116.7,37.5 C116.2,37.3 115,36.8 115,36.1 C115,35.9 115.1,35.6 115.2,35.4 L116.4,31.9 C116.5,31.6 116.7,31.4 117,31.4 C117.3,31.4 117.5,31.7 118.9,32.2 C120.4,32.7 123.2,33.8 125.9,33.8 C129.4,33.8 130.7,31.4 130.7,28.9 C130.7,25.7 128.4,24.5 125.5,23.1 C122.1,21.4 119.1,20.3 117.2,18.2 C115.4,16.3 115,14.2 115,11.8 C115,3.9 120.8,0.9 126.8,0.9 C129.6,0.9 133.7,1.7 136.3,3.3 C137.1,3.8 137.2,4.1 137.2,4.3 C137.2,4.5 137.1,4.7 137,4.8 L135.2,8.5 L135.2,8.5 Z"></path>
                <path d="M151.5,37.6 C151.5,38.1 151.4,38.7 150.4,38.7 L145.2,38.7 C144.2,38.7 144.1,38.1 144.1,37.6 L144.1,2.9 C144.1,1.9 144.7,1.8 145.2,1.8 L154,1.8 C156.4,1.8 159.8,1.9 162.2,3.3 C164.3,4.4 166.6,6.8 166.6,12.1 C166.6,19.2 161.9,23.9 154.3,23.9 L151.5,23.9 L151.5,37.6 L151.5,37.6 Z M151.5,18.1 L153.2,18.1 C156.3,18.1 159.4,17.7 159.4,12.5 C159.4,7.5 156,7.5 153.9,7.5 L151.5,7.5 L151.5,18.1 L151.5,18.1 Z"></path>
                <path d="M185.7,39.6 C172.6,39.6 172.3,24.2 172.3,20.3 C172.3,16.4 172.6,0.9 185.7,0.9 C198.8,0.9 199.1,16.5 199.1,20.3 C199,24.1 198.8,39.6 185.7,39.6 L185.7,39.6 Z M191.4,20.3 C191.4,15.1 190.8,6.8 185.6,6.8 C180.5,6.8 179.9,15.2 179.9,20.3 C179.9,24.7 180.2,33.8 185.6,33.8 C191.1,33.8 191.4,24.7 191.4,20.3 L191.4,20.3 Z"></path>
                <path d="M213.7,37.6 C213.7,38.1 213.6,38.7 212.6,38.7 L207.4,38.7 C206.4,38.7 206.3,38.1 206.3,37.6 L206.3,2.9 C206.3,1.9 206.9,1.8 207.4,1.8 L216.2,1.8 C219.5,1.8 223.2,2.1 225.9,4.4 C228.5,6.8 228.8,10.1 228.8,12 C228.8,14.2 228.4,16.5 227.1,18.5 C226,20.1 224.7,21 222.6,22.1 L230.6,36.5 C230.8,36.9 231,37.2 231,37.5 C231,37.9 230.7,38 230.3,38.1 L225.4,39.5 C224.6,39.7 224.4,39.9 223.4,37.9 L216.1,23.4 L213.5,23.4 L213.5,37.6 L213.7,37.6 Z M215.1,17.8 C218.3,17.8 221.6,17.4 221.6,12.3 C221.6,7.6 218.5,7.5 215.7,7.5 L213.7,7.5 L213.7,17.8 L215.1,17.8 L215.1,17.8 Z"></path>
                <path d="M247.1,37.6 C247.1,38.6 246.5,38.7 246,38.7 L240.8,38.7 C239.8,38.7 239.7,38.1 239.7,37.6 L239.7,8.3 L232.6,8.3 C231.8,8.3 231.8,7.7 231.8,7.5 L231.8,2.7 C231.8,2.5 231.8,1.9 232.6,1.9 L255.4,1.9 C256.5,1.9 256.2,2.7 256.1,3 L254.9,7.5 C254.7,8.3 254.2,8.4 253.8,8.4 L247,8.4 L247,37.6 L247.1,37.6 Z"></path>
            </g>
            <g transform="translate(62.000000, 50.000000)" id="Shape" fill="#0082CA" sketch:type="MSShapeGroup">
                <path d="M31.6,236.1 C31.8,236 32.1,235.9 32.3,236.4 L33.4,238.8 C33.6,239.3 33.3,239.4 33.1,239.5 L17,246.6 C16.6,246.8 16.4,246.5 16.3,246.3 L14.5,242.2 C14,241.1 13.4,239.5 13.5,238.1 C13.6,236.9 14.3,235.4 16.7,234.3 C20,232.8 23.1,234.1 24.7,237.6 L25.3,238.9 L31.6,236.1 L31.6,236.1 Z M22.5,240.1 L22.2,239.3 C21.6,237.8 20.7,236.5 18.3,237.6 C16,238.6 16.7,240.2 17.1,241.2 L17.6,242.3 L22.5,240.1 L22.5,240.1 Z"></path>
                <path d="M7.6,223.8 C7.5,223.5 7.7,223.4 7.9,223.3 L23,212.9 C23.1,212.8 23.2,212.8 23.3,212.7 C23.6,212.6 23.7,212.9 23.7,213 L24.6,215.9 C24.7,216.2 24.7,216.3 24.2,216.6 L20.4,219.1 L21.8,223.6 L26.3,223.3 C26.7,223.3 26.9,223.3 27,223.6 L27.9,226.4 C28.1,227 27.7,227 27.5,227 L9,227.2 C8.7,227.2 8.6,227.2 8.5,226.9 L7.6,223.8 L7.6,223.8 Z M14.2,222.9 C13.5,223.3 12.7,223.8 10.9,224.6 L10.9,224.7 C11.6,224.5 12.6,224.3 14.5,224.2 L19.3,223.9 L18.2,220.5 L14.2,222.9 L14.2,222.9 Z"></path>
                <path d="M21.1,203.6 C21.3,203.6 21.6,203.6 21.7,204 L22.2,206.6 C22.3,207.1 22,207.2 21.8,207.2 L4.6,210.5 C4.1,210.6 4,210.3 4,210.1 L3.2,205.7 C2.9,204.1 2.7,202.2 3.6,200.6 C4.6,199.1 6.1,198.6 7.1,198.4 C8.2,198.2 9.4,198.2 10.5,198.6 C11.4,199 12,199.5 12.7,200.5 L19.1,195.2 C19.3,195.1 19.4,194.9 19.5,194.9 C19.7,194.9 19.8,195 19.9,195.2 L21.1,197.5 C21.3,197.9 21.4,198 20.5,198.6 L14,203.6 L14.2,204.9 L21.1,203.6 L21.1,203.6 Z M11.1,204.8 C10.8,203.2 10.3,201.6 7.8,202.1 C5.4,202.5 5.7,204.1 5.9,205.5 L6.1,206.5 L11.2,205.5 L11.1,204.8 L11.1,204.8 Z"></path>
                <path d="M0.2,183.3 C0.2,183 0.3,183 0.6,182.9 L17.7,176.4 C17.8,176.4 17.9,176.3 18,176.3 C18.3,176.3 18.3,176.6 18.4,176.7 L18.6,179.7 C18.6,180 18.6,180.1 18.1,180.3 L13.8,181.8 L14.1,186.5 L18.6,187.3 C19,187.4 19.2,187.4 19.2,187.8 L19.4,190.7 C19.4,191.3 19.1,191.2 18.9,191.1 L0.9,186.9 C0.6,186.8 0.5,186.8 0.5,186.5 L0.2,183.3 L0.2,183.3 Z M6.8,184 C6,184.2 5.1,184.5 3.2,184.8 L3.2,184.9 C3.9,184.9 4.9,184.9 6.9,185.3 L11.7,186.2 L11.5,182.6 L6.8,184 L6.8,184 Z"></path>
                <path d="M15.7,160.2 C15.7,160.1 15.8,159.8 16,159.8 L16.1,159.8 C16.3,159.8 16.4,159.9 16.5,159.9 L18.5,160.5 C18.9,160.6 19,160.7 19,161.1 L18.6,170.1 C18.6,170.6 18.3,170.6 18,170.6 L0.5,169.8 C0,169.8 0,169.5 0,169.2 L0.1,166.6 C0.1,166.1 0.4,166.1 0.7,166.1 L15.5,166.7 L15.7,160.2 L15.7,160.2 Z"></path>
                <path d="M19.7,150.5 C20.3,150.6 20.2,150.8 20.2,151 L19.8,153.9 C19.8,154 19.8,154.3 19.2,154.2 L12.2,153.2 L1.7,156.9 C1.6,157 1.3,157 1.1,157 C0.9,157 0.9,156.7 0.9,156.4 L0.8,153.6 C0.8,153 1,153 1.2,152.9 L6.1,151.3 C6.6,151.1 7.6,150.8 9.2,150.6 L9.2,150.5 C7.3,149.6 6.8,149.3 6.2,148.9 L2.3,146.3 C2.2,146.2 2.1,146.2 2,146.1 C1.7,145.9 1.8,145.6 1.9,145.3 L2.7,143.1 C2.8,142.8 2.9,142.6 3.1,142.7 C3.2,142.7 3.2,142.7 3.4,142.8 L12.7,149.2 L19.7,150.5 L19.7,150.5 Z"></path>
                <path d="M13.4,134.1 C12.9,134.1 11.2,134.1 9,133.9 L9,134 C12.6,135 13.6,135.2 14.3,135.5 L22,137.8 C22.3,137.9 22.5,138 22.4,138.4 L21.8,140.6 C21.7,140.9 21.6,141 21.1,140.9 L4.4,135.7 C3.9,135.6 3.9,135.4 3.9,135.1 L4.6,132.3 C4.7,132.1 4.7,132 5.1,132 L12.3,131.6 C13.3,131.6 15.1,131.6 15.7,131.7 L15.7,131.6 C14.5,131.1 13.8,130.6 12.8,129.9 L6.8,125.9 C6.6,125.8 6.4,125.7 6.5,125.3 L7.2,122.6 C7.3,122.2 7.4,122.1 8.2,122.3 L25,126 C25.5,126.1 25.5,126.3 25.5,126.5 L25,129 C24.9,129.3 24.7,129.3 24.3,129.2 L15.3,127 C14.7,126.9 14.5,126.8 13.8,126.6 C13.6,126.5 13.4,126.5 13.2,126.4 C12.5,126.2 11.8,126 11.1,125.8 L11.1,125.9 C12.6,126.6 13.8,127.2 15,127.9 L19.7,130.9 C19.9,131 20.1,131.1 20,131.5 L19.5,133.4 C19.4,133.8 19.2,133.7 18.9,133.8 L13.4,134.1 L13.4,134.1 Z"></path>
                <path d="M29.1,115.8 C29.3,115.9 29.6,116.1 29.4,116.5 L28.4,118.9 C28.2,119.3 27.9,119.3 27.7,119.2 L11.5,112.5 C11.1,112.3 11.1,112 11.2,111.8 L12.9,107.7 C13.4,106.6 14.1,105 15.2,104.1 C16.1,103.4 17.7,102.8 20.1,103.8 C23.4,105.2 24.7,108.3 23.3,111.9 L22.7,113.2 L29.1,115.8 L29.1,115.8 Z M20,112.1 L20.3,111.3 C20.9,109.8 21.3,108.3 18.9,107.3 C16.6,106.3 15.9,107.9 15.5,108.9 L15,110 L20,112.1 L20,112.1 Z"></path>
                <path d="M35.2,98 L35.9,96.7 C36.1,96.2 36.4,96.3 36.6,96.5 L38,97.2 C38.2,97.3 38.5,97.5 38.2,97.9 L35.1,103.7 C35,103.9 34.8,104.2 34.4,103.9 L33,103.2 C32.5,103 32.6,102.7 32.8,102.5 L33.5,101.2 L21.8,94.9 L21.1,96.2 C21,96.4 20.8,96.7 20.4,96.4 L19,95.7 C18.5,95.5 18.7,95.2 18.8,95 L21.9,89.2 C22,89 22.2,88.7 22.6,89 L24,89.7 C24.5,89.9 24.4,90.2 24.2,90.4 L23.5,91.7 L35.2,98 L35.2,98 Z"></path>
                <path d="M46,82.7 C46.2,82.7 46.3,82.8 46.4,82.8 C46.6,82.9 46.6,83.2 46.6,83.3 C46.7,84.5 46.2,86.2 45.3,87.5 C41.9,92.7 36.7,90.2 33.5,88.1 C26.5,83.4 27.4,79.2 29,76.8 C29.7,75.7 31,74.5 32.4,74.1 C32.9,74 33.1,74 33.3,74.1 C33.4,74.2 33.5,74.3 33.5,74.4 L34.2,76.1 C34.3,76.2 34.3,76.4 34.3,76.5 C34.2,76.7 33.9,76.8 33.7,76.8 C32.8,77.1 32.1,77.4 31.6,78.1 C31.1,78.9 30.9,79.7 31.1,80.4 C31.3,81.5 32.5,82.7 35.5,84.7 C36.5,85.4 39.1,87 40.8,86.9 C41.5,86.9 42.4,86.6 43.1,85.5 C43.5,84.9 43.7,84.1 43.8,83.3 C43.8,83 43.8,82.7 43.9,82.6 C44,82.4 44.2,82.4 44.3,82.5 L46,82.7 L46,82.7 Z"></path>
                <path d="M59,48.1 C59.1,48.3 59.1,48.4 59,48.5 C58.9,48.6 58.7,48.6 58.1,48.8 C57.2,49.1 56.1,49.6 55.3,50.4 C54.2,51.4 54.1,52.6 55,53.6 C56,54.6 57,54.2 59,53.6 C59.6,53.4 60.9,53 62,52.9 C64.3,52.6 65.8,53.5 66.8,54.6 C68.8,56.7 69.5,60 66.5,62.8 C65,64.2 63.5,64.9 62.3,65.4 C62.1,65.5 61.4,65.7 61.2,65.5 C61.1,65.4 61.1,65.3 61,65.2 L60.2,63.5 C60.1,63.3 60.1,63.2 60.2,63.1 C60.3,63 60.5,63 61.2,62.7 C61.9,62.4 63.3,61.8 64.3,60.8 C65.6,59.6 65.2,58.2 64.3,57.3 C63.2,56.1 62,56.5 60.4,57 C58.6,57.6 57.1,58.2 55.7,58.1 C54.4,58 53.5,57.4 52.7,56.5 C49.9,53.6 51,50.5 53.2,48.4 C54.2,47.4 56,46.3 57.5,46 C58,45.9 58.1,46 58.2,46 C58.3,46.1 58.3,46.2 58.3,46.3 L59,48.1 L59,48.1 Z"></path>
                <path d="M77.5,51.7 C77.7,51.9 77.8,52.2 77.4,52.5 L75.3,54.1 C74.9,54.4 74.7,54.2 74.5,54 L64,40 C63.7,39.6 63.9,39.4 64.1,39.2 L67.7,36.5 C68.7,35.8 70,34.8 71.5,34.6 C72.7,34.4 74.3,34.7 75.9,36.8 C78.1,39.7 77.6,43 74.6,45.3 L73.5,46.2 L77.5,51.7 L77.5,51.7 Z M71.6,43.9 L72.3,43.4 C73.6,42.4 74.7,41.3 73.1,39.2 C71.6,37.2 70.2,38.2 69.4,38.9 L68.4,39.6 L71.6,43.9 L71.6,43.9 Z"></path>
                <path d="M94.7,41.3 C89,44.6 84.9,38 83.9,36.3 C82.9,34.6 79.1,27.8 84.8,24.4 C90.5,21.1 94.6,27.8 95.6,29.4 C96.7,31.2 100.5,38 94.7,41.3 L94.7,41.3 Z M92.3,31.4 C91,29.1 88.6,25.6 86.3,26.9 C84,28.2 85.9,32.1 87.2,34.3 C88.3,36.2 90.8,40.1 93.2,38.7 C95.6,37.4 93.4,33.4 92.3,31.4 L92.3,31.4 Z"></path>
                <path d="M109.2,32.8 C109.3,33 109.4,33.3 108.9,33.5 L106.5,34.5 C106.1,34.7 105.9,34.4 105.8,34.2 L98.8,18.1 C98.6,17.7 98.9,17.5 99.1,17.4 L103.2,15.6 C104.7,14.9 106.5,14.3 108.2,14.9 C109.9,15.5 110.7,16.9 111.1,17.9 C111.5,18.9 111.8,20.1 111.6,21.3 C111.4,22.3 111,22.9 110.2,23.8 L116.8,28.9 C117,29.1 117.1,29.1 117.2,29.3 C117.3,29.5 117.1,29.6 117,29.7 L115,31.3 C114.7,31.6 114.6,31.7 113.8,31 L107.5,25.7 L106.3,26.2 L109.2,32.8 L109.2,32.8 Z M105.9,23.3 C107.4,22.7 108.8,21.8 107.8,19.5 C106.9,17.3 105.4,17.9 104.1,18.4 L103.2,18.8 L105.3,23.6 L105.9,23.3 L105.9,23.3 Z"></path>
                <path d="M127.8,25.9 C127.9,26.4 127.7,26.5 127.4,26.6 L124.9,27.4 C124.4,27.5 124.3,27.3 124.2,27 L119.8,12.8 L116.3,13.9 C115.9,14 115.8,13.7 115.8,13.6 L115.1,11.3 C115.1,11.2 115,10.9 115.4,10.8 L126.4,7.4 C126.9,7.2 126.9,7.6 126.9,7.8 L127,10.1 C127,10.5 126.8,10.6 126.6,10.7 L123.3,11.7 L127.8,25.9 L127.8,25.9 Z"></path>
                <path d="M142.1,7.4 C142,7.6 142,7.7 141.9,7.7 C141.8,7.7 141.6,7.6 141,7.5 C140.1,7.3 139,7.1 137.8,7.4 C136.4,7.7 135.6,8.6 135.9,9.9 C136.2,11.3 137.3,11.5 139.3,12 C139.9,12.2 141.2,12.5 142.2,12.9 C144.3,13.9 145.1,15.4 145.4,16.9 C146,19.8 144.8,22.9 140.8,23.7 C138.7,24.1 137.2,23.9 135.9,23.7 C135.6,23.6 135,23.5 134.9,23.1 L134.9,22.7 L135.2,20.8 C135.2,20.6 135.3,20.5 135.4,20.5 C135.5,20.5 135.7,20.6 136.4,20.7 C137.2,20.8 138.7,21 140.1,20.8 C141.8,20.4 142.3,19.1 142,17.9 C141.7,16.3 140.4,16 138.9,15.6 C137,15.1 135.5,14.9 134.3,14 C133.2,13.2 132.8,12.2 132.6,11.1 C131.8,7.2 134.4,5.1 137.3,4.5 C138.7,4.2 140.8,4.2 142.3,4.7 C142.7,4.9 142.8,5 142.8,5.1 L142.8,5.4 L142.1,7.4 L142.1,7.4 Z"></path>
                <path d="M179.9,5.1 C179.8,5.3 179.7,5.4 179.6,5.4 C179.5,5.4 179.3,5.3 178.8,5 C178,4.6 176.9,4.2 175.7,4.1 C174.2,4.1 173.3,4.8 173.3,6.1 C173.3,7.5 174.3,8 176.2,8.9 C176.8,9.2 178,9.8 178.8,10.5 C180.6,11.9 181.1,13.6 181,15.1 C180.9,18 179.1,20.8 175,20.7 C172.9,20.7 171.4,20.1 170.2,19.6 C170,19.5 169.3,19.2 169.3,18.8 C169.3,18.7 169.4,18.6 169.4,18.5 L170.1,16.7 C170.2,16.5 170.2,16.4 170.4,16.4 C170.5,16.4 170.7,16.5 171.3,16.8 C172,17.1 173.5,17.6 174.8,17.7 C176.6,17.7 177.3,16.5 177.3,15.2 C177.3,13.6 176.2,13 174.7,12.2 C173,11.3 171.5,10.7 170.6,9.6 C169.7,8.6 169.5,7.5 169.6,6.4 C169.7,2.4 172.7,0.9 175.7,1 C177.1,1 179.2,1.5 180.5,2.3 C180.9,2.5 181,2.7 180.9,2.8 C180.9,2.9 180.8,3 180.8,3.1 L179.9,5.1 L179.9,5.1 Z"></path>
                <path d="M200.4,16.3 C200.1,18.6 199.2,23 193,22.1 C186.7,21.2 187.1,16.8 187.4,14.5 L189,2.8 C189.1,2.1 189.4,2.3 189.6,2.3 L192.1,2.7 C192.3,2.7 192.7,2.7 192.6,3.3 L191,15 C190.8,16.4 190.4,18.8 193.3,19.2 C196.3,19.6 196.5,17.2 196.7,15.8 L198.3,4.1 C198.4,3.4 198.7,3.6 198.9,3.6 L201.4,4 C201.6,4 202,4 201.9,4.6 L200.4,16.3 L200.4,16.3 Z"></path>
                <path d="M210.3,24.6 C210.2,24.8 210.1,25.1 209.6,25 L207.1,24.3 C206.6,24.2 206.6,23.9 206.7,23.6 L211.3,6.6 C211.4,6.1 211.7,6.2 212,6.2 L216.3,7.4 C217.5,7.7 219.1,8.2 220.1,9.2 C220.9,10 221.8,11.5 221.1,14.1 C220.2,17.6 217.2,19.3 213.5,18.3 L212.1,17.9 L210.3,24.6 L210.3,24.6 Z M212.9,15 L213.7,15.2 C215.2,15.6 216.8,15.8 217.5,13.3 C218.2,10.9 216.5,10.4 215.5,10.1 L214.3,9.8 L212.9,15 L212.9,15 Z"></path>
                <path d="M227.5,30.2 C227.4,30.4 227.3,30.7 226.8,30.5 L224.4,29.5 C224,29.3 224,29 224.1,28.8 L230.7,12.5 C230.9,12 231.2,12.1 231.4,12.2 L235.5,13.9 C236.6,14.4 238.2,15 239.1,16.2 C239.8,17.1 240.5,18.7 239.5,21.1 C238.2,24.4 235.1,25.8 231.5,24.3 L230.2,23.8 L227.5,30.2 L227.5,30.2 Z M231.2,21 L232,21.3 C233.5,21.9 235,22.3 236,19.8 C236.9,17.5 235.3,16.8 234.4,16.4 L233.3,16 L231.2,21 L231.2,21 Z"></path>
                <path d="M245.2,39.6 C239.4,36.4 243,29.5 244,27.8 C245,26.1 248.8,19.3 254.7,22.5 C260.5,25.7 256.8,32.7 255.9,34.3 C254.9,36 251,42.8 245.2,39.6 L245.2,39.6 Z M252.4,32.4 C253.7,30.1 255.5,26.3 253.2,25 C250.9,23.7 248.6,27.3 247.3,29.6 C246.2,31.6 244.1,35.7 246.5,37 C249,38.3 251.4,34.4 252.4,32.4 L252.4,32.4 Z"></path>
                <path d="M260,47.7 C259.9,47.9 259.6,48.1 259.2,47.8 L257.1,46.3 C256.7,46 256.8,45.7 257,45.5 L267.3,31.3 C267.6,30.9 267.9,31 268.1,31.2 L271.7,33.8 C273.1,34.8 274.5,36 274.9,37.8 C275.3,39.6 274.4,41 273.8,41.8 C273.2,42.7 272.3,43.5 271.2,44 C270.3,44.3 269.5,44.3 268.3,44.1 L267.3,52.4 C267.3,52.6 267.3,52.8 267.2,52.9 C267.1,53.1 266.9,53 266.7,52.9 L264.3,52 C263.9,51.9 263.8,51.9 263.9,50.8 L265.2,42.7 L264.1,41.9 L260,47.7 L260,47.7 Z M266.4,39.9 C267.7,40.8 269.2,41.6 270.7,39.6 C272.1,37.7 270.9,36.7 269.7,35.9 L268.9,35.3 L265.8,39.5 L266.4,39.9 L266.4,39.9 Z"></path>
                <path d="M275.3,60 C275,60.4 274.7,60.2 274.5,60 L272.6,58.3 C272.2,58 272.4,57.7 272.6,57.5 L282.5,46.4 L279.8,44 C279.5,43.7 279.7,43.5 279.8,43.4 L281.4,41.6 C281.5,41.5 281.7,41.3 282,41.6 L290.6,49.3 C291,49.7 290.7,49.8 290.5,50 L288.5,51.3 C288.2,51.5 287.9,51.4 287.8,51.2 L285.2,48.9 L275.3,60 L275.3,60 Z"></path>
                <path d="M296.3,83.7 C296.1,83.9 295.8,84 295.5,83.6 L294,81.5 C293.8,81.3 293.7,81 294.1,80.7 L308.4,70.5 C308.8,70.2 309,70.4 309.2,70.6 L314.5,78 C314.6,78.1 314.6,78.3 314.6,78.4 C314.5,78.6 314.4,78.6 314.2,78.7 L312.2,79.4 C312.1,79.4 311.9,79.5 311.7,79.2 L308.6,74.8 L305,77.4 L307.6,81.1 C307.9,81.5 307.7,81.7 307.5,81.9 L306,83 C305.6,83.3 305.4,83.1 305.2,82.9 L302.6,79.2 L296.3,83.7 L296.3,83.7 Z"></path>
                <path d="M304.8,99.1 C301.6,93.3 308.3,89.4 310.1,88.4 C311.8,87.4 318.7,83.8 322,89.6 C325.2,95.4 318.4,99.4 316.7,100.3 C314.9,101.2 308,104.9 304.8,99.1 L304.8,99.1 Z M314.8,96.9 C317.1,95.6 320.7,93.3 319.4,91 C318.1,88.7 314.3,90.5 312,91.8 C310,92.9 306.1,95.3 307.4,97.7 C308.7,100.1 312.8,98 314.8,96.9 L314.8,96.9 Z"></path>
                <path d="M321.8,120.1 C319.6,121 315.4,122.4 313.1,116.5 C310.7,110.6 314.8,108.7 317,107.9 L327.9,103.5 C328.5,103.2 328.6,103.6 328.6,103.8 L329.5,106.1 C329.6,106.3 329.8,106.6 329.2,106.8 L318.3,111.2 C317,111.7 314.7,112.5 315.8,115.3 C316.9,118.1 319.1,117.1 320.4,116.6 L331.3,112.2 C331.9,111.9 332,112.3 332,112.5 L332.9,114.9 C333,115.1 333.2,115.4 332.6,115.6 L321.8,120.1 L321.8,120.1 Z"></path>
                <path d="M319.4,132.4 C319.3,132.4 319,132.5 318.9,132.1 L318.3,129.8 C318.3,129.7 318.2,129.4 318.6,129.3 L335.9,125 C336,125 336.3,124.9 336.4,125.3 L337,127.8 C337.1,128 337.1,128.1 336.8,128.4 L329.7,134.8 C328.3,136.1 326.5,137.1 326.3,137.3 L326.3,137.4 C327.3,137.1 328.8,136.7 329.7,136.5 L338.2,134.4 C338.6,134.3 338.7,134.6 338.7,134.7 L339.3,136.9 C339.3,137 339.4,137.3 339,137.4 L321.7,141.8 C321.3,141.9 321.2,141.6 321.2,141.5 L320.7,139.5 C320.6,139.2 320.8,139 320.9,138.9 L328.7,131.8 C329.5,131.1 330.4,130.3 331.9,129.4 L331.9,129.3 C331.2,129.5 329.8,129.9 329,130.1 L319.4,132.4 L319.4,132.4 Z"></path>
                <path d="M341.8,152.6 C342,154 342.1,156.1 340.4,157.9 C338.9,159.5 336.1,160.3 333.3,160.6 C330.1,161 327.6,160.8 325.9,159.6 C323.9,158.3 323.4,156.2 323.3,154.8 L322.7,149.5 C322.6,149 323.1,148.9 323.2,148.9 L340.5,146.8 C340.7,146.8 341.1,146.8 341.1,147.3 L341.8,152.6 L341.8,152.6 Z M326,152.3 L326.2,154.2 C326.3,155.1 326.9,156.2 328.6,156.6 C329.9,156.9 331.7,156.8 332.9,156.7 C334.2,156.5 335.9,156.2 337.1,155.6 C338.7,154.8 339,153.6 338.9,152.7 L338.7,150.8 L326,152.3 L326,152.3 Z"></path>
                <path d="M343.1,173.5 C343.1,173.8 342.9,173.8 342.7,173.9 L325.2,179.5 C325.1,179.5 325,179.6 324.9,179.6 C324.6,179.6 324.6,179.3 324.6,179.2 L324.6,176.2 C324.6,175.9 324.6,175.8 325.2,175.6 L329.6,174.3 L329.5,169.6 L325.1,168.6 C324.7,168.5 324.5,168.5 324.5,168.1 L324.4,165.2 C324.4,164.6 324.8,164.7 324.9,164.8 L342.7,169.9 C342.9,170 343.1,170 343.1,170.4 L343.1,173.5 L343.1,173.5 Z M336.5,172.4 C337.3,172.2 338.2,172 340.1,171.7 L340.1,171.6 C339.4,171.6 338.4,171.5 336.5,171.1 L331.8,170 L331.9,173.6 L336.5,172.4 L336.5,172.4 Z"></path>
                <path d="M324.1,188.9 C323.6,188.9 323.6,188.6 323.6,188.3 L323.8,185.7 C323.8,185.2 324.2,185.2 324.4,185.2 L339.2,186.5 L339.5,182.9 C339.5,182.5 339.8,182.5 339.9,182.5 L342.3,182.7 C342.4,182.7 342.7,182.7 342.7,183.1 L341.6,194.6 C341.5,195.1 341.2,195 341,194.9 L338.8,194.1 C338.4,194 338.4,193.7 338.4,193.5 L338.7,190.1 L324.1,188.9 L324.1,188.9 Z"></path>
                <path d="M324.1,203.4 L323.8,204.9 C323.7,205.4 323.4,205.4 323.2,205.3 L321.6,205 C321.3,204.9 321.1,204.9 321.2,204.4 L322.4,197.9 C322.4,197.6 322.5,197.4 323,197.5 L324.6,197.8 C325.1,197.9 325.1,198.2 325,198.4 L324.7,199.9 L337.8,202.3 L338.1,200.8 C338.2,200.5 338.2,200.3 338.7,200.4 L340.2,200.7 C340.7,200.8 340.7,201.1 340.6,201.3 L339.4,207.8 C339.3,208.1 339.3,208.3 338.8,208.2 L337.3,207.9 C336.8,207.8 336.8,207.5 336.9,207.3 L337.2,205.9 L324.1,203.4 L324.1,203.4 Z"></path>
                <path d="M317.8,216.1 C319.7,209.7 327.2,211.8 329.1,212.4 C331,213 338.5,215.3 336.6,221.7 C334.7,228.1 327.1,226 325.3,225.4 C323.3,224.9 315.9,222.5 317.8,216.1 L317.8,216.1 Z M326.3,221.7 C328.8,222.4 333,223.4 333.7,220.8 C334.4,218.3 330.4,216.8 327.9,216.1 C325.8,215.5 321.3,214.3 320.5,217 C319.8,219.6 324.2,221.1 326.3,221.7 L326.3,221.7 Z"></path>
                <path d="M313.2,231.8 C313.1,231.8 312.8,231.6 313,231.3 L313.9,229.2 C313.9,229.1 314.1,228.8 314.4,229 L330.7,236.2 C330.8,236.2 331.1,236.4 330.9,236.7 L329.9,239 C329.8,239.2 329.8,239.3 329.4,239.3 L319.9,240 C318,240.1 316,239.9 315.6,239.9 L315.6,239.9 C316.6,240.3 318,240.9 318.9,241.3 L326.9,244.8 C327.3,245 327.2,245.2 327.1,245.3 L326.2,247.4 C326.2,247.5 326,247.8 325.7,247.6 L309.4,240.4 C309,240.2 309.2,240 309.2,239.9 L310,238 C310.1,237.7 310.4,237.7 310.6,237.7 L321.1,236.9 C322.1,236.8 323.4,236.7 325.1,237 L325.1,236.9 C324.4,236.7 323,236.1 322.3,235.8 L313.2,231.8 L313.2,231.8 Z"></path>
            </g>
        </g>
    </g>
</svg>