<?xml version="1.0" encoding="utf-8"?>
<!-- Generator: Adobe Illustrator 19.1.0, SVG Export Plug-In . SVG Version: 6.00 Build 0)  -->
<svg version="1.1" id="Layer_1" xmlns="http://www.w3.org/2000/svg" xmlns:xlink="http://www.w3.org/1999/xlink" x="0px" y="0px"
	 viewBox="0 0 1190.6 841.9" style="enable-background:new 0 0 1190.6 841.9;" xml:space="preserve">
<style type="text/css">
	.st0{fill:#FFFFFF;}
	.st1{fill-rule:evenodd;clip-rule:evenodd;fill:#E30613;}
	.st2{fill-rule:evenodd;clip-rule:evenodd;fill:#FFCC00;}
	.st3{fill-rule:evenodd;clip-rule:evenodd;fill:#009FE3;}
	.st4{fill:#E2231A;}
	.st5{fill:#0082CA;}
</style>
<g>
	<path class="st0" d="M828,420.6c0-128.9-104.5-233.5-233.5-233.5c-128.9,0-233.5,104.5-233.5,233.5s104.5,233.5,233.5,233.5
		C723.5,654.1,828,549.6,828,420.6z"/>
	<g>
		<g>
			<path class="st1" d="M564.7,308.4c8.4,0,15.2-6.8,15.2-15.2c0-8.4-6.8-15.2-15.2-15.2c-8.4,0-15.2,6.8-15.2,15.2
				C549.5,301.5,556.4,308.4,564.7,308.4z"/>
			<path class="st2" d="M635.9,391.4c-4.7-27.3-29.8-38.1-51.7-50.6c-18.6-10.7-32.2-21.5-41.2-40.4c0.6,12.3,4.9,37.3,33.6,53.1
				C597.6,365,618.7,372.7,635.9,391.4z"/>
			<path class="st3" d="M628.6,433.5c-8.4-42.6-72.5-28.8-87.4-76.9c-0.2,10.1,2.6,41.4,31,52.3C598.6,418.9,610.7,415,628.6,433.5z
				"/>
			<path class="st1" d="M556,401.2l8.1,5.9l-7,7c-6.9,6.9-8.7,17.2-8.7,26.9c0,25.4,20.8,46.2,46.2,46.2c25.4,0,47.2-20.8,46.2-46.2
				c-1.5-39.7-33.2-41.9-59.8-54.4c-38.5-18.1-41.7-52.5-41.4-65.7c19.9,55.9,112.5,47.7,112.5,120.1c0,31.7-25.8,57.6-57.6,57.6
				S537,472.8,537,441.1c0-10.8,2.4-20.7,8.2-29C548.3,407.6,551.6,404.5,556,401.2z"/>
		</g>
		<g>
			<path class="st4" d="M474.1,559.6c0,0.5-0.1,1.1-1.1,1.1h-5.2c-1,0-1.1-0.6-1.1-1.1v-34.7c0-1,0.6-1.1,1.1-1.1h8.8
				c2.4,0,5.8,0.1,8.2,1.5c2,1.1,4.4,3.5,4.4,8.8c0,7.1-4.7,11.8-12.3,11.8h-2.9V559.6z M474.1,540.1h1.7c3.1,0,6.2-0.4,6.2-5.6
				c0-5-3.4-5-5.5-5h-2.4V540.1z"/>
			<path class="st4" d="M506.4,523.8c0.5,0,0.6,0.3,0.8,0.9l10.5,34.7c0,0.2,0.2,0.4,0.2,0.6c0,0.6-0.6,0.6-0.9,0.6h-6
				c-0.6,0-0.8-0.1-1.1-1.1l-2.4-8.7h-9.2l-2.2,8.7c-0.2,0.9-0.3,1.1-1,1.1h-5.8c-1.1,0-0.9-0.7-0.8-1.1l10.7-34.9
				c0.2-0.5,0.2-0.8,0.9-0.8H506.4z M504,536.7c-0.4-1.6-0.8-3.4-1.2-7.1h-0.2c-0.1,1.5-0.2,3.4-1.2,7.1l-2.4,9.2h7.1L504,536.7z"/>
			<path class="st4" d="M530.9,559.6c0,0.5-0.1,1.1-1.1,1.1h-5.2c-1,0-1.1-0.6-1.1-1.1v-34.7c0-1,0.6-1.1,1.1-1.1h8.8
				c3.3,0,7,0.3,9.7,2.6c2.6,2.4,2.9,5.7,2.9,7.6c0,2.2-0.4,4.5-1.7,6.5c-1.1,1.6-2.4,2.5-4.5,3.6l8,14.4c0.2,0.4,0.4,0.7,0.4,1
				c0,0.4-0.3,0.5-0.7,0.6l-4.9,1.4c-0.8,0.2-1,0.4-2-1.6l-7.3-14.5h-2.6V559.6z M532.3,539.8c3.2,0,6.4-0.4,6.4-5.5
				c0-4.7-3.1-4.8-5.9-4.8h-2v10.3H532.3z"/>
			<path class="st4" d="M568.3,523.8c0.5,0,0.6,0.3,0.8,0.9l10.5,34.7c0.1,0.2,0.2,0.4,0.2,0.6c0,0.6-0.6,0.6-0.9,0.6h-6
				c-0.6,0-0.8-0.1-1.1-1.1l-2.4-8.7h-9.2l-2.2,8.7c-0.2,0.9-0.3,1.1-1,1.1h-5.8c-1.1,0-0.9-0.7-0.8-1.1l10.7-34.9
				c0.2-0.5,0.2-0.8,0.9-0.8H568.3z M565.9,536.7c-0.4-1.6-0.7-3.4-1.2-7.1h-0.2c-0.1,1.5-0.2,3.4-1.2,7.1L561,546h7.1L565.9,536.7z
				"/>
			<path class="st4" d="M601.2,530.5c-0.2,0.3-0.3,0.5-0.6,0.5c-0.3,0-0.5-0.3-1.6-0.8c-1.6-0.8-3.8-1.6-6.2-1.6
				c-2.9,0-4.7,1.5-4.7,4.1c0,2.8,2,3.7,5.8,5.5c1.1,0.5,3.5,1.7,5.3,3c3.7,2.7,4.6,6,4.6,8.9c0,5.8-3.6,11.4-11.6,11.4
				c-4.1,0-7.1-1.1-9.5-2c-0.5-0.2-1.7-0.7-1.7-1.4c0-0.2,0.1-0.5,0.2-0.7l1.2-3.5c0.1-0.3,0.3-0.5,0.6-0.5c0.3,0,0.5,0.3,1.9,0.8
				c1.5,0.5,4.3,1.6,7,1.6c3.5,0,4.8-2.4,4.8-4.9c0-3.2-2.3-4.4-5.2-5.8c-3.4-1.7-6.4-2.8-8.3-4.9c-1.8-1.9-2.2-4-2.2-6.4
				c0-7.9,5.8-10.9,11.8-10.9c2.8,0,6.9,0.8,9.5,2.4c0.8,0.5,0.9,0.8,0.9,1c0,0.2-0.1,0.4-0.2,0.5L601.2,530.5z"/>
			<path class="st4" d="M617.5,559.6c0,0.5-0.1,1.1-1.1,1.1h-5.2c-1,0-1.1-0.6-1.1-1.1v-34.7c0-1,0.6-1.1,1.1-1.1h8.8
				c2.4,0,5.8,0.1,8.2,1.5c2.1,1.1,4.4,3.5,4.4,8.8c0,7.1-4.7,11.8-12.3,11.8h-2.8V559.6z M617.5,540.1h1.7c3.1,0,6.2-0.4,6.2-5.6
				c0-5-3.4-5-5.5-5h-2.4V540.1z"/>
			<path class="st4" d="M651.7,561.6c-13.1,0-13.4-15.4-13.4-19.3c0-3.9,0.3-19.4,13.4-19.4c13.1,0,13.4,15.6,13.4,19.4
				C665,546.1,664.8,561.6,651.7,561.6z M657.4,542.3c0-5.2-0.6-13.5-5.8-13.5c-5.1,0-5.7,8.4-5.7,13.5c0,4.4,0.3,13.5,5.7,13.5
				C657.1,555.8,657.4,546.7,657.4,542.3z"/>
			<path class="st4" d="M679.7,559.6c0,0.5-0.1,1.1-1.1,1.1h-5.2c-1,0-1.1-0.6-1.1-1.1v-34.7c0-1,0.6-1.1,1.1-1.1h8.8
				c3.3,0,7,0.3,9.7,2.6c2.6,2.4,2.9,5.7,2.9,7.6c0,2.2-0.4,4.5-1.7,6.5c-1.1,1.6-2.4,2.5-4.5,3.6l8,14.4c0.2,0.4,0.4,0.7,0.4,1
				c0,0.4-0.3,0.5-0.7,0.6l-4.9,1.4c-0.8,0.2-1,0.4-2-1.6l-7.3-14.5h-2.6V559.6z M681.1,539.8c3.2,0,6.5-0.4,6.5-5.5
				c0-4.7-3.1-4.8-5.9-4.8h-2v10.3H681.1z"/>
			<path class="st4" d="M713.1,559.6c0,1-0.6,1.1-1.1,1.1h-5.2c-1,0-1.1-0.6-1.1-1.1v-29.3h-7.1c-0.8,0-0.8-0.6-0.8-0.8v-4.8
				c0-0.2,0-0.8,0.8-0.8h22.8c1.1,0,0.8,0.8,0.7,1.1l-1.2,4.5c-0.2,0.8-0.7,0.9-1.1,0.9h-6.8V559.6z"/>
		</g>
		<g>
			<path class="st5" d="M454.6,473.1c0.2-0.1,0.5-0.2,0.7,0.3l1.1,2.4c0.2,0.5-0.1,0.6-0.3,0.7l-16.1,7.1c-0.4,0.2-0.6-0.1-0.7-0.3
				l-1.8-4.1c-0.5-1.1-1.1-2.7-1-4.1c0.1-1.2,0.8-2.7,3.2-3.8c3.3-1.5,6.4-0.2,8,3.3l0.6,1.3L454.6,473.1z M445.5,477.1l-0.3-0.8
				c-0.6-1.5-1.5-2.8-3.9-1.7c-2.3,1-1.6,2.6-1.2,3.6l0.5,1.1L445.5,477.1z"/>
			<path class="st5" d="M430.6,460.8c-0.1-0.3,0.1-0.4,0.3-0.5l15.1-10.4c0.1-0.1,0.2-0.1,0.3-0.2c0.3-0.1,0.4,0.2,0.4,0.3l0.9,2.9
				c0.1,0.3,0.1,0.4-0.4,0.7l-3.8,2.5l1.4,4.5l4.5-0.3c0.4,0,0.6,0,0.7,0.3l0.9,2.8c0.2,0.6-0.2,0.6-0.4,0.6l-18.5,0.2
				c-0.3,0-0.4,0-0.5-0.3L430.6,460.8z M437.2,459.9c-0.7,0.4-1.5,0.9-3.3,1.7l0,0.1c0.7-0.2,1.7-0.4,3.6-0.5l4.8-0.3l-1.1-3.4
				L437.2,459.9z"/>
			<path class="st5" d="M444.1,440.6c0.2,0,0.5,0,0.6,0.4l0.5,2.6c0.1,0.5-0.2,0.6-0.4,0.6l-17.2,3.3c-0.5,0.1-0.6-0.2-0.6-0.4
				l-0.8-4.4c-0.3-1.6-0.5-3.5,0.4-5.1c1-1.5,2.5-2,3.5-2.2c1.1-0.2,2.3-0.2,3.4,0.2c0.9,0.4,1.5,0.9,2.2,1.9l6.4-5.3
				c0.2-0.1,0.3-0.3,0.4-0.3c0.2,0,0.3,0.1,0.4,0.3l1.2,2.3c0.2,0.4,0.3,0.5-0.6,1.1l-6.5,5l0.2,1.3L444.1,440.6z M434.1,441.8
				c-0.3-1.6-0.8-3.2-3.3-2.7c-2.4,0.4-2.1,2-1.9,3.4l0.2,1l5.1-1L434.1,441.8z"/>
			<path class="st5" d="M423.2,420.3c0-0.3,0.1-0.3,0.4-0.4l17.1-6.5c0.1,0,0.2-0.1,0.3-0.1c0.3,0,0.3,0.3,0.4,0.4l0.2,3
				c0,0.3,0,0.4-0.5,0.6l-4.3,1.5l0.3,4.7l4.5,0.8c0.4,0.1,0.6,0.1,0.6,0.5l0.2,2.9c0,0.6-0.3,0.5-0.5,0.4l-18-4.2
				c-0.3-0.1-0.4-0.1-0.4-0.4L423.2,420.3z M429.8,421c-0.8,0.2-1.7,0.5-3.6,0.8l0,0.1c0.7,0,1.7,0,3.7,0.4l4.8,0.9l-0.2-3.6
				L429.8,421z"/>
			<path class="st5" d="M438.7,397.2c0-0.1,0.1-0.4,0.3-0.4c0,0,0,0,0.1,0c0.2,0,0.3,0.1,0.4,0.1l2,0.6c0.4,0.1,0.5,0.2,0.5,0.6
				l-0.4,9c0,0.5-0.3,0.5-0.6,0.5l-17.5-0.8c-0.5,0-0.5-0.3-0.5-0.6l0.1-2.6c0-0.5,0.3-0.5,0.6-0.5l14.8,0.6L438.7,397.2z"/>
			<path class="st5" d="M442.7,387.5c0.6,0.1,0.5,0.3,0.5,0.5l-0.4,2.9c0,0.1,0,0.4-0.6,0.3l-7-1l-10.5,3.7
				c-0.1,0.1-0.4,0.1-0.6,0.1c-0.2,0-0.2-0.3-0.2-0.6l-0.1-2.8c0-0.6,0.2-0.6,0.4-0.7l4.9-1.6c0.5-0.2,1.5-0.5,3.1-0.7l0-0.1
				c-1.9-0.9-2.4-1.2-3-1.6l-3.9-2.6c-0.1-0.1-0.2-0.1-0.3-0.2c-0.3-0.2-0.2-0.5-0.1-0.8l0.8-2.2c0.1-0.3,0.2-0.5,0.4-0.4
				c0.1,0,0.1,0,0.3,0.1l9.3,6.4L442.7,387.5z"/>
			<path class="st5" d="M436.4,371.1c-0.5,0-2.2,0-4.4-0.2l0,0.1c3.6,1,4.6,1.2,5.3,1.5l7.7,2.3c0.3,0.1,0.5,0.2,0.4,0.6l-0.6,2.2
				c-0.1,0.3-0.2,0.4-0.7,0.3l-16.7-5.2c-0.5-0.1-0.5-0.3-0.5-0.6l0.7-2.8c0.1-0.2,0.1-0.3,0.5-0.3l7.2-0.4c1,0,2.8,0,3.4,0.1l0-0.1
				c-1.2-0.5-1.9-1-2.9-1.7l-6-4c-0.2-0.1-0.4-0.2-0.3-0.6l0.7-2.7c0.1-0.4,0.2-0.5,1-0.3l16.8,3.7c0.5,0.1,0.5,0.3,0.5,0.5L448,366
				c-0.1,0.3-0.3,0.3-0.7,0.2l-9-2.2c-0.6-0.1-0.8-0.2-1.5-0.4c-0.2-0.1-0.4-0.1-0.6-0.2c-0.7-0.2-1.4-0.4-2.1-0.6l0,0.1
				c1.5,0.7,2.7,1.3,3.9,2l4.7,3c0.2,0.1,0.4,0.2,0.3,0.6l-0.5,1.9c-0.1,0.4-0.3,0.3-0.6,0.4L436.4,371.1z"/>
			<path class="st5" d="M452.1,352.8c0.2,0.1,0.5,0.3,0.3,0.7l-1,2.4c-0.2,0.4-0.5,0.4-0.7,0.3l-16.2-6.7c-0.4-0.2-0.4-0.5-0.3-0.7
				l1.7-4.1c0.5-1.1,1.2-2.7,2.3-3.6c0.9-0.7,2.5-1.3,4.9-0.3c3.3,1.4,4.6,4.5,3.2,8.1l-0.6,1.3L452.1,352.8z M443,349.1l0.3-0.8
				c0.6-1.5,1-3-1.4-4c-2.3-1-3,0.6-3.4,1.6L438,347L443,349.1z"/>
			<path class="st5" d="M458.2,335l0.7-1.3c0.2-0.5,0.5-0.4,0.7-0.2l1.4,0.7c0.2,0.1,0.5,0.3,0.2,0.7l-3.1,5.8
				c-0.1,0.2-0.3,0.5-0.7,0.2l-1.4-0.7c-0.5-0.2-0.4-0.5-0.2-0.7l0.7-1.3l-11.7-6.3l-0.7,1.3c-0.1,0.2-0.3,0.5-0.7,0.2l-1.4-0.7
				c-0.5-0.2-0.3-0.5-0.2-0.7l3.1-5.8c0.1-0.2,0.3-0.5,0.7-0.2l1.4,0.7c0.5,0.2,0.4,0.5,0.2,0.7l-0.7,1.3L458.2,335z"/>
			<path class="st5" d="M469,319.7c0.2,0,0.3,0.1,0.4,0.1c0.2,0.1,0.2,0.4,0.2,0.5c0.1,1.2-0.4,2.9-1.3,4.2
				c-3.4,5.2-8.6,2.7-11.8,0.6c-7-4.7-6.1-8.9-4.5-11.3c0.7-1.1,2-2.3,3.4-2.7c0.5-0.1,0.7-0.1,0.9,0c0.1,0.1,0.2,0.2,0.2,0.3
				l0.7,1.7c0.1,0.1,0.1,0.3,0.1,0.4c-0.1,0.2-0.4,0.3-0.6,0.3c-0.9,0.3-1.6,0.6-2.1,1.3c-0.5,0.8-0.7,1.6-0.5,2.3
				c0.2,1.1,1.4,2.3,4.4,4.3c1,0.7,3.6,2.3,5.3,2.2c0.7,0,1.6-0.3,2.3-1.4c0.4-0.6,0.6-1.4,0.7-2.2c0-0.3,0-0.6,0.1-0.7
				c0.1-0.2,0.3-0.2,0.4-0.1L469,319.7z"/>
			<path class="st5" d="M482,285.1c0.1,0.2,0.1,0.3,0,0.4c-0.1,0.1-0.3,0.1-0.9,0.3c-0.9,0.3-2,0.8-2.8,1.6c-1.1,1-1.2,2.2-0.3,3.2
				c1,1,2,0.6,4,0c0.6-0.2,1.9-0.6,3-0.7c2.3-0.3,3.8,0.6,4.8,1.7c2,2.1,2.7,5.4-0.3,8.2c-1.5,1.4-3,2.1-4.2,2.6
				c-0.2,0.1-0.9,0.3-1.1,0.1c-0.1-0.1-0.1-0.2-0.2-0.3l-0.8-1.7c-0.1-0.2-0.1-0.3,0-0.4c0.1-0.1,0.3-0.1,1-0.4
				c0.7-0.3,2.1-0.9,3.1-1.9c1.3-1.2,0.9-2.6,0-3.5c-1.1-1.2-2.3-0.8-3.9-0.3c-1.8,0.6-3.3,1.2-4.7,1.1c-1.3-0.1-2.2-0.7-3-1.6
				c-2.8-2.9-1.7-6,0.5-8.1c1-1,2.8-2.1,4.3-2.4c0.5-0.1,0.6,0,0.7,0c0.1,0.1,0.1,0.2,0.1,0.3L482,285.1z"/>
			<path class="st5" d="M500.5,288.7c0.2,0.2,0.3,0.5-0.1,0.8l-2.1,1.6c-0.4,0.3-0.6,0.1-0.8-0.1L487,277c-0.3-0.4-0.1-0.6,0.1-0.8
				l3.6-2.7c1-0.7,2.3-1.7,3.8-1.9c1.2-0.2,2.8,0.1,4.4,2.2c2.2,2.9,1.7,6.2-1.3,8.5l-1.1,0.9L500.5,288.7z M494.6,280.9l0.7-0.5
				c1.3-1,2.4-2.1,0.8-4.2c-1.5-2-2.9-1-3.7-0.3l-1,0.7L494.6,280.9z"/>
			<path class="st5" d="M517.7,278.3c-5.7,3.3-9.8-3.3-10.8-5c-1-1.7-4.8-8.5,0.9-11.9c5.7-3.3,9.8,3.4,10.8,5
				C519.7,268.2,523.5,275,517.7,278.3z M515.3,268.4c-1.3-2.3-3.7-5.8-6-4.5c-2.3,1.3-0.4,5.2,0.9,7.4c1.1,1.9,3.6,5.8,6,4.4
				C518.6,274.4,516.4,270.4,515.3,268.4z"/>
			<path class="st5" d="M532.2,269.8c0.1,0.2,0.2,0.5-0.3,0.7l-2.4,1c-0.4,0.2-0.6-0.1-0.7-0.3l-7-16.1c-0.2-0.4,0.1-0.6,0.3-0.7
				l4.1-1.8c1.5-0.7,3.3-1.3,5-0.7c1.7,0.6,2.5,2,2.9,3c0.4,1,0.7,2.2,0.5,3.4c-0.2,1-0.6,1.6-1.4,2.5l6.6,5.1
				c0.2,0.2,0.3,0.2,0.4,0.4c0.1,0.2-0.1,0.3-0.2,0.4l-2,1.6c-0.3,0.3-0.4,0.4-1.2-0.3l-6.3-5.3l-1.2,0.5L532.2,269.8z M528.9,260.3
				c1.5-0.6,2.9-1.5,1.9-3.8c-0.9-2.2-2.4-1.6-3.7-1.1l-0.9,0.4l2.1,4.8L528.9,260.3z"/>
			<path class="st5" d="M550.8,262.9c0.1,0.5-0.1,0.6-0.4,0.7l-2.5,0.8c-0.5,0.1-0.6-0.1-0.7-0.4l-4.4-14.2l-3.5,1.1
				c-0.4,0.1-0.5-0.2-0.5-0.3l-0.7-2.3c0-0.1-0.1-0.4,0.3-0.5l11-3.4c0.5-0.2,0.5,0.2,0.5,0.4l0.1,2.3c0,0.4-0.2,0.5-0.4,0.6l-3.3,1
				L550.8,262.9z"/>
			<path class="st5" d="M565.1,244.4c-0.1,0.2-0.1,0.3-0.2,0.3c-0.1,0-0.3-0.1-0.9-0.2c-0.9-0.2-2-0.4-3.2-0.1
				c-1.4,0.3-2.2,1.2-1.9,2.5c0.3,1.4,1.4,1.6,3.4,2.1c0.6,0.2,1.9,0.5,2.9,0.9c2.1,1,2.9,2.5,3.2,4c0.6,2.9-0.6,6-4.6,6.8
				c-2.1,0.4-3.6,0.2-4.9,0c-0.3-0.1-0.9-0.2-1-0.6c0-0.1,0-0.2,0-0.4l0.3-1.9c0-0.2,0.1-0.3,0.2-0.3c0.1,0,0.3,0.1,1,0.2
				c0.8,0.1,2.3,0.3,3.7,0.1c1.7-0.4,2.2-1.7,1.9-2.9c-0.3-1.6-1.6-1.9-3.1-2.3c-1.9-0.5-3.4-0.7-4.6-1.6c-1.1-0.8-1.5-1.8-1.7-2.9
				c-0.8-3.9,1.8-6,4.7-6.6c1.4-0.3,3.5-0.3,5,0.2c0.4,0.2,0.5,0.3,0.5,0.4c0,0.1,0,0.2,0,0.3L565.1,244.4z"/>
			<path class="st5" d="M602.9,242.1c-0.1,0.2-0.2,0.3-0.3,0.3c-0.1,0-0.3-0.1-0.8-0.4c-0.8-0.4-1.9-0.8-3.1-0.9
				c-1.5,0-2.4,0.7-2.4,2c0,1.4,1,1.9,2.9,2.8c0.6,0.3,1.8,0.9,2.6,1.6c1.8,1.4,2.3,3.1,2.2,4.6c-0.1,2.9-1.9,5.7-6,5.6
				c-2.1,0-3.6-0.6-4.8-1.1c-0.2-0.1-0.9-0.4-0.9-0.8c0-0.1,0.1-0.2,0.1-0.3l0.7-1.8c0.1-0.2,0.1-0.3,0.3-0.3c0.1,0,0.3,0.1,0.9,0.4
				c0.7,0.3,2.2,0.8,3.5,0.9c1.8,0,2.5-1.2,2.5-2.5c0-1.6-1.1-2.2-2.6-3c-1.7-0.9-3.2-1.5-4.1-2.6c-0.9-1-1.1-2.1-1-3.2
				c0.1-4,3.1-5.5,6.1-5.4c1.4,0,3.5,0.5,4.8,1.3c0.4,0.2,0.5,0.4,0.4,0.5c0,0.1-0.1,0.2-0.1,0.3L602.9,242.1z"/>
			<path class="st5" d="M623.4,253.3c-0.3,2.3-1.2,6.7-7.4,5.8c-6.3-0.9-5.9-5.3-5.6-7.6l1.6-11.7c0.1-0.7,0.4-0.5,0.6-0.5l2.5,0.4
				c0.2,0,0.6,0,0.5,0.6L614,252c-0.2,1.4-0.6,3.8,2.3,4.2c3,0.4,3.2-2,3.4-3.4l1.6-11.7c0.1-0.7,0.4-0.5,0.6-0.5l2.5,0.4
				c0.2,0,0.6,0,0.5,0.6L623.4,253.3z"/>
			<path class="st5" d="M633.3,261.6c-0.1,0.2-0.2,0.5-0.7,0.4l-2.5-0.7c-0.5-0.1-0.5-0.4-0.4-0.7l4.6-17c0.1-0.5,0.4-0.4,0.7-0.4
				l4.3,1.2c1.2,0.3,2.8,0.8,3.8,1.8c0.8,0.8,1.7,2.3,1,4.9c-0.9,3.5-3.9,5.2-7.6,4.2l-1.4-0.4L633.3,261.6z M635.9,252l0.8,0.2
				c1.5,0.4,3.1,0.6,3.8-1.9c0.7-2.4-1-2.9-2-3.2l-1.2-0.3L635.9,252z"/>
			<path class="st5" d="M650.5,267.2c-0.1,0.2-0.2,0.5-0.7,0.3l-2.4-1c-0.4-0.2-0.4-0.5-0.3-0.7l6.6-16.3c0.2-0.5,0.5-0.4,0.7-0.3
				l4.1,1.7c1.1,0.5,2.7,1.1,3.6,2.3c0.7,0.9,1.4,2.5,0.4,4.9c-1.3,3.3-4.4,4.7-8,3.2l-1.3-0.5L650.5,267.2z M654.2,258l0.8,0.3
				c1.5,0.6,3,1,4-1.5c0.9-2.3-0.7-3-1.6-3.4l-1.1-0.4L654.2,258z"/>
			<path class="st5" d="M668.2,276.6c-5.8-3.2-2.2-10.1-1.2-11.8c1-1.7,4.8-8.5,10.7-5.3c5.8,3.2,2.1,10.2,1.2,11.8
				C677.9,273,674,279.8,668.2,276.6z M675.4,269.4c1.3-2.3,3.1-6.1,0.8-7.4c-2.3-1.3-4.6,2.3-5.9,4.6c-1.1,2-3.2,6.1-0.8,7.4
				C672,275.3,674.4,271.4,675.4,269.4z"/>
			<path class="st5" d="M683,284.7c-0.1,0.2-0.4,0.4-0.8,0.1l-2.1-1.5c-0.4-0.3-0.3-0.6-0.1-0.8l10.3-14.2c0.3-0.4,0.6-0.3,0.8-0.1
				l3.6,2.6c1.4,1,2.8,2.2,3.2,4c0.4,1.8-0.5,3.2-1.1,4c-0.6,0.9-1.5,1.7-2.6,2.2c-0.9,0.3-1.7,0.3-2.9,0.1l-1,8.3
				c0,0.2,0,0.4-0.1,0.5c-0.1,0.2-0.3,0.1-0.5,0l-2.4-0.9c-0.4-0.1-0.5-0.1-0.4-1.2l1.3-8.1l-1.1-0.8L683,284.7z M689.4,276.9
				c1.3,0.9,2.8,1.7,4.3-0.3c1.4-1.9,0.2-2.9-1-3.7l-0.8-0.6l-3.1,4.2L689.4,276.9z"/>
			<path class="st5" d="M698.3,297c-0.3,0.4-0.6,0.2-0.8,0l-1.9-1.7c-0.4-0.3-0.2-0.6,0-0.8l9.9-11.1l-2.7-2.4
				c-0.3-0.3-0.1-0.5,0-0.6l1.6-1.8c0.1-0.1,0.3-0.3,0.6,0l8.6,7.7c0.4,0.4,0.1,0.5-0.1,0.7l-2,1.3c-0.3,0.2-0.6,0.1-0.7-0.1
				l-2.6-2.3L698.3,297z"/>
			<path class="st5" d="M719.3,320.7c-0.2,0.2-0.5,0.3-0.8-0.1l-1.5-2.1c-0.2-0.2-0.3-0.5,0.1-0.8l14.3-10.2
				c0.4-0.3,0.6-0.1,0.8,0.1l5.3,7.4c0.1,0.1,0.1,0.3,0.1,0.4c-0.1,0.2-0.2,0.2-0.4,0.3l-2,0.7c-0.1,0-0.3,0.1-0.5-0.2l-3.1-4.4
				l-3.6,2.6l2.6,3.7c0.3,0.4,0.1,0.6-0.1,0.8l-1.5,1.1c-0.4,0.3-0.6,0.1-0.8-0.1l-2.6-3.7L719.3,320.7z"/>
			<path class="st5" d="M727.8,336.1c-3.2-5.8,3.5-9.7,5.3-10.7c1.7-1,8.6-4.6,11.9,1.2c3.2,5.8-3.6,9.8-5.3,10.7
				C737.9,338.2,731,341.9,727.8,336.1z M737.8,333.9c2.3-1.3,5.9-3.6,4.6-5.9c-1.3-2.3-5.1-0.5-7.4,0.8c-2,1.1-5.9,3.5-4.6,5.9
				C731.7,337.1,735.8,335,737.8,333.9z"/>
			<path class="st5" d="M744.8,357.1c-2.2,0.9-6.4,2.3-8.7-3.6c-2.4-5.9,1.7-7.8,3.9-8.6l10.9-4.4c0.6-0.3,0.7,0.1,0.7,0.3l0.9,2.3
				c0.1,0.2,0.3,0.5-0.3,0.7l-10.9,4.4c-1.3,0.5-3.6,1.3-2.5,4.1c1.1,2.8,3.3,1.8,4.6,1.3l10.9-4.4c0.6-0.3,0.7,0.1,0.7,0.3l0.9,2.4
				c0.1,0.2,0.3,0.5-0.3,0.7L744.8,357.1z"/>
			<path class="st5" d="M742.4,369.4c-0.1,0-0.4,0.1-0.5-0.3l-0.6-2.3c0-0.1-0.1-0.4,0.3-0.5l17.3-4.3c0.1,0,0.4-0.1,0.5,0.3
				l0.6,2.5c0.1,0.2,0.1,0.3-0.2,0.6l-7.1,6.4c-1.4,1.3-3.2,2.3-3.4,2.5l0,0.1c1-0.3,2.5-0.7,3.4-0.9l8.5-2.1
				c0.4-0.1,0.5,0.2,0.5,0.3l0.6,2.2c0,0.1,0.1,0.4-0.3,0.5l-17.3,4.4c-0.4,0.1-0.5-0.2-0.5-0.3l-0.5-2c-0.1-0.3,0.1-0.5,0.2-0.6
				l7.8-7.1c0.8-0.7,1.7-1.5,3.2-2.4l0-0.1c-0.7,0.2-2.1,0.6-2.9,0.8L742.4,369.4z"/>
			<path class="st5" d="M764.8,389.6c0.2,1.4,0.3,3.5-1.4,5.3c-1.5,1.6-4.3,2.4-7.1,2.7c-3.2,0.4-5.7,0.2-7.4-1
				c-2-1.3-2.5-3.4-2.6-4.8l-0.6-5.3c-0.1-0.5,0.4-0.6,0.5-0.6l17.3-2.1c0.2,0,0.6,0,0.6,0.5L764.8,389.6z M749,389.3l0.2,1.9
				c0.1,0.9,0.7,2,2.4,2.4c1.3,0.3,3.1,0.2,4.3,0.1c1.3-0.2,3-0.5,4.2-1.1c1.6-0.8,1.9-2,1.8-2.9l-0.2-1.9L749,389.3z"/>
			<path class="st5" d="M766.1,410.5c0,0.3-0.2,0.3-0.4,0.4l-17.5,5.6c-0.1,0-0.2,0.1-0.3,0.1c-0.3,0-0.3-0.3-0.3-0.4l0-3
				c0-0.3,0-0.4,0.6-0.6l4.4-1.3l-0.1-4.7l-4.4-1c-0.4-0.1-0.6-0.1-0.6-0.5l-0.1-2.9c0-0.6,0.4-0.5,0.5-0.4l17.8,5.1
				c0.2,0.1,0.4,0.1,0.4,0.5L766.1,410.5z M759.5,409.4c0.8-0.2,1.7-0.4,3.6-0.7v-0.1c-0.7,0-1.7-0.1-3.6-0.5l-4.7-1.1l0.1,3.6
				L759.5,409.4z"/>
			<path class="st5" d="M747.1,425.9c-0.5,0-0.5-0.3-0.5-0.6l0.2-2.6c0-0.5,0.4-0.5,0.6-0.5l14.8,1.3l0.3-3.6c0-0.4,0.3-0.4,0.4-0.4
				l2.4,0.2c0.1,0,0.4,0,0.4,0.4l-1.1,11.5c-0.1,0.5-0.4,0.4-0.6,0.3l-2.2-0.8c-0.4-0.1-0.4-0.4-0.4-0.6l0.3-3.4L747.1,425.9z"/>
			<path class="st5" d="M747.1,440.4l-0.3,1.5c-0.1,0.5-0.4,0.5-0.6,0.4l-1.6-0.3c-0.3-0.1-0.5-0.1-0.4-0.6l1.2-6.5
				c0-0.3,0.1-0.5,0.6-0.4l1.6,0.3c0.5,0.1,0.5,0.4,0.4,0.6l-0.3,1.5l13.1,2.4l0.3-1.5c0.1-0.3,0.1-0.5,0.6-0.4l1.5,0.3
				c0.5,0.1,0.5,0.4,0.4,0.6l-1.2,6.5c-0.1,0.3-0.1,0.5-0.6,0.4l-1.5-0.3c-0.5-0.1-0.5-0.4-0.4-0.6l0.3-1.4L747.1,440.4z"/>
			<path class="st5" d="M740.8,453.1c1.9-6.4,9.4-4.3,11.3-3.7c1.9,0.6,9.4,2.9,7.5,9.3c-1.9,6.4-9.5,4.3-11.3,3.7
				C746.3,461.9,738.9,459.5,740.8,453.1z M749.3,458.7c2.5,0.7,6.7,1.7,7.4-0.9c0.7-2.5-3.3-4-5.8-4.7c-2.1-0.6-6.6-1.8-7.4,0.9
				C742.8,456.6,747.2,458.1,749.3,458.7z"/>
			<path class="st5" d="M736.2,468.8c-0.1,0-0.4-0.2-0.2-0.5l0.9-2.1c0-0.1,0.2-0.4,0.5-0.2l16.3,7.2c0.1,0,0.4,0.2,0.2,0.5l-1,2.3
				c-0.1,0.2-0.1,0.3-0.5,0.3l-9.5,0.7c-1.9,0.1-3.9-0.1-4.3-0.1l0,0c1,0.4,2.4,1,3.3,1.4l8,3.5c0.4,0.2,0.3,0.4,0.2,0.5l-0.9,2.1
				c0,0.1-0.2,0.4-0.5,0.2l-16.3-7.2c-0.4-0.2-0.2-0.4-0.2-0.5l0.8-1.9c0.1-0.3,0.4-0.3,0.6-0.3l10.5-0.8c1-0.1,2.3-0.2,4,0.1l0-0.1
				c-0.7-0.2-2.1-0.8-2.8-1.1L736.2,468.8z"/>
		</g>
	</g>
</g>
</svg>
