<?xml version="1.0" encoding="UTF-8" standalone="no"?>
<svg width="151px" height="142px" viewBox="0 0 151 142" version="1.1" xmlns="http://www.w3.org/2000/svg" xmlns:xlink="http://www.w3.org/1999/xlink" xmlns:sketch="http://www.bohemiancoding.com/sketch/ns">
    <!-- Generator: Sketch 3.3.2 (12043) - http://www.bohemiancoding.com/sketch -->
    <title>logo-white</title>
    <desc>Created with Sketch.</desc>
    <defs>
        <path id="path-1" d="M0,0.196 L150.397,0.196 L150.397,142 L0,142 L0,0.196 Z"></path>
    </defs>
    <g id="Page-1" stroke="none" stroke-width="1" fill="none" fill-rule="evenodd" sketch:type="MSPage">
        <g id="logo-white" sketch:type="MSLayerGroup">
            <path d="M62.145,31.001 C65.824,31.001 68.823,28.001 68.823,24.323 C68.823,20.644 65.824,17.645 62.145,17.645 C58.466,17.645 55.465,20.644 55.465,24.323 C55.465,28.001 58.466,31.001 62.145,31.001" id="Fill-1" fill="#FEFEFE" sketch:type="MSShapeGroup"></path>
            <path d="M93.356,67.3936 C91.297,55.4386 80.272,50.7106 70.71,45.2276 C62.54,40.5396 56.59,35.7896 52.653,27.5266 C52.934,32.9216 54.803,43.8596 67.376,50.7826 C76.567,55.8396 85.795,59.1946 93.356,67.3936" id="Fill-3" fill="#FEFEFE" sketch:type="MSShapeGroup"></path>
            <path d="M90.1274,85.8398 C86.4554,67.1578 58.3504,73.2278 51.8304,52.1088 C51.7274,56.5548 52.9844,70.2478 65.4164,75.0228 C76.9974,79.4708 82.2954,77.7428 90.1274,85.8398" id="Fill-5" fill="#FEFEFE" sketch:type="MSShapeGroup"></path>
            <path d="M58.2905,71.6875 L61.8425,74.2685 L58.7695,77.3585 C55.7675,80.3715 54.9485,84.9155 54.9485,89.1665 C54.9485,100.3195 64.0475,109.4215 75.1975,109.4215 C86.3525,109.4215 95.8705,100.3145 95.4505,89.1665 C94.7995,71.7795 80.8995,70.8145 69.2195,65.3195 C52.3425,57.3835 50.9415,42.3015 51.0945,36.4995 C59.8145,60.9995 100.4275,57.3985 100.4275,89.1665 C100.4275,103.0675 89.0955,114.3985 75.1975,114.3985 C61.3015,114.3985 49.9705,103.0675 49.9705,89.1665 C49.9705,84.4245 51.0055,80.0965 53.5665,76.4525 C54.9455,74.4885 56.3945,73.1305 58.2905,71.6875" id="Fill-7" fill="#FEFEFE" sketch:type="MSShapeGroup"></path>
            <path d="M22.395,132.5889 L23.125,132.5889 C24.495,132.5889 25.836,132.4009 25.836,130.1139 C25.836,127.9429 24.331,127.9249 23.433,127.9249 L22.395,127.9249 L22.395,132.5889 Z M22.395,141.1209 C22.395,141.3329 22.35,141.5929 21.925,141.5929 L19.665,141.5929 C19.241,141.5929 19.191,141.3329 19.191,141.1209 L19.191,125.9199 C19.191,125.4969 19.452,125.4479 19.665,125.4479 L23.528,125.4479 C24.586,125.4479 26.049,125.4969 27.133,126.1099 C28.028,126.6039 29.041,127.6639 29.041,129.9509 C29.041,133.0609 26.993,135.1349 23.645,135.1349 L22.395,135.1349 L22.395,141.1209 Z" id="Fill-9" fill="#FEFEFE" sketch:type="MSShapeGroup"></path>
            <path d="M35.522,131.1055 C35.356,130.3985 35.19,129.5995 35.002,127.9725 L34.932,127.9725 C34.909,128.6085 34.837,129.4795 34.415,131.1055 L33.376,135.1605 L36.487,135.1605 L35.522,131.1055 Z M36.559,125.4485 C36.793,125.4485 36.842,125.5895 36.913,125.8255 L41.532,141.0285 C41.553,141.1215 41.602,141.1935 41.602,141.3085 C41.602,141.5695 41.342,141.5925 41.224,141.5925 L38.61,141.5925 C38.327,141.5925 38.254,141.5695 38.114,141.0995 L37.077,137.2815 L33.023,137.2815 L32.058,141.0995 C31.963,141.4755 31.94,141.5925 31.633,141.5925 L29.11,141.5925 C28.618,141.5925 28.709,141.2625 28.757,141.1215 L33.448,125.8015 C33.518,125.5895 33.542,125.4485 33.847,125.4485 L36.559,125.4485 Z" id="Fill-11" fill="#FEFEFE" sketch:type="MSShapeGroup"></path>
            <path d="M47.938,132.4492 C49.329,132.4492 50.764,132.2612 50.764,130.0462 C50.764,127.9722 49.422,127.9252 48.2,127.9252 L47.325,127.9252 L47.325,132.4492 L47.938,132.4492 Z M47.325,141.1212 C47.325,141.3332 47.279,141.5932 46.852,141.5932 L44.59,141.5932 C44.167,141.5932 44.12,141.3332 44.12,141.1212 L44.12,125.9202 C44.12,125.4972 44.377,125.4482 44.59,125.4482 L48.456,125.4482 C49.917,125.4482 51.543,125.5682 52.698,126.6032 C53.852,127.6642 53.97,129.0792 53.97,129.9512 C53.97,130.8942 53.808,131.9292 53.217,132.8012 C52.745,133.5092 52.178,133.8862 51.26,134.3592 L54.773,140.6492 C54.866,140.8392 54.959,140.9542 54.959,141.0752 C54.959,141.2392 54.821,141.2872 54.654,141.3332 L52.51,141.9462 C52.156,142.0382 52.062,142.1122 51.639,141.2622 L48.456,134.9242 L47.325,134.9242 L47.325,141.1212 Z" id="Fill-13" fill="#FEFEFE" sketch:type="MSShapeGroup"></path>
            <path d="M62.6646,131.1055 C62.4976,130.3985 62.3346,129.5995 62.1466,127.9725 L62.0746,127.9725 C62.0506,128.6085 61.9796,129.4795 61.5556,131.1055 L60.5186,135.1605 L63.6306,135.1605 L62.6646,131.1055 Z M63.7036,125.4485 C63.9366,125.4485 63.9846,125.5895 64.0536,125.8255 L68.6746,141.0285 C68.6996,141.1215 68.7426,141.1935 68.7426,141.3085 C68.7426,141.5695 68.4866,141.5925 68.3676,141.5925 L65.7506,141.5925 C65.4696,141.5925 65.3976,141.5695 65.2576,141.0995 L64.2196,137.2815 L60.1666,137.2815 L59.2016,141.0995 C59.1056,141.4755 59.0806,141.5925 58.7756,141.5925 L56.2536,141.5925 C55.7606,141.5925 55.8516,141.2625 55.9016,141.1215 L60.5916,125.8015 C60.6616,125.5895 60.6856,125.4485 60.9936,125.4485 L63.7036,125.4485 Z" id="Fill-15" fill="#FEFEFE" sketch:type="MSShapeGroup"></path>
            <path d="M78.145,128.3965 C78.075,128.5365 78.003,128.6315 77.885,128.6315 C77.766,128.6315 77.649,128.5115 77.176,128.2785 C76.471,127.9245 75.504,127.5925 74.446,127.5925 C73.172,127.5925 72.37,128.2325 72.37,129.3865 C72.37,130.6345 73.266,131.0095 74.891,131.7905 C75.387,132.0265 76.446,132.5195 77.202,133.0845 C78.803,134.2645 79.229,135.7245 79.229,136.9965 C79.229,139.5205 77.674,141.9925 74.137,141.9925 C72.323,141.9925 71.026,141.5205 69.989,141.1215 C69.78,141.0285 69.235,140.8155 69.235,140.4865 C69.235,140.3925 69.282,140.2725 69.331,140.1775 L69.872,138.6505 C69.92,138.5045 69.989,138.4105 70.131,138.4105 C70.25,138.4105 70.368,138.5295 70.956,138.7635 C71.592,139.0005 72.842,139.4485 74.041,139.4485 C75.577,139.4485 76.165,138.3885 76.165,137.2815 C76.165,135.8905 75.176,135.3715 73.904,134.7575 C72.393,134.0285 71.122,133.5325 70.273,132.6155 C69.495,131.7665 69.307,130.8465 69.307,129.8315 C69.307,126.3705 71.852,125.0485 74.467,125.0485 C75.694,125.0485 77.507,125.4025 78.638,126.0855 C78.993,126.2975 79.041,126.4395 79.041,126.5095 C79.041,126.5815 78.993,126.6725 78.969,126.7465 L78.145,128.3965 Z" id="Fill-17" fill="#FEFEFE" sketch:type="MSShapeGroup"></path>
            <path d="M85.2603,132.5889 L85.9903,132.5889 C87.3593,132.5889 88.7013,132.4009 88.7013,130.1139 C88.7013,127.9429 87.1933,127.9249 86.2953,127.9249 L85.2603,127.9249 L85.2603,132.5889 Z M85.2603,141.1209 C85.2603,141.3329 85.2113,141.5929 84.7873,141.5929 L82.5263,141.5929 C82.1033,141.5929 82.0553,141.3329 82.0553,141.1209 L82.0553,125.9199 C82.0553,125.4969 82.3163,125.4479 82.5263,125.4479 L86.3913,125.4479 C87.4513,125.4479 88.9123,125.4969 89.9953,126.1099 C90.8933,126.6039 91.9053,127.6639 91.9053,129.9509 C91.9053,133.0609 89.8583,135.1349 86.5083,135.1349 L85.2603,135.1349 L85.2603,141.1209 Z" id="Fill-19" fill="#FEFEFE" sketch:type="MSShapeGroup"></path>
            <path d="M102.7661,133.5322 C102.7661,131.2702 102.5071,127.5932 100.2431,127.5932 C97.9831,127.5932 97.7231,131.2952 97.7231,133.5322 C97.7231,135.4662 97.8621,139.4482 100.2431,139.4482 C102.6251,139.4482 102.7661,135.4662 102.7661,133.5322 M100.2431,141.9922 C94.4941,141.9922 94.3761,135.2312 94.3761,133.5322 C94.3761,131.8132 94.4941,125.0492 100.2431,125.0492 C105.9931,125.0492 106.1131,131.8852 106.1131,133.5322 C106.1131,135.2312 105.9931,141.9922 100.2431,141.9922" id="Fill-21" fill="#FEFEFE" sketch:type="MSShapeGroup"></path>
            <path d="M113.1548,132.4492 C114.5478,132.4492 115.9838,132.2612 115.9838,130.0462 C115.9838,127.9722 114.6428,127.9252 113.4158,127.9252 L112.5438,127.9252 L112.5438,132.4492 L113.1548,132.4492 Z M112.5438,141.1212 C112.5438,141.3332 112.4948,141.5932 112.0718,141.5932 L109.8088,141.5932 C109.3858,141.5932 109.3388,141.3332 109.3388,141.1212 L109.3388,125.9202 C109.3388,125.4972 109.5978,125.4482 109.8088,125.4482 L113.6728,125.4482 C115.1348,125.4482 116.7598,125.5682 117.9168,126.6032 C119.0698,127.6642 119.1878,129.0792 119.1878,129.9512 C119.1878,130.8942 119.0218,131.9292 118.4358,132.8012 C117.9618,133.5092 117.3988,133.8862 116.4788,134.3592 L119.9888,140.6492 C120.0858,140.8392 120.1788,140.9542 120.1788,141.0752 C120.1788,141.2392 120.0378,141.2872 119.8718,141.3332 L117.7268,141.9462 C117.3718,142.0382 117.2788,142.1122 116.8558,141.2622 L113.6728,134.9242 L112.5438,134.9242 L112.5438,141.1212 Z" id="Fill-23" fill="#FEFEFE" sketch:type="MSShapeGroup"></path>
            <path d="M127.1743,141.1211 C127.1743,141.5471 126.9163,141.5931 126.7053,141.5931 L124.4423,141.5931 C124.0163,141.5931 123.9693,141.3331 123.9693,141.1211 L123.9693,128.2781 L120.8353,128.2781 C120.4833,128.2781 120.4833,128.0171 120.4833,127.9251 L120.4833,125.8021 C120.4833,125.7081 120.4833,125.4481 120.8353,125.4481 L130.8523,125.4481 C131.3223,125.4481 131.2053,125.7801 131.1573,125.9451 L130.6423,127.9001 C130.5473,128.2321 130.3343,128.2781 130.1463,128.2781 L127.1743,128.2781 L127.1743,141.1211 Z" id="Fill-25" fill="#FEFEFE" sketch:type="MSShapeGroup"></path>
            <path d="M9.8911,104.9707 L9.7431,104.6337 C9.4621,103.9987 9.1021,103.4137 8.0391,103.8827 C7.0341,104.3237 7.3341,105.0317 7.5161,105.4427 L7.7271,105.9237 L9.8911,104.9707 Z M13.8471,103.2317 C13.9441,103.1877 14.0761,103.1567 14.1611,103.3517 L14.6231,104.4007 C14.7091,104.5977 14.5981,104.6717 14.5001,104.7157 L7.4511,107.8187 C7.2561,107.9087 7.1801,107.7947 7.1391,107.6977 L6.3481,105.9077 C6.1331,105.4137 5.8561,104.7257 5.9181,104.0977 C5.9651,103.5827 6.2501,102.8987 7.3101,102.4297 C8.7521,101.7947 10.1331,102.3217 10.8151,103.8737 L11.0711,104.4527 L13.8471,103.2317 Z" id="Fill-27" fill="#FEFEFE" sketch:type="MSShapeGroup"></path>
            <path d="M6.2153,97.4443 C5.9013,97.6323 5.5383,97.8353 4.7833,98.1813 L4.7933,98.2133 C5.1053,98.1293 5.5363,98.0273 6.3863,97.9793 L8.5003,97.8543 L8.0203,96.3523 L6.2153,97.4443 Z M3.3273,97.8213 C3.2903,97.7063 3.3523,97.6613 3.4543,97.5903 L10.0693,93.0143 C10.1103,92.9873 10.1383,92.9543 10.1943,92.9363 C10.3193,92.8963 10.3703,93.0163 10.3893,93.0753 L10.7933,94.3363 C10.8383,94.4723 10.8383,94.5093 10.6333,94.6483 L8.9513,95.7403 L9.5783,97.6943 L11.5673,97.5693 C11.7623,97.5573 11.8243,97.5513 11.8713,97.6993 L12.2603,98.9133 C12.3363,99.1543 12.1643,99.1583 12.0903,99.1583 L3.9793,99.2653 C3.8653,99.2653 3.7933,99.2743 3.7473,99.1263 L3.3273,97.8213 Z" id="Fill-29" fill="#FEFEFE" sketch:type="MSShapeGroup"></path>
            <path d="M4.8843,89.4717 C4.7533,88.7787 4.5223,88.0817 3.4233,88.2917 C2.3893,88.4897 2.4933,89.1607 2.6103,89.7707 L2.6933,90.2027 L4.9433,89.7777 L4.8843,89.4717 Z M9.2543,88.9527 C9.3603,88.9357 9.4923,88.9357 9.5323,89.1437 L9.7463,90.2697 C9.7853,90.4807 9.6613,90.5307 9.5573,90.5467 L1.9993,91.9867 C1.7903,92.0277 1.7423,91.9007 1.7213,91.7987 L1.3563,89.8757 C1.2173,89.1517 1.1233,88.3277 1.5293,87.6587 C1.9473,86.9827 2.6383,86.7917 3.0713,86.7107 C3.5413,86.6197 4.0713,86.6037 4.5613,86.8117 C4.9563,86.9807 5.1973,87.2257 5.5193,87.6377 L8.3133,85.2967 C8.3993,85.2327 8.4513,85.1747 8.5073,85.1647 C8.5893,85.1467 8.6253,85.2167 8.6663,85.2907 L9.1743,86.3007 C9.2543,86.4667 9.2983,86.5067 8.9163,86.7977 L6.0663,88.9787 L6.1713,89.5407 L9.2543,88.9527 Z" id="Fill-31" fill="#FEFEFE" sketch:type="MSShapeGroup"></path>
            <path d="M3.0093,80.3818 C2.6573,80.4858 2.2583,80.5978 1.4433,80.7468 L1.4473,80.7838 C1.7683,80.7758 2.2123,80.7798 3.0483,80.9398 L5.1323,81.3248 L5.0243,79.7508 L3.0093,80.3818 Z M0.1153,80.0488 C0.1063,79.9308 0.1763,79.9038 0.2943,79.8608 L7.8133,76.9988 C7.8583,76.9828 7.8953,76.9588 7.9533,76.9528 C8.0843,76.9448 8.1063,77.0758 8.1103,77.1368 L8.1993,78.4558 C8.2103,78.5998 8.1993,78.6388 7.9673,78.7258 L6.0733,79.3798 L6.2153,81.4248 L8.1783,81.7808 C8.3703,81.8198 8.4303,81.8248 8.4433,81.9798 L8.5283,83.2548 C8.5473,83.5038 8.3753,83.4668 8.3033,83.4458 L0.4023,81.6078 C0.2923,81.5848 0.2193,81.5738 0.2103,81.4198 L0.1153,80.0488 Z" id="Fill-33" fill="#FEFEFE" sketch:type="MSShapeGroup"></path>
            <g id="Group-37">
                <mask id="mask-2" sketch:name="Clip 36" fill="white">
                    <use xlink:href="#path-1"></use>
                </mask>
                <g id="Clip-36"></g>
                <path d="M6.9116,69.9209 C6.9166,69.8629 6.9336,69.7419 7.0536,69.7369 L7.0766,69.7369 C7.1606,69.7419 7.1936,69.7579 7.2286,69.7699 L8.1256,70.0359 C8.2916,70.0899 8.3366,70.1139 8.3306,70.3059 L8.1556,74.2579 C8.1466,74.4709 8.0156,74.4879 7.9086,74.4839 L0.2276,74.1519 C0.0126,74.1439 -0.0044,74.0119 0.0006,73.9039 L0.0526,72.7609 C0.0576,72.5449 0.1906,72.5289 0.2976,72.5339 L6.7876,72.8169 L6.9116,69.9209 Z" id="Fill-35" fill="#FEFEFE" sketch:type="MSShapeGroup" mask="url(#mask-2)"></path>
            </g>
            <path d="M8.6333,65.6758 C8.8833,65.7088 8.8673,65.8148 8.8593,65.8748 L8.6903,67.1258 C8.6803,67.1868 8.6773,67.3078 8.4163,67.2738 L5.3453,66.8558 L0.7373,68.4908 C0.6743,68.5208 0.5493,68.5518 0.4783,68.5408 C0.3823,68.5298 0.3863,68.4088 0.3823,68.2758 L0.3533,67.0688 C0.3533,66.8038 0.4463,66.8038 0.5363,66.7808 L2.6893,66.0988 C2.8903,66.0278 3.3423,65.8838 4.0393,65.8008 L4.0453,65.7778 C3.1963,65.3718 2.9743,65.2328 2.7303,65.0698 L1.0053,63.9428 C0.9623,63.9138 0.9283,63.8948 0.8833,63.8648 C0.7533,63.7648 0.8033,63.6488 0.8453,63.5328 L1.1933,62.5598 C1.2343,62.4428 1.2803,62.3538 1.3753,62.3668 C1.3993,62.3688 1.4333,62.3858 1.4883,62.4298 L5.5603,65.2568 L8.6333,65.6758 Z" id="Fill-38" fill="#FEFEFE" sketch:type="MSShapeGroup"></path>
            <path d="M5.8833,58.4795 C5.6603,58.4815 4.9043,58.4895 3.9663,58.3975 L3.9553,58.4345 C5.5313,58.8655 5.9593,58.9795 6.3003,59.0835 L9.6733,60.0925 C9.8223,60.1325 9.9083,60.1805 9.8653,60.3415 L9.6103,61.2995 C9.5823,61.4145 9.5123,61.4815 9.3213,61.4185 L1.9973,59.1195 C1.8003,59.0565 1.7683,58.9975 1.8003,58.8725 L2.1283,57.6495 C2.1573,57.5455 2.1643,57.5115 2.3653,57.5035 L5.5173,57.3435 C5.9653,57.3275 6.7423,57.3365 6.9923,57.3665 L6.9993,57.3435 C6.4763,57.1295 6.1863,56.9165 5.7133,56.6045 L3.0713,54.8535 C2.9783,54.7905 2.9013,54.7455 2.9423,54.5955 L3.2563,53.4195 C3.2983,53.2585 3.3403,53.1975 3.6883,53.2765 L11.0593,54.8945 C11.2693,54.9375 11.2793,55.0405 11.2563,55.1325 L10.9463,56.2855 C10.9103,56.4215 10.8193,56.4355 10.6603,56.3935 L6.7293,55.4445 C6.4693,55.3895 6.3913,55.3655 6.0683,55.2805 C5.9743,55.2545 5.8953,55.2345 5.8033,55.2085 C5.4913,55.1265 5.1913,55.0475 4.8823,54.9635 L4.8713,54.9985 C5.5403,55.3135 6.0683,55.5645 6.5733,55.8845 L8.6333,57.1885 C8.7303,57.2505 8.8213,57.2715 8.7783,57.4345 L8.5593,58.2525 C8.5113,58.4385 8.4203,58.3995 8.3073,58.4075 L5.8833,58.4795 Z" id="Fill-40" fill="#FEFEFE" sketch:type="MSShapeGroup"></path>
            <path d="M8.7612,48.8418 L8.8992,48.4978 C9.1652,47.8608 9.3382,47.1938 8.2662,46.7508 C7.2542,46.3308 6.9482,47.0328 6.7752,47.4508 L6.5732,47.9378 L8.7612,48.8418 Z M12.7542,50.4938 C12.8542,50.5358 12.9672,50.6098 12.8832,50.8058 L12.4452,51.8658 C12.3642,52.0648 12.2332,52.0368 12.1332,51.9948 L5.0152,49.0508 C4.8162,48.9668 4.8442,48.8378 4.8842,48.7378 L5.6332,46.9298 C5.8422,46.4318 6.1432,45.7568 6.6412,45.3688 C7.0492,45.0448 7.7402,44.7768 8.8112,45.2188 C10.2662,45.8208 10.8402,47.1828 10.1942,48.7498 L9.9492,49.3348 L12.7542,50.4938 Z" id="Fill-42" fill="#FEFEFE" sketch:type="MSShapeGroup"></path>
            <path d="M15.4331,42.6797 L15.7371,42.1127 C15.8421,41.9107 15.9521,41.9567 16.0591,42.0147 L16.6671,42.3407 C16.7721,42.3977 16.8731,42.4637 16.7661,42.6617 L15.3991,45.2187 C15.3431,45.3257 15.2761,45.4247 15.0751,45.3177 L14.4671,44.9917 C14.2661,44.8847 14.3111,44.7737 14.3701,44.6687 L14.6721,44.1007 L9.5301,41.3497 L9.2231,41.9167 C9.1681,42.0227 9.1021,42.1217 8.9011,42.0147 L8.2911,41.6897 C8.0901,41.5807 8.1381,41.4707 8.1921,41.3667 L9.5611,38.8097 C9.6161,38.7027 9.6831,38.6057 9.8841,38.7107 L10.4931,39.0377 C10.6931,39.1437 10.6491,39.2547 10.5891,39.3607 L10.2881,39.9287 L15.4331,42.6797 Z" id="Fill-44" fill="#FEFEFE" sketch:type="MSShapeGroup"></path>
            <path d="M20.1548,35.9463 C20.2508,35.9523 20.2978,35.9673 20.3368,35.9953 C20.4048,36.0413 20.4248,36.1673 20.4268,36.2263 C20.4838,36.7673 20.2598,37.4913 19.8628,38.0903 C18.3568,40.3583 16.0978,39.2723 14.6838,38.3343 C11.6098,36.2943 11.9918,34.4253 12.6918,33.3713 C13.0148,32.8823 13.5668,32.3743 14.1788,32.2083 C14.3888,32.1473 14.5048,32.1513 14.5638,32.1913 C14.6118,32.2243 14.6338,32.2803 14.6588,32.3263 L14.9718,33.0643 C15.0028,33.1273 15.0378,33.1783 14.9988,33.2393 C14.9538,33.3103 14.8248,33.3523 14.7528,33.3773 C14.3708,33.4963 14.0558,33.6463 13.8428,33.9653 C13.6208,34.3013 13.5538,34.6603 13.6278,34.9813 C13.7388,35.4843 14.2408,36.0043 15.5518,36.8763 C15.9908,37.1683 17.1448,37.8893 17.8698,37.8543 C18.1688,37.8373 18.5648,37.7153 18.8678,37.2573 C19.0538,36.9773 19.1428,36.6493 19.1608,36.2753 C19.1668,36.1363 19.1598,36.0153 19.2058,35.9483 C19.2608,35.8693 19.3238,35.8823 19.3928,35.8843 L20.1548,35.9463 Z" id="Fill-46" fill="#FEFEFE" sketch:type="MSShapeGroup"></path>
            <path d="M25.8657,20.7812 C25.8877,20.8572 25.8947,20.9162 25.8527,20.9572 C25.8087,20.9992 25.7237,20.9962 25.4707,21.0732 C25.0887,21.1892 24.6177,21.4062 24.2297,21.7752 C23.7617,22.2182 23.6897,22.7292 24.0917,23.1552 C24.5277,23.6132 24.9877,23.4392 25.8537,23.1562 C26.1177,23.0712 26.6787,22.8842 27.1527,22.8292 C28.1507,22.7032 28.8147,23.0902 29.2617,23.5572 C30.1367,24.4832 30.4297,25.9302 29.1317,27.1622 C28.4677,27.7952 27.8267,28.0732 27.3067,28.2872 C27.1957,28.3272 26.9237,28.4382 26.8087,28.3172 C26.7777,28.2822 26.7507,28.2242 26.7377,28.1722 L26.4017,27.4222 C26.3677,27.3542 26.3607,27.2942 26.4147,27.2452 C26.4587,27.2042 26.5437,27.2062 26.8407,27.0892 C27.1567,26.9522 27.7717,26.6812 28.2107,26.2622 C28.7737,25.7292 28.6217,25.1352 28.2327,24.7282 C27.7507,24.2192 27.2057,24.3742 26.5257,24.5932 C25.7187,24.8482 25.0767,25.1102 24.4487,25.0692 C23.8677,25.0292 23.4787,24.7572 23.1257,24.3852 C21.9197,23.1152 22.3927,21.7432 23.3507,20.8322 C23.8017,20.4072 24.5887,19.9032 25.2407,19.7612 C25.4457,19.7162 25.5117,19.7512 25.5377,19.7762 C25.5617,19.8032 25.5787,19.8532 25.5947,19.8882 L25.8657,20.7812 Z" id="Fill-48" fill="#FEFEFE" sketch:type="MSShapeGroup"></path>
            <path d="M31.3892,18.9629 L31.6842,18.7399 C32.2332,18.3229 32.7162,17.8339 32.0162,16.9149 C31.3562,16.0429 30.7412,16.4939 30.3802,16.7679 L29.9632,17.0849 L31.3892,18.9629 Z M33.9952,22.3979 C34.0612,22.4829 34.1212,22.6009 33.9512,22.7299 L33.0392,23.4219 C32.8682,23.5529 32.7722,23.4629 32.7062,23.3759 L28.0592,17.2579 C27.9322,17.0869 28.0222,16.9889 28.1052,16.9249 L29.6622,15.7429 C30.0882,15.4189 30.6902,14.9919 31.3152,14.9059 C31.8282,14.8319 32.5592,14.9499 33.2572,15.8689 C34.2072,17.1219 34.0162,18.5839 32.6682,19.6059 L32.1662,19.9869 L33.9952,22.3979 Z" id="Fill-50" fill="#FEFEFE" sketch:type="MSShapeGroup"></path>
            <path d="M40.4819,13.4985 C39.9039,12.5095 38.8519,10.9705 37.8639,11.5455 C36.8759,12.1235 37.7039,13.8065 38.2739,14.7855 C38.7689,15.6305 39.8459,17.3345 40.8869,16.7275 C41.9259,16.1235 40.9709,14.3435 40.4819,13.4985 M41.5349,17.8405 C39.0209,19.3055 37.2469,16.3785 36.8129,15.6375 C36.3759,14.8855 34.7039,11.9005 37.2149,10.4345 C39.7309,8.9675 41.5239,11.9255 41.9439,12.6475 C42.3779,13.3875 44.0479,16.3745 41.5349,17.8405" id="Fill-52" fill="#FEFEFE" sketch:type="MSShapeGroup"></path>
            <path d="M46.4302,9.9292 C47.0762,9.6512 47.7072,9.2762 47.2612,8.2452 C46.8452,7.2812 46.2112,7.5282 45.6442,7.7752 L45.2372,7.9492 L46.1472,10.0532 L46.4302,9.9292 Z M47.8852,14.0852 C47.9282,14.1832 47.9582,14.3132 47.7622,14.3992 L46.7092,14.8512 C46.5122,14.9362 46.4362,14.8262 46.3972,14.7282 L43.3442,7.6632 C43.2602,7.4662 43.3712,7.3922 43.4692,7.3482 L45.2652,6.5732 C45.9442,6.2792 46.7252,6.0072 47.4712,6.2572 C48.2192,6.5202 48.5592,7.1532 48.7352,7.5582 C48.9222,7.9962 49.0532,8.5112 48.9552,9.0362 C48.8752,9.4582 48.6902,9.7462 48.3592,10.1502 L51.2532,12.3702 C51.3342,12.4402 51.4032,12.4752 51.4242,12.5302 C51.4592,12.6062 51.4032,12.6572 51.3342,12.7122 L50.4602,13.4262 C50.3192,13.5422 50.2852,13.5942 49.9182,13.2832 L47.1682,10.9752 L46.6412,11.2032 L47.8852,14.0852 Z" id="Fill-54" fill="#FEFEFE" sketch:type="MSShapeGroup"></path>
            <path d="M56.0122,11.082 C56.0762,11.286 55.9572,11.348 55.8562,11.379 L54.7642,11.718 C54.5592,11.782 54.4942,11.663 54.4632,11.562 L52.5382,5.354 L51.0242,5.826 C50.8542,5.879 50.8152,5.75 50.8012,5.707 L50.4812,4.683 C50.4672,4.637 50.4282,4.511 50.5992,4.459 L55.4412,2.957 C55.6652,2.886 55.6602,3.062 55.6602,3.149 L55.7032,4.172 C55.7092,4.347 55.6122,4.399 55.5242,4.429 L54.0882,4.874 L56.0122,11.082 Z" id="Fill-56" fill="#FEFEFE" sketch:type="MSShapeGroup"></path>
            <path d="M62.2974,2.9673 C62.2764,3.0473 62.2504,3.1003 62.1914,3.1123 C62.1354,3.1233 62.0634,3.0773 61.8054,3.0083 C61.4194,2.9033 60.9074,2.8383 60.3814,2.9463 C59.7484,3.0763 59.4184,3.4713 59.5334,4.0443 C59.6614,4.6633 60.1434,4.7603 61.0294,4.9803 C61.2974,5.0483 61.8754,5.1853 62.3074,5.3893 C63.2194,5.8123 63.5794,6.4923 63.7094,7.1233 C63.9624,8.3753 63.4454,9.7583 61.6904,10.1193 C60.7894,10.3023 60.1004,10.2013 59.5454,10.1083 C59.4304,10.0823 59.1394,10.0313 59.1064,9.8673 C59.0974,9.8213 59.1094,9.7583 59.1224,9.7063 L59.2344,8.8913 C59.2444,8.8173 59.2704,8.7633 59.3384,8.7503 C59.3984,8.7353 59.4674,8.7833 59.7824,8.8403 C60.1254,8.8913 60.7894,8.9883 61.3844,8.8653 C62.1454,8.7113 62.3304,8.1243 62.2164,7.5753 C62.0774,6.8853 61.5334,6.7293 60.8384,6.5543 C60.0164,6.3433 59.3344,6.2293 58.8214,5.8593 C58.3504,5.5173 58.1634,5.0793 58.0614,4.5793 C57.7074,2.8593 58.8364,1.9473 60.1354,1.6803 C60.7404,1.5573 61.6774,1.5483 62.3094,1.7723 C62.5044,1.8413 62.5424,1.9073 62.5504,1.9423 C62.5574,1.9783 62.5424,2.0293 62.5394,2.0663 L62.2974,2.9673 Z" id="Fill-58" fill="#FEFEFE" sketch:type="MSShapeGroup"></path>
            <path d="M78.856,1.9326 C78.82,2.0036 78.784,2.0506 78.722,2.0506 C78.663,2.0476 78.604,1.9866 78.368,1.8626 C78.016,1.6746 77.528,1.4966 76.993,1.4846 C76.35,1.4696 75.936,1.7826 75.921,2.3676 C75.907,3.0006 76.356,3.2016 77.17,3.6146 C77.418,3.7386 77.95,4.0026 78.325,4.2966 C79.124,4.9116 79.321,5.6566 79.306,6.3026 C79.276,7.5786 78.461,8.8126 76.672,8.7726 C75.752,8.7516 75.103,8.4966 74.581,8.2826 C74.473,8.2326 74.202,8.1196 74.206,7.9516 C74.207,7.9046 74.235,7.8456 74.258,7.7996 L74.551,7.0286 C74.575,6.9576 74.614,6.9116 74.683,6.9136 C74.743,6.9136 74.801,6.9746 75.097,7.1006 C75.418,7.2286 76.042,7.4696 76.651,7.4826 C77.43,7.4996 77.739,6.9706 77.752,6.4106 C77.768,5.7066 77.273,5.4316 76.635,5.1046 C75.878,4.7186 75.241,4.4546 74.823,3.9796 C74.438,3.5416 74.354,3.0736 74.365,2.5596 C74.405,0.8046 75.709,0.1656 77.036,0.1976 C77.653,0.2106 78.569,0.4116 79.134,0.7706 C79.31,0.8816 79.333,0.9536 79.331,0.9906 C79.331,1.0246 79.306,1.0706 79.293,1.1086 L78.856,1.9326 Z" id="Fill-60" fill="#FEFEFE" sketch:type="MSShapeGroup"></path>
            <path d="M87.8511,6.8667 C87.7091,7.8727 87.3421,9.7987 84.5901,9.4097 C81.8341,9.0257 82.0121,7.0727 82.1541,6.0677 L82.8691,0.9587 C82.9101,0.6637 83.0561,0.7337 83.1501,0.7457 L84.2481,0.9007 C84.3461,0.9117 84.5061,0.8877 84.4651,1.1827 L83.7481,6.2897 C83.6611,6.9177 83.4681,7.9517 84.7691,8.1337 C86.0701,8.3167 86.1681,7.2687 86.2541,6.6427 L86.9711,1.5347 C87.0121,1.2397 87.1611,1.3067 87.2541,1.3217 L88.3561,1.4767 C88.4481,1.4887 88.6111,1.4627 88.5701,1.7577 L87.8511,6.8667 Z" id="Fill-62" fill="#FEFEFE" sketch:type="MSShapeGroup"></path>
            <path d="M93.3286,6.3096 L93.6856,6.4066 C94.3556,6.5876 95.0376,6.6726 95.3406,5.5556 C95.6276,4.4946 94.8946,4.2816 94.4576,4.1636 L93.9496,4.0266 L93.3286,6.3096 Z M92.1996,10.4816 C92.1696,10.5846 92.1116,10.7056 91.9046,10.6486 L90.8006,10.3486 C90.5926,10.2906 90.5996,10.1606 90.6316,10.0566 L92.6486,2.6216 C92.7046,2.4136 92.8356,2.4246 92.9416,2.4536 L94.8286,2.9676 C95.3496,3.1066 96.0576,3.3246 96.5056,3.7676 C96.8776,4.1306 97.2336,4.7816 96.9306,5.8996 C96.5176,7.4206 95.2386,8.1636 93.6026,7.7196 L92.9926,7.5536 L92.1996,10.4816 Z" id="Fill-64" fill="#FEFEFE" sketch:type="MSShapeGroup"></path>
            <path d="M101.3599,8.9282 L101.7019,9.0662 C102.3459,9.3252 103.0099,9.4902 103.4429,8.4162 C103.8539,7.4002 103.1519,7.1032 102.7289,6.9332 L102.2429,6.7382 L101.3599,8.9282 Z M99.7449,12.9322 C99.7059,13.0332 99.6329,13.1452 99.4359,13.0652 L98.3739,12.6362 C98.1749,12.5562 98.2019,12.4252 98.2409,12.3262 L101.1159,5.1912 C101.1959,4.9912 101.3269,5.0172 101.4259,5.0592 L103.2409,5.7892 C103.7409,5.9902 104.4169,6.2882 104.8089,6.7812 C105.1349,7.1832 105.4129,7.8752 104.9769,8.9462 C104.3919,10.4062 103.0359,10.9912 101.4649,10.3582 L100.8799,10.1232 L99.7449,12.9322 Z" id="Fill-66" fill="#FEFEFE" sketch:type="MSShapeGroup"></path>
            <path d="M110.6685,13.9297 C111.2235,12.9277 112.0065,11.2367 111.0045,10.6817 C110.0025,10.1307 108.9815,11.7057 108.4335,12.6977 C107.9625,13.5527 107.0495,15.3507 108.1045,15.9337 C109.1585,16.5157 110.1955,14.7847 110.6685,13.9297 M107.4835,17.0617 C104.9375,15.6547 106.5375,12.6307 106.9535,11.8787 C107.3735,11.1167 109.0765,8.1507 111.6255,9.5557 C114.1725,10.9627 112.5555,14.0177 112.1525,14.7487 C111.7345,15.5007 110.0305,18.4677 107.4835,17.0617" id="Fill-68" fill="#FEFEFE" sketch:type="MSShapeGroup"></path>
            <path d="M116.7837,17.2256 C117.3557,17.6366 118.0047,17.9856 118.6597,17.0766 C119.2757,16.2236 118.7387,15.8076 118.2347,15.4446 L117.8767,15.1836 L116.5377,17.0446 L116.7837,17.2256 Z M113.9637,20.6046 C113.9017,20.6926 113.8037,20.7856 113.6297,20.6576 L112.7007,19.9866 C112.5267,19.8616 112.5847,19.7406 112.6457,19.6536 L117.1547,13.4136 C117.2787,13.2386 117.3987,13.2976 117.4867,13.3586 L119.0717,14.5056 C119.6747,14.9376 120.3067,15.4696 120.4737,16.2376 C120.6337,17.0136 120.2607,17.6276 120.0057,17.9876 C119.7227,18.3746 119.3497,18.7506 118.8477,18.9336 C118.4457,19.0846 118.1037,19.0726 117.5837,18.9946 L117.1617,22.6176 C117.1447,22.7236 117.1467,22.8006 117.1107,22.8486 C117.0627,22.9166 116.9917,22.8936 116.9107,22.8626 L115.8457,22.4806 C115.6767,22.4156 115.6147,22.4156 115.6927,21.9406 L116.2657,18.3956 L115.8017,18.0596 L113.9637,20.6046 Z" id="Fill-70" fill="#FEFEFE" sketch:type="MSShapeGroup"></path>
            <path d="M120.686,26.0283 C120.544,26.1883 120.43,26.1183 120.35,26.0483 L119.497,25.2833 C119.336,25.1393 119.409,25.0243 119.477,24.9453 L123.819,20.1003 L122.637,19.0413 C122.503,18.9213 122.59,18.8243 122.624,18.7883 L123.341,17.9883 C123.372,17.9523 123.458,17.8563 123.594,17.9753 L127.37,21.3603 C127.548,21.5193 127.391,21.6033 127.319,21.6503 L126.463,22.2123 C126.315,22.3063 126.219,22.2523 126.147,22.1853 L125.028,21.1843 L120.686,26.0283 Z" id="Fill-72" fill="#FEFEFE" sketch:type="MSShapeGroup"></path>
            <path d="M129.8735,36.4053 C129.7755,36.4743 129.6745,36.5343 129.5395,36.3493 L128.8835,35.4273 C128.8105,35.3313 128.7545,35.2273 128.9355,35.0943 L135.1965,30.6243 C135.3795,30.4933 135.4595,30.5823 135.5275,30.6793 L137.8575,33.9393 C137.8985,33.9983 137.9145,34.0593 137.8965,34.1163 C137.8735,34.1903 137.7935,34.2203 137.7325,34.2353 L136.8685,34.5443 C136.8245,34.5643 136.7235,34.5903 136.6405,34.4723 L135.2675,32.5523 L133.6685,33.6943 L134.8225,35.3163 C134.9565,35.4993 134.8655,35.5793 134.7695,35.6483 L134.1025,36.1253 C133.9165,36.2583 133.8365,36.1673 133.7665,36.0703 L132.6095,34.4513 L129.8735,36.4053 Z" id="Fill-74" fill="#FEFEFE" sketch:type="MSShapeGroup"></path>
            <path d="M137.9956,42.1934 C138.9976,41.6374 140.5596,40.6194 140.0036,39.6184 C139.4496,38.6164 137.7476,39.4094 136.7546,39.9614 C135.8986,40.4344 134.1706,41.4744 134.7546,42.5314 C135.3406,43.5844 137.1396,42.6684 137.9956,42.1934 M133.6276,43.1544 C132.2156,40.6074 135.1826,38.8954 135.9336,38.4784 C136.6946,38.0544 139.7196,36.4444 141.1326,38.9914 C142.5456,41.5384 139.5476,43.2694 138.8156,43.6754 C138.0636,44.0914 135.0416,45.7014 133.6276,43.1544" id="Fill-76" fill="#FEFEFE" sketch:type="MSShapeGroup"></path>
            <path d="M141.0903,52.3672 C140.1493,52.7422 138.2973,53.3822 137.2643,50.7972 C136.2313,48.2132 138.0163,47.3962 138.9553,47.0212 L143.7473,45.1062 C144.0283,44.9952 144.0383,45.1572 144.0723,45.2482 L144.4863,46.2782 C144.5223,46.3652 144.6213,46.4932 144.3463,46.6032 L139.5553,48.5172 C138.9673,48.7532 137.9733,49.0982 138.4613,50.3172 C138.9483,51.5392 139.9073,51.1032 140.4953,50.8672 L145.2843,48.9552 C145.5633,48.8452 145.5743,49.0062 145.6113,49.0962 L146.0243,50.1272 C146.0573,50.2152 146.1603,50.3412 145.8843,50.4522 L141.0903,52.3672 Z" id="Fill-78" fill="#FEFEFE" sketch:type="MSShapeGroup"></path>
            <path d="M140.0122,57.7344 C139.9652,57.7464 139.8362,57.7784 139.7952,57.6054 L139.5472,56.6184 C139.5362,56.5724 139.5022,56.4464 139.6782,56.4034 L147.2612,54.4964 C147.3082,54.4854 147.4342,54.4544 147.4772,54.6294 L147.7482,55.7044 C147.7722,55.7864 147.8002,55.8164 147.6492,55.9514 L144.5432,58.7624 C143.9192,59.3254 143.1612,59.7884 143.0332,59.8674 L143.0382,59.8914 C143.4772,59.7684 144.1432,59.5764 144.5362,59.4784 L148.2762,58.5414 C148.4502,58.4954 148.4812,58.6244 148.4942,58.6704 L148.7412,59.6524 C148.7542,59.6994 148.7832,59.8254 148.6102,59.8704 L141.0252,61.7754 C140.8542,61.8194 140.8212,61.6924 140.8092,61.6444 L140.5862,60.7644 C140.5552,60.6374 140.6332,60.5574 140.6962,60.5054 L144.1112,57.3924 C144.4512,57.0874 144.8502,56.7154 145.5222,56.3384 L145.5142,56.3154 C145.2202,56.4164 144.5732,56.5884 144.2502,56.6704 L140.0122,57.7344 Z" id="Fill-80" fill="#FEFEFE" sketch:type="MSShapeGroup"></path>
            <path d="M142.9116,66.499 L143.0106,67.342 C143.0556,67.719 143.2976,68.231 144.0606,68.393 C144.6176,68.506 145.4176,68.483 145.9636,68.42 C146.5216,68.352 147.2966,68.187 147.7946,67.947 C148.5016,67.611 148.6136,67.057 148.5686,66.677 L148.4696,65.835 L142.9116,66.499 Z M149.8596,66.619 C149.9316,67.226 149.9726,68.156 149.2486,68.927 C148.5726,69.645 147.3616,69.959 146.1406,70.103 C144.7426,70.27 143.6506,70.172 142.8946,69.685 C142.0216,69.117 141.8146,68.192 141.7416,67.586 L141.4676,65.275 C141.4376,65.04 141.6406,65.017 141.7016,65.009 L149.3076,64.101 C149.4166,64.087 149.5596,64.082 149.5866,64.308 L149.8596,66.619 Z" id="Fill-82" fill="#FEFEFE" sketch:type="MSShapeGroup"></path>
            <path d="M147.5259,75.3008 C147.8809,75.2118 148.2859,75.1198 149.1079,75.0108 L149.1079,74.9758 C148.7839,74.9708 148.3419,74.9388 147.5159,74.7388 L145.4559,74.2428 L145.4809,75.8218 L147.5259,75.3008 Z M150.3969,75.7798 C150.3989,75.8998 150.3289,75.9248 150.2109,75.9618 L142.5499,78.4228 C142.5019,78.4368 142.4649,78.4598 142.4069,78.4598 C142.2749,78.4598 142.2639,78.3308 142.2599,78.2728 L142.2409,76.9468 C142.2389,76.8038 142.2489,76.7688 142.4869,76.6938 L144.4119,76.1368 L144.3779,74.0858 L142.4379,73.6268 C142.2429,73.5788 142.1859,73.5708 142.1839,73.4158 L142.1639,72.1398 C142.1599,71.8898 142.3279,71.9328 142.3969,71.9568 L150.1939,74.2048 C150.3029,74.2378 150.3739,74.2498 150.3759,74.4068 L150.3969,75.7798 Z" id="Fill-84" fill="#FEFEFE" sketch:type="MSShapeGroup"></path>
            <path d="M142.1021,82.5234 C141.8911,82.5054 141.8771,82.3714 141.8871,82.2624 L141.9931,81.1224 C142.0101,80.9104 142.1451,80.9004 142.2501,80.9104 L148.7261,81.5024 L148.8721,79.9234 C148.8851,79.7434 149.0161,79.7544 149.0631,79.7594 L150.1331,79.8564 C150.1801,79.8604 150.3111,79.8724 150.2951,80.0534 L149.8341,85.0974 C149.8111,85.3384 149.6511,85.2624 149.5691,85.2304 L148.6061,84.8804 C148.4481,84.8184 148.4331,84.7084 148.4401,84.6164 L148.5771,83.1204 L142.1021,82.5234 Z" id="Fill-86" fill="#FEFEFE" sketch:type="MSShapeGroup"></path>
            <path d="M142.0962,88.8623 L141.9792,89.4973 C141.9362,89.7243 141.8172,89.7093 141.7012,89.6873 L141.0202,89.5643 C140.9002,89.5413 140.7862,89.5083 140.8272,89.2863 L141.3542,86.4323 C141.3762,86.3163 141.4102,86.2013 141.6312,86.2383 L142.3152,86.3673 C142.5372,86.4073 142.5262,86.5283 142.5052,86.6423 L142.3872,87.2793 L148.1302,88.3423 L148.2482,87.7073 C148.2702,87.5913 148.3012,87.4733 148.5282,87.5143 L149.2062,87.6413 C149.4282,87.6833 149.4222,87.8033 149.3992,87.9213 L148.8712,90.7743 C148.8492,90.8913 148.8172,91.0073 148.5902,90.9663 L147.9112,90.8383 C147.6902,90.8003 147.6982,90.6763 147.7202,90.5583 L147.8372,89.9253 L142.0962,88.8623 Z" id="Fill-88" fill="#FEFEFE" sketch:type="MSShapeGroup"></path>
            <path d="M143.0513,96.8984 C144.1493,97.2244 145.9693,97.6234 146.2943,96.5264 C146.6193,95.4274 144.8623,94.7724 143.7723,94.4514 C142.8323,94.1734 140.8773,93.6764 140.5383,94.8314 C140.1973,95.9844 142.1123,96.6224 143.0513,96.8984 M139.3033,94.4644 C140.1243,91.6724 143.4263,92.5834 144.2503,92.8244 C145.0863,93.0724 148.3543,94.0944 147.5303,96.8884 C146.7103,99.6814 143.3713,98.7584 142.5723,98.5234 C141.7503,98.2824 138.4803,97.2584 139.3033,94.4644" id="Fill-90" fill="#FEFEFE" sketch:type="MSShapeGroup"></path>
            <path d="M137.3071,101.3076 C137.2641,101.2876 137.1431,101.2336 137.2131,101.0696 L137.6211,100.1406 C137.6431,100.0996 137.6971,99.9766 137.8581,100.0516 L145.0161,103.2026 C145.0611,103.2216 145.1821,103.2746 145.1101,103.4376 L144.6611,104.4536 C144.6281,104.5316 144.6361,104.5716 144.4321,104.5886 L140.2511,104.9016 C139.4151,104.9636 138.5331,104.8626 138.3831,104.8486 L138.3731,104.8676 C138.7931,105.0396 139.4381,105.3016 139.8091,105.4616 L143.3371,107.0146 C143.5011,107.0916 143.4491,107.2096 143.4301,107.2516 L143.0201,108.1786 C143.0021,108.2246 142.9501,108.3446 142.7841,108.2736 L135.6291,105.1226 C135.4651,105.0506 135.5171,104.9276 135.5341,104.8856 L135.9011,104.0536 C135.9551,103.9366 136.0691,103.9186 136.1461,103.9116 L140.7521,103.5556 C141.2091,103.5226 141.7521,103.4716 142.5141,103.5876 L142.5221,103.5626 C142.2271,103.4626 141.6111,103.2026 141.3051,103.0676 L137.3071,101.3076 Z" id="Fill-92" fill="#FEFEFE" sketch:type="MSShapeGroup"></path>
        </g>
    </g>
</svg>