<?xml version="1.0" encoding="UTF-8" standalone="no"?>
<svg width="39px" height="39px" viewBox="0 0 39 39" version="1.1" xmlns="http://www.w3.org/2000/svg" xmlns:xlink="http://www.w3.org/1999/xlink" xmlns:sketch="http://www.bohemiancoding.com/sketch/ns">
    <!-- Generator: Sketch 3.3.3 (12081) - http://www.bohemiancoding.com/sketch -->
    <title>gallery-full</title>
    <desc>Created with Sketch.</desc>
    <defs></defs>
    <g id="Page-1" stroke="none" stroke-width="1" fill="none" fill-rule="evenodd" sketch:type="MSPage">
        <path d="M10.6666667,25.6666667 C12,24.3333333 13.3333333,24.3333333 13.3333333,25.6666667 C14.6666667,25.6666667 14.6666667,27 13.3333333,28.3333333 L8,35 L13.3333333,35 C14.6666667,35 16,36.3333333 16,37.6666667 C14.6666667,37.6666667 14.6666667,39 13.3333333,39 L2.66666667,39 C1.33333333,39 0,37.6666667 0,36.3333333 L0,36.3333333 L0,25.6666667 C0,24.3333333 1.33333333,23 2.66666667,23 C4,23 4,24.3333333 4,25.6666667 L4,31 L10.6666667,25.6666667 L10.6666667,25.6666667 Z M26.6666667,15 C26.6666667,16.3333333 25.3333333,16.3333333 24,15 C22.6666667,13.6666667 22.6666667,12.3333333 24,12.3333333 L30.6666667,5.66666667 L25.3333333,5.66666667 C24,5.66666667 22.6666667,4.33333333 22.6666667,3 C22.6666667,1.66666667 24,0.333333333 25.3333333,0.333333333 L36,0.333333333 C37.3333333,0.333333333 38.6666667,1.66666667 38.6666667,3 L38.6666667,13.6666667 C38.6666667,15 37.3333333,16.3333333 36,16.3333333 C34.6666667,16.3333333 33.3333333,15 33.3333333,13.6666667 L33.3333333,9.66666667 L26.6666667,15 L26.6666667,15 Z" id="gallery-full" fill="#000000" sketch:type="MSShapeGroup"></path>
    </g>
</svg>