<?xml version="1.0" encoding="UTF-8" standalone="no"?>
<svg width="48px" height="36px" viewBox="0 0 48 36" version="1.1" xmlns="http://www.w3.org/2000/svg" xmlns:xlink="http://www.w3.org/1999/xlink" xmlns:sketch="http://www.bohemiancoding.com/sketch/ns">
    <!-- Generator: Sketch 3.3.2 (12043) - http://www.bohemiancoding.com/sketch -->
    <title>Vector Smart Object</title>
    <desc>Created with Sketch.</desc>
    <defs></defs>
    <g id="Page-1" stroke="none" stroke-width="1" fill="none" fill-rule="evenodd" sketch:type="MSPage">
        <g id="Vector-Smart-Object" sketch:type="MSLayerGroup" fill="#000000">
            <path d="M31.7991,18.3851 L38.7351,10.6791 C39.1091,10.2721 39.0841,9.6391 38.6781,9.2651 C38.2711,8.8891 37.6401,8.9171 37.2651,9.3211 L28.2641,19.3231 C27.2311,20.4451 25.8941,21.0641 24.5001,21.0641 C23.1051,21.0641 21.7681,20.4451 20.7351,19.3211 L8.7351,6.3211 C8.3601,5.9171 7.7281,5.8891 7.3221,6.2651 C6.9161,6.6391 6.8901,7.2721 7.2651,7.6791 L17.1671,18.4051 L6.3271,28.2601 C5.9181,28.6321 5.8891,29.2641 6.2601,29.6731 C6.4571,29.8891 6.7281,30.0001 7.0001,30.0001 C7.2401,30.0001 7.4811,29.9141 7.6731,29.7401 L18.5241,19.8751 L19.2641,20.6771 C20.6801,22.2161 22.5391,23.0641 24.5001,23.0641 C26.4601,23.0641 28.3201,22.2161 29.7351,20.6791 L30.4591,19.8731 L40.2931,29.7071 C40.4881,29.9021 40.7441,30.0001 41.0001,30.0001 C41.2561,30.0001 41.5121,29.9021 41.7071,29.7071 C42.0981,29.3161 42.0981,28.6831 41.7071,28.2931 L31.7991,18.3851 Z" id="Fill-1" sketch:type="MSShapeGroup"></path>
            <path d="M46,31 C46,32.654 44.654,34 43,34 L13,34 L5,34 C3.346,34 2,32.654 2,31 L2,23.149 L2,5 C2,3.346 3.346,2 5,2 L35,2 L43,2 C44.654,2 46,3.346 46,5 L46,12.851 L46,31 Z M43,0 L36,0 L5,0 C2.243,0 0,2.243 0,5 L0,23 L0,31 C0,33.757 2.243,36 5,36 L12,36 L43,36 C45.757,36 48,33.757 48,31 L48,13 L48,5 C48,2.243 45.757,0 43,0 L43,0 Z" id="Fill-3" sketch:type="MSShapeGroup"></path>
        </g>
    </g>
</svg>