<?xml version="1.0" encoding="UTF-8" standalone="no"?>
<svg width="28px" height="42px" viewBox="0 0 28 42" version="1.1" xmlns="http://www.w3.org/2000/svg" xmlns:xlink="http://www.w3.org/1999/xlink" xmlns:sketch="http://www.bohemiancoding.com/sketch/ns">
    <!-- Generator: Sketch 3.3.3 (12081) - http://www.bohemiancoding.com/sketch -->
    <title>Shape</title>
    <desc>Created with Sketch.</desc>
    <defs></defs>
    <g id="Page-1" stroke="none" stroke-width="1" fill="none" fill-rule="evenodd" sketch:type="MSPage">
        <path d="M14,0 C5,0 0,5 0,14 L0,28 C0,37 5,42 14,42 C23,42 28,37 28,28 L28,14 C28,5 23,0 14,0 L14,0 Z M26,28 C26,36 22,40 14,40 C6,40 2,36 2,28 L2,14 C2,6 6,2 14,2 C22,2 26,6 26,14 L26,28 Z M14,6 C13.4,6 13,6.4 13,7 L13,11 C13,11.6 13.4,12 14,12 C14.6,12 15,11.6 15,11 L15,7 C15,6.4 14.6,6 14,6 Z" id="Shape" fill="#3C3C3B" sketch:type="MSShapeGroup"></path>
    </g>
</svg>