<?xml version="1.0" encoding="UTF-8" standalone="no"?>
<svg width="371px" height="338px" viewBox="0 0 371 338" version="1.1" xmlns="http://www.w3.org/2000/svg" xmlns:xlink="http://www.w3.org/1999/xlink" xmlns:sketch="http://www.bohemiancoding.com/sketch/ns">
    <!-- Generator: Sketch 3.3.2 (12043) - http://www.bohemiancoding.com/sketch -->
    <title>load</title>
    <desc>Created with Sketch.</desc>
    <defs></defs>
    <g id="Page-1" stroke="none" stroke-width="1" fill="none" fill-rule="evenodd" sketch:type="MSPage">
        <g id="load" sketch:type="MSLayerGroup" transform="translate(-1.000000, 0.000000)" fill="#000000">
            <path d="M272.7588,102.7183 C269.0808,102.7183 265.6938,104.6383 263.9198,107.7303 L263.7918,107.9683 C262.5688,110.3963 262.4508,113.3253 263.4698,116.0053 C264.4378,118.5493 266.3328,120.5783 268.7008,121.6213 L324.0468,151.3303 C325.4388,152.0713 327.0298,152.4633 328.6498,152.4633 C332.2938,152.4633 335.5968,150.5833 337.3118,147.5463 L370.1838,94.3023 C372.0168,91.4963 372.1128,87.8063 370.4268,84.6403 C368.6288,81.2633 365.2788,79.1663 361.6828,79.1663 C361.2668,79.1663 360.8468,79.1953 360.4338,79.2513 L359.9138,79.3503 C357.2148,80.0163 354.8938,81.7213 353.5298,84.0373 L332.4588,117.8293 C322.2518,86.2313 302.5758,57.8763 276.2338,37.0973 C245.9948,13.2443 209.5658,0.6353 170.8868,0.6353 C77.2108,0.6353 0.9998,76.3063 0.9998,169.3183 C0.9998,262.3293 77.2108,338.0003 170.8868,338.0003 C210.1838,338.0003 248.4928,324.3433 278.7568,299.5443 C308.5578,275.1233 329.2158,241.1203 336.9538,203.7603 C337.7748,201.3083 337.5088,198.5583 336.1968,196.1293 C334.7748,193.4933 332.3838,191.6683 329.5788,191.1113 C329.0118,191.0053 328.4288,190.9513 327.8478,190.9513 C322.7558,190.9513 318.3418,194.8663 317.8058,199.7643 C303.3368,268.4963 241.5948,318.3483 170.8868,318.3483 C88.0848,318.3483 20.7198,251.4943 20.7198,169.3183 C20.7198,87.2383 88.0848,20.4603 170.8868,20.4603 C236.4418,20.4603 293.5208,62.1533 313.5018,123.1803 L277.9268,104.1953 C276.4078,103.2273 274.6288,102.7183 272.7588,102.7183" id="Fill-1" sketch:type="MSShapeGroup"></path>
        </g>
    </g>
</svg>