<?xml version="1.0" encoding="UTF-8" standalone="no"?>
<svg width="79px" height="87px" viewBox="0 0 79 87" version="1.1" xmlns="http://www.w3.org/2000/svg" xmlns:xlink="http://www.w3.org/1999/xlink" xmlns:sketch="http://www.bohemiancoding.com/sketch/ns">
    <!-- Generator: Sketch 3.3.2 (12043) - http://www.bohemiancoding.com/sketch -->
    <title>Vector Smart Object</title>
    <desc>Created with Sketch.</desc>
    <defs></defs>
    <g id="Page-1" stroke="none" stroke-width="1" fill="none" fill-rule="evenodd" sketch:type="MSPage">
        <g id="Vector-Smart-Object" sketch:type="MSLayerGroup" transform="translate(-1.000000, 0.000000)" fill="#1D1D1B">
            <g id="Group-3" transform="translate(0.000000, 50.000000)" sketch:type="MSShapeGroup">
                <path d="M22.4726,3.459 C12.0586,4.186 3.9996,12.756 3.9996,23.27 L3.9996,30.487 C3.9996,32.424 5.5756,34 7.5116,34 L72.6036,34 C74.5396,34 76.1156,32.424 76.1156,30.487 L76.1156,23.27 C76.1156,12.852 68.1386,4.292 57.8266,3.476 L42.5956,21.134 C42.3106,21.464 41.8966,21.654 41.4596,21.654 L38.8536,21.654 C38.4166,21.654 38.0026,21.464 37.7176,21.134 L22.4726,3.459 Z M72.6036,37 L7.5116,37 C3.9206,37 0.9996,34.078 0.9996,30.487 L0.9996,23.27 C0.9996,10.894 10.6976,0.858 23.0766,0.424 C23.5346,0.395 23.9676,0.599 24.2646,0.943 L39.5406,18.654 L40.7726,18.654 L56.0396,0.953 C56.3396,0.605 56.7826,0.415 57.2416,0.434 C69.5066,0.972 79.1156,11.002 79.1156,23.27 L79.1156,30.487 C79.1156,34.078 76.1946,37 72.6036,37 L72.6036,37 Z" id="Fill-1"></path>
            </g>
            <g id="Group-6" transform="translate(19.000000, 0.000000)" sketch:type="MSShapeGroup">
                <path d="M11.124,14.7344 C11.293,14.7344 11.462,14.7624 11.624,14.8204 C20.477,17.9514 33.514,22.5364 36.692,23.5934 L37.968,22.5224 L37.968,20.1264 C37.968,15.3524 35.917,10.7714 32.34,7.5564 L32.015,7.2614 C31.888,7.1524 31.762,7.0474 31.633,6.9434 C31.621,6.9344 31.521,6.8604 31.51,6.8514 C28.486,4.4704 24.875,3.2154 21.058,3.2154 C16.481,3.2154 12.191,5.0224 8.98,8.3034 C8.621,8.6704 8.101,8.8264 7.6,8.7224 C7.099,8.6184 6.686,8.2644 6.504,7.7864 C6.494,7.7584 6.484,7.7314 6.475,7.7044 C6.492,7.9614 6.565,8.2914 6.744,8.7084 L6.793,8.8064 C7.015,9.2874 6.966,9.8474 6.667,10.2834 C6.367,10.7184 5.854,10.9564 5.334,10.9304 C5.193,10.9214 5.062,10.9234 4.939,10.9394 C5.257,11.0644 5.528,11.2954 5.7,11.5994 C5.939,12.0224 5.959,12.5344 5.753,12.9744 C4.688,15.2484 4.147,17.6544 4.147,20.1264 L4.147,22.4674 L6.001,23.5294 C6.86,22.3864 8.38,19.9654 9.693,15.7854 C9.815,15.3964 10.09,15.0744 10.454,14.8924 C10.664,14.7874 10.894,14.7344 11.124,14.7344 M6.331,26.9474 C6.075,26.9474 5.817,26.8814 5.585,26.7494 L1.901,24.6384 C1.436,24.3714 1.147,23.8754 1.147,23.3374 L1.147,20.1264 C1.147,18.3044 1.396,16.5144 1.888,14.7744 C1.638,14.7964 1.384,14.7474 1.147,14.6354 C0.591,14.3754 0.25,13.7994 0.288,13.1854 C0.381,11.6804 1.195,9.0644 3.514,8.2074 C3.369,7.0594 3.641,6.1734 3.956,5.5684 C5.089,3.3904 7.736,2.7814 8.035,2.7184 C8.64,2.5974 9.255,2.8474 9.594,3.3604 C9.67,3.4754 9.729,3.5984 9.77,3.7264 C13.064,1.4434 16.963,0.2154 21.058,0.2154 C25.555,0.2154 29.808,1.6934 33.356,4.4874 L33.521,4.6114 C33.668,4.7304 33.817,4.8554 33.966,4.9824 C34.052,5.0554 34.136,5.1334 34.221,5.2114 L34.342,5.3224 C38.554,9.1084 40.968,14.5034 40.968,20.1264 L40.968,23.2214 C40.968,23.6654 40.772,24.0854 40.433,24.3704 L37.996,26.4174 C37.726,26.6444 37.384,26.7684 37.031,26.7684 C36.705,26.7684 36.424,26.7694 12.063,18.1574 C9.875,24.2984 7.344,26.5544 7.316,26.5784 C7.036,26.8224 6.685,26.9474 6.331,26.9474" id="Fill-4"></path>
            </g>
            <path d="M60.035,24.5423 C59.601,23.9803 59.067,23.5443 58.468,23.2223 L56.032,25.2683 C57.943,25.2683 59.015,27.0963 58.34,29.6723 C57.467,32.9903 56.877,34.7363 56.194,35.6523 C55.512,36.5673 54.737,36.6543 53.498,36.6543 C53.477,36.6543 53.464,36.6443 53.444,36.6443 C52.444,39.6853 51.048,42.2873 49.515,44.4283 C48.289,46.1413 46.974,47.5593 45.704,48.6693 C45.387,48.9473 45.072,49.2053 44.762,49.4443 C44.142,49.9223 43.542,50.3233 42.978,50.6443 C41.849,51.2883 40.865,51.6153 40.157,51.6153 C37.331,51.6153 30.074,46.3753 26.876,36.6423 C26.854,36.6433 26.84,36.6543 26.817,36.6543 C25.578,36.6543 24.803,36.5673 24.121,35.6523 C23.438,34.7363 22.847,32.9903 21.975,29.6723 C21.3,27.0963 22.373,25.2683 24.283,25.2683 C24.645,25.2683 24.993,25.3403 25.331,25.4473 L21.648,23.3363 C21.131,23.6473 20.665,24.0433 20.28,24.5423 C19.128,26.0353 18.819,28.0953 19.408,30.3453 C20.77,35.5253 21.684,38.4023 24.95,39.1253 C28.639,48.5513 36.096,54.2693 40.157,54.2693 C44.221,54.2693 51.681,48.5513 55.371,39.1243 C58.632,38.3993 59.546,35.5223 60.906,30.3473 C61.497,28.0953 61.187,26.0353 60.035,24.5423" id="Fill-7" sketch:type="MSShapeGroup"></path>
        </g>
    </g>
</svg>