<svg xmlns="http://www.w3.org/2000/svg" xmlns:xlink="http://www.w3.org/1999/xlink" preserveAspectRatio="xMidYMid" width="41.219" height="41.219" viewBox="0 0 41.219 41.219">
  <defs>
    <style>
      .cls-1 {
        fill: #4b4b4b;
        fill-rule: evenodd;
      }
    </style>
  </defs>
  <path d="M32.421,37.478 C32.410,37.491 32.407,37.507 32.395,37.520 C32.305,37.614 32.199,37.679 32.085,37.723 C28.803,39.931 24.856,41.223 20.612,41.223 C16.363,41.223 12.412,39.929 9.128,37.717 C9.003,37.667 8.887,37.594 8.794,37.485 C8.788,37.479 8.787,37.470 8.781,37.463 C3.480,33.729 0.000,27.574 0.000,20.612 C0.000,9.247 9.246,0.000 20.612,0.000 C31.977,0.000 41.223,9.247 41.223,20.612 C41.223,27.583 37.735,33.746 32.421,37.478 ZM29.999,36.984 C29.586,36.921 29.076,36.917 28.375,36.924 L25.829,36.927 C25.547,36.927 25.283,36.789 25.123,36.557 L22.863,33.291 C22.794,33.190 22.750,33.081 22.728,32.969 C22.049,33.267 21.336,33.437 20.603,33.437 C19.888,33.437 19.192,33.271 18.527,32.985 C18.504,33.088 18.466,33.189 18.403,33.282 L16.196,36.549 C16.036,36.785 15.770,36.927 15.484,36.927 L13.262,36.927 C12.419,36.918 11.786,36.925 11.271,37.013 C14.030,38.591 17.213,39.505 20.612,39.505 C24.030,39.505 27.230,38.579 29.999,36.984 ZM26.841,14.938 C27.228,13.915 27.088,12.766 26.465,11.863 C25.814,10.920 24.759,10.400 23.496,10.400 C22.351,10.400 21.099,10.815 19.776,11.636 C19.640,11.721 19.483,11.765 19.324,11.765 C14.422,11.765 14.422,13.533 14.422,15.242 C14.422,15.355 14.400,15.468 14.356,15.573 C14.341,15.609 12.812,19.435 14.624,23.563 C14.672,23.673 14.697,23.790 14.697,23.909 C14.697,27.704 17.733,31.719 20.603,31.719 C23.474,31.719 26.510,27.704 26.510,23.909 C26.510,23.653 26.624,23.411 26.821,23.247 C28.190,22.114 27.410,17.526 26.819,15.481 C26.767,15.303 26.775,15.112 26.841,14.938 ZM20.612,1.718 C10.193,1.718 1.718,10.193 1.718,20.612 C1.718,26.870 4.789,32.411 9.490,35.851 C10.582,35.209 11.786,35.199 13.265,35.210 L15.028,35.210 L16.980,32.321 C17.021,32.260 17.078,32.219 17.130,32.173 C14.746,30.395 13.049,27.043 12.981,24.091 C11.173,19.804 12.392,15.933 12.705,15.080 C12.738,12.483 13.598,10.116 19.081,10.049 C20.606,9.142 22.090,8.682 23.496,8.682 C25.314,8.682 26.911,9.486 27.878,10.888 C28.766,12.173 29.007,13.790 28.543,15.269 C28.919,16.666 30.201,22.059 28.219,24.279 C28.087,27.171 26.427,30.407 24.109,32.153 C24.168,32.201 24.230,32.247 24.275,32.313 L26.279,35.210 L28.359,35.206 C29.671,35.192 30.752,35.193 31.756,35.834 C36.444,32.392 39.505,26.859 39.505,20.612 C39.505,10.193 31.029,1.718 20.612,1.718 Z" class="cls-1"/>
</svg>
