<?xml version="1.0" encoding="UTF-8" standalone="no"?>
<svg width="70px" height="68px" viewBox="0 0 70 68" version="1.1" xmlns="http://www.w3.org/2000/svg" xmlns:xlink="http://www.w3.org/1999/xlink" xmlns:sketch="http://www.bohemiancoding.com/sketch/ns">
    <!-- Generator: Sketch 3.3.3 (12081) - http://www.bohemiancoding.com/sketch -->
    <title>Shape</title>
    <desc>Created with Sketch.</desc>
    <defs></defs>
    <g id="Page-1" stroke="none" stroke-width="1" fill="none" fill-rule="evenodd" sketch:type="MSPage">
        <path d="M63.5,41 L43,41 L43,60.5 C43,64.642 39.642,68 35.5,68 C31.358,68 28,64.642 28,60.5 L28,41 L6.5,41 C2.91,41 0,38.09 0,34.5 C0,30.91 2.91,28 6.5,28 L28,28 L28,7.5 C28,3.358 31.358,0 35.5,0 C39.642,0 43,3.358 43,7.5 L43,28 L63.5,28 C67.09,28 70,30.91 70,34.5 C70,38.09 67.09,41 63.5,41 L63.5,41 Z" id="Shape" fill="#000000" sketch:type="MSShapeGroup"></path>
    </g>
</svg>