<?xml version="1.0" encoding="UTF-8" standalone="no"?>
<svg width="35px" height="20px" viewBox="0 0 35 20" version="1.1" xmlns="http://www.w3.org/2000/svg" xmlns:xlink="http://www.w3.org/1999/xlink" xmlns:sketch="http://www.bohemiancoding.com/sketch/ns">
    <!-- Generator: Sketch 3.3.3 (12081) - http://www.bohemiancoding.com/sketch -->
    <title>Shape</title>
    <desc>Created with Sketch.</desc>
    <defs></defs>
    <g id="Page-1" stroke="none" stroke-width="1" fill="none" fill-rule="evenodd" sketch:type="MSPage">
        <path d="M26.764,8.854 C26.117,8.222 26.117,7.197 26.764,6.565 C27.402,5.933 28.455,5.933 29.092,6.565 L34.515,11.895 C35.157,12.527 35.157,13.562 34.515,14.194 L29.092,19.524 C28.455,20.156 27.402,20.156 26.764,19.524 C26.117,18.892 26.117,17.857 26.764,17.225 L29.375,14.661 L14.644,14.661 C13.741,14.661 13.006,13.937 13.006,13.049 C13.006,12.152 13.741,11.428 14.644,11.428 L29.375,11.428 L26.764,8.854 L26.764,8.854 L26.764,8.854 Z M5.9,0.47 C6.533,-0.162 7.576,-0.162 8.228,0.47 C8.869,1.102 8.869,2.137 8.228,2.76 L5.62,5.333 L20.344,5.333 C21.247,5.333 21.982,6.056 21.982,6.954 C21.982,7.843 21.247,8.566 20.344,8.566 L5.62,8.566 L8.228,11.13 C8.869,11.771 8.869,12.797 8.228,13.429 C7.576,14.061 6.533,14.061 5.9,13.429 L0.463,8.089 C-0.17,7.467 -0.17,6.432 0.463,5.8 L5.9,0.47 L5.9,0.47 L5.9,0.47 Z" id="Shape" fill="#00BFFF" sketch:type="MSShapeGroup"></path>
    </g>
</svg>