<?xml version="1.0" encoding="UTF-8" standalone="no"?>
<svg width="79px" height="92px" viewBox="0 0 79 92" version="1.1" xmlns="http://www.w3.org/2000/svg" xmlns:xlink="http://www.w3.org/1999/xlink" xmlns:sketch="http://www.bohemiancoding.com/sketch/ns">
    <!-- Generator: Sketch 3.3.2 (12043) - http://www.bohemiancoding.com/sketch -->
    <title>Vector Smart Object</title>
    <desc>Created with Sketch.</desc>
    <defs></defs>
    <g id="Page-1" stroke="none" stroke-width="1" fill="none" fill-rule="evenodd" sketch:type="MSPage">
        <g id="Vector-Smart-Object" sketch:type="MSLayerGroup" transform="translate(-1.000000, 0.000000)" fill="#1D1D1B">
            <path d="M58.9639,28.6786 C58.4979,28.0746 57.8439,27.7036 57.0939,27.5726 C56.8189,28.2736 56.4359,28.7486 55.8969,28.8486 C55.4989,28.9206 55.1259,29.4956 54.7849,30.1946 L55.5099,30.1766 C55.8299,30.1686 56.1469,30.1606 56.5159,30.1606 C56.7559,30.1606 56.8199,30.2436 56.8629,30.2996 C57.1149,30.6256 57.2299,31.4896 56.9169,32.6796 C55.6029,37.6786 54.9689,37.6696 54.1379,37.6776 L52.9909,37.6606 L52.5839,38.9716 C52.5489,39.0926 52.5159,39.2146 52.4769,39.3296 L52.4099,39.6406 C52.1739,42.1646 51.9679,42.7246 51.9299,42.8086 C51.1259,44.4966 45.8389,50.9276 43.9909,51.6446 C43.9749,51.6496 43.5769,51.7776 41.9779,51.7776 C41.0109,51.7776 40.1429,51.7316 40.1299,51.7296 L40.0589,51.7276 L39.9879,51.7296 C39.9749,51.7316 39.1069,51.7776 38.1389,51.7776 C36.5389,51.7776 36.1409,51.6496 36.1339,51.6466 C34.2779,50.9266 28.9919,44.4966 28.1889,42.8086 C28.1429,42.7086 27.9059,42.0486 27.6429,38.8856 L27.5399,37.6476 L25.8669,37.6806 C25.1709,37.6806 24.5129,37.6806 23.1989,32.6816 C22.8869,31.4896 23.0019,30.6256 23.2539,30.2996 C23.2959,30.2456 23.3609,30.1606 23.6009,30.1606 C24.0929,30.1606 24.5169,30.1716 24.9349,30.1826 L25.7299,30.2046 C25.3889,29.5006 25.0129,28.9216 24.6139,28.8486 C24.0519,28.7446 23.5839,28.2686 23.2069,27.5536 C22.3909,27.6596 21.6549,28.0286 21.1529,28.6786 C20.3249,29.7516 20.1349,31.4556 20.6319,33.3536 C22.0359,38.6946 23.1859,40.0556 25.1069,40.2926 C25.3509,42.7386 25.5879,43.5226 25.7919,43.9486 C26.6459,45.7436 32.3029,53.0066 35.1729,54.1216 C35.5449,54.2656 36.2179,54.4316 38.1389,54.4316 C39.0179,54.4316 39.8209,54.3956 40.0589,54.3836 C40.2969,54.3956 41.0999,54.4316 41.9779,54.4316 C43.8979,54.4316 44.5709,54.2656 44.9429,54.1216 C47.8139,53.0076 53.4709,45.7436 54.3269,43.9486 C54.5279,43.5236 54.7659,42.7516 55.0129,40.2926 C56.9319,40.0556 58.0799,38.6936 59.4839,33.3526 C59.9819,31.4556 59.7919,29.7516 58.9639,28.6786" id="Fill-1" sketch:type="MSShapeGroup"></path>
            <path d="M53.8385,21.0976 C53.5295,19.5526 53.0645,18.1826 52.3635,17.1676 C52.0335,16.6896 51.7075,16.3096 51.3815,16.0016 C52.5655,17.8906 53.3675,20.4836 53.7525,24.0156 C53.8035,23.1396 53.8375,22.1796 53.8385,21.0976" id="Fill-3" sketch:type="MSShapeGroup"></path>
            <path d="M28.1467,17.1672 C27.4457,18.1832 26.9807,19.5532 26.6717,21.0972 C26.6717,21.7282 26.6857,22.3092 26.7047,22.8672 C27.0827,20.2352 27.7207,18.1782 28.5987,16.5732 C28.4487,16.7552 28.2977,16.9482 28.1467,17.1672" id="Fill-5" sketch:type="MSShapeGroup"></path>
            <g id="Group-9" transform="translate(19.000000, 0.000000)" sketch:type="MSShapeGroup">
                <path d="M30.0664,13.4736 C31.7954,13.4736 33.2774,14.4036 34.5974,16.3146 C35.3684,17.4306 35.9274,18.8986 36.3094,20.8026 C36.3294,20.9006 36.3384,20.9986 36.3384,21.0986 C36.3364,23.9206 36.1254,26.0206 35.9164,27.6446 C36.1014,27.5326 36.3014,27.4476 36.5194,27.3956 C36.6374,27.2396 37.0624,26.5136 37.1504,24.0896 C37.1534,23.9986 37.1654,23.9116 37.1834,23.8256 C37.6964,20.2966 37.8654,16.7206 37.5494,15.9826 C37.5434,15.9826 37.2154,15.5516 35.8754,14.9756 C35.4314,14.7846 35.1064,14.3926 35.0024,13.9216 C34.8974,13.4506 35.0274,12.9576 35.3484,12.5976 C36.4074,11.4126 36.8574,10.1986 36.7234,8.8816 C36.5404,7.0706 35.3124,5.4016 34.2494,4.2686 C32.6794,6.6576 29.0684,7.4296 26.7074,7.4726 L26.6794,7.4726 C25.9614,7.4726 25.3404,6.9616 25.2064,6.2536 C25.1304,5.8596 25.2174,5.4676 25.4234,5.1526 C23.3314,5.6796 20.3934,6.1766 16.2974,6.4736 C12.4644,6.7516 9.8224,7.7756 8.6584,9.4346 C7.6184,10.9146 8.0454,12.4946 8.0644,12.5616 C8.2854,13.3466 7.8424,14.1816 7.0614,14.4186 C5.2804,14.9616 4.1724,15.5956 3.8504,15.9856 C3.6414,16.7616 3.8934,19.8546 4.7934,24.4146 C5.1774,26.5586 5.7544,27.2946 5.9264,27.3856 C6.1684,27.4296 6.3904,27.5156 6.5934,27.6376 C6.3844,26.0136 6.1734,23.9166 6.1714,21.0986 C6.1714,20.9996 6.1814,20.9006 6.2014,20.8036 C6.5814,18.9006 7.1404,17.4316 7.9124,16.3146 C9.2324,14.4036 10.7134,13.4736 12.4434,13.4736 C14.1314,13.4736 15.6534,14.3956 17.1254,15.2866 C18.4834,16.1106 19.8894,16.9616 21.2544,16.9616 C22.6204,16.9616 24.0254,16.1106 25.3844,15.2866 C26.8564,14.3956 28.3774,13.4736 30.0664,13.4736 M34.3614,34.5376 C33.9324,34.5376 32.9044,34.3616 32.6144,32.7246 C32.3744,31.3636 32.5564,30.0546 32.7864,28.3976 C33.0284,26.6616 33.3284,24.5066 33.3384,21.2476 C33.0454,19.8426 32.6384,18.7566 32.1294,18.0196 C31.0614,16.4736 30.3384,16.4736 30.0664,16.4736 C29.2154,16.4736 28.1104,17.1436 26.9394,17.8526 C25.3074,18.8416 23.4584,19.9616 21.2544,19.9616 C19.0504,19.9616 17.2024,18.8416 15.5704,17.8526 C14.3994,17.1436 13.2934,16.4736 12.4434,16.4736 C12.1704,16.4736 11.4484,16.4736 10.3804,18.0196 C9.8714,18.7576 9.4644,19.8426 9.1714,21.2476 C9.1824,24.5046 9.4824,26.6596 9.7234,28.3956 C9.9544,30.0536 10.1354,31.3636 9.8944,32.7256 C9.6054,34.3616 8.5774,34.5376 8.1484,34.5376 C6.9264,34.5376 6.4814,33.4566 5.9174,32.0886 C5.7134,31.5966 5.3124,30.6216 5.0454,30.2526 C3.4654,29.7856 2.3904,28.0116 1.8444,24.9696 C0.1114,16.1846 0.9514,14.9216 1.3094,14.3816 C1.9264,13.4536 3.1574,12.6416 4.9744,11.9586 C4.9314,10.8616 5.1174,9.2926 6.1584,7.7746 C7.8684,5.2796 11.2074,3.8346 16.0814,3.4816 C25.8584,2.7736 28.2204,0.9006 28.2434,0.8816 C28.6214,0.5026 29.1444,0.3796 29.6634,0.5176 C30.1794,0.6546 30.5574,1.0816 30.6984,1.5976 C30.8284,2.0756 30.8864,2.7386 30.7634,3.4596 C31.4914,3.0346 32.0214,2.4316 32.0214,1.5776 C32.0214,1.0116 32.3394,0.4936 32.8444,0.2396 C33.3494,-0.0164 33.9564,0.0346 34.4114,0.3706 C34.6084,0.5156 39.2324,3.9736 39.7074,8.5646 C39.8724,10.1566 39.5344,11.6686 38.7024,13.0816 C39.3164,13.4856 39.7734,13.9166 40.0834,14.3826 C41.1104,15.9256 40.6864,20.6216 40.1444,24.3126 C40.0904,25.7476 39.8894,29.5226 37.4654,30.2516 C37.1984,30.6206 36.7964,31.5956 36.5924,32.0886 C36.0284,33.4566 35.5834,34.5376 34.3614,34.5376" id="Fill-7"></path>
            </g>
            <g id="Group-12" transform="translate(0.000000, 55.000000)" sketch:type="MSShapeGroup">
                <path d="M21.5205,3.5468 C11.6255,4.7258 3.9995,13.2228 3.9995,23.2708 L3.9995,30.4878 C3.9995,32.4248 5.5765,33.9998 7.5125,33.9998 L72.6035,33.9998 C74.5405,33.9998 76.1165,32.4248 76.1165,30.4878 L76.1165,23.2708 C76.1165,13.3138 68.5725,4.8258 58.7815,3.5648 L45.6855,24.1488 C45.3305,24.7078 44.6505,24.9648 44.0105,24.7858 C43.3725,24.6058 42.9295,24.0268 42.9195,23.3638 C42.7905,14.2858 41.5195,11.6588 41.5065,11.6338 C41.2905,11.2068 41.2765,10.6708 41.4955,10.2448 L44.2075,4.9448 L36.1045,4.9448 L38.8185,10.2448 C39.0485,10.6948 39.0375,11.2288 38.7895,11.6678 C38.7905,11.6678 37.5235,14.2988 37.3935,23.3638 C37.3835,24.0268 36.9405,24.6058 36.3025,24.7858 C35.6635,24.9648 34.9845,24.7078 34.6275,24.1488 L21.5205,3.5468 Z M72.6035,36.9998 L7.5125,36.9998 C3.9215,36.9998 0.9995,34.0788 0.9995,30.4878 L0.9995,23.2708 C0.9995,11.3628 10.3035,1.3488 22.1815,0.4698 C22.7415,0.4258 23.2615,0.6948 23.5575,1.1598 L34.5925,18.5038 C34.8965,14.3138 35.4645,12.0738 35.8355,11.0028 L32.3165,4.1278 C32.0785,3.6628 32.0985,3.1078 32.3725,2.6618 C32.6445,2.2158 33.1285,1.9448 33.6515,1.9448 L46.6615,1.9448 C47.1835,1.9448 47.6675,2.2158 47.9405,2.6618 C48.2125,3.1078 48.2345,3.6628 47.9965,4.1278 L44.4775,11.0028 C44.8485,12.0738 45.4165,14.3138 45.7205,18.5038 L56.7495,1.1698 C57.0475,0.6998 57.5775,0.4418 58.1385,0.4808 C69.9015,1.4538 79.1165,11.4648 79.1165,23.2708 L79.1165,30.4878 C79.1165,34.0778 76.1945,36.9998 72.6035,36.9998 L72.6035,36.9998 Z" id="Fill-10"></path>
            </g>
        </g>
    </g>
</svg>