<?xml version="1.0" encoding="UTF-8" standalone="no"?>
<svg width="484px" height="338px" viewBox="0 0 484 338" version="1.1" xmlns="http://www.w3.org/2000/svg" xmlns:xlink="http://www.w3.org/1999/xlink" xmlns:sketch="http://www.bohemiancoding.com/sketch/ns">
    <!-- Generator: Sketch 3.3.3 (12081) - http://www.bohemiancoding.com/sketch -->
    <title>comments</title>
    <desc>Created with Sketch.</desc>
    <defs></defs>
    <g id="Page-1" stroke="none" stroke-width="1" fill="none" fill-rule="evenodd" sketch:type="MSPage">
        <g id="comments" sketch:type="MSLayerGroup" transform="translate(0.000000, -1.000000)" fill="#000000">
            <g id="Page-1" sketch:type="MSShapeGroup">
                <path d="M191.818108,262.728211 C191.818108,265.877911 194.366878,268.426681 197.516578,268.426681 C232.889438,268.426681 264.2312,262.186581 290.165305,250.626695 C308.413269,262.576676 332.837528,269.188495 361.533014,269.188495 C363.489274,269.188495 365.072301,267.605469 365.072301,265.649208 C365.072301,263.696165 363.489274,262.113139 361.533014,262.113139 C335.827435,262.113139 314.071896,256.862432 297.476843,247.154594 C336.055549,227.664039 361.319458,195.599369 368.139138,154.389931 C370.515408,140.019395 369.452042,124.98767 365.233391,110.240236 C373.037353,110.015543 380.650447,110.334471 388.002047,111.172541 C416.735112,114.44806 441.473684,125.653808 458.001105,143.328235 C471.891197,158.186805 478.487141,175.928285 476.566274,193.293313 C471.955548,235.12125 422.698327,252.814467 422.202827,252.988213 C420.764589,253.490149 419.808982,254.860818 419.831505,256.379494 L420.462141,300.247346 L386.169669,263.561029 C384.834392,262.132444 382.591771,262.055223 381.166404,263.3905 C379.737819,264.725776 379.660598,266.965179 380.995875,268.393764 L421.54645,311.772552 C422.228567,312.506149 423.171305,312.895471 424.133347,312.895471 C426.813552,312.094305 427.691939,310.768681 427.669416,309.307921 L426.945471,258.757251 C437.589072,254.477932 479.06308,235.266039 483.606237,194.068739 C485.75555,174.621966 478.496794,154.882398 463.168464,138.492282 C440.65013,114.409462 404.115055,101.551535 362.984322,103.234975 C358.262197,89.9829667 350.989375,77.0873374 341.37705,65.2503155 C310.045824,26.6664916 258.386601,3.93995621 195.900285,1.2616752 C129.383596,-1.62900334 70.2645576,19.0823457 33.8772349,57.997717 C9.19767839,84.3868146 -2.48936601,116.168737 0.971159546,147.479241 C8.28592315,213.809434 75.0616334,244.741767 92.1984876,251.631736 L91.0328914,333.021432 C90.9966284,335.373346 92.4108851,337.507682 94.5970255,338.388355 C95.2912028,338.662917 96.0112822,338.797608 96.7261812,338.797608 C98.275129,338.797608 99.7929942,338.170777 100.891245,336.989639 L166.180172,267.147116 C168.33005,264.847006 168.20572,261.241429 165.90561,259.091551 C163.61068,256.941674 159.999922,257.066004 157.850045,259.366114 L102.637049,318.433348 L103.652413,247.8034 C103.688676,245.358238 102.150089,243.151376 99.8344377,242.343229 C99.0366518,242.063486 19.7294875,213.576315 12.3059349,146.230758 C9.21321967,118.271991 19.833096,89.7071136 42.1970015,65.7838995 C76.3101165,29.3033292 132.149944,9.93889124 195.413325,12.6482548 C254.589348,15.1866643 303.285366,36.4212365 332.53406,72.4355684 C340.609239,82.3794358 346.868935,93.1080985 351.160191,104.117387 C350.564324,104.182925 352.770152,106.307961 352.178019,106.379674 C353.014269,108.642072 352.90678,106.374225 353.56962,108.687376 C354.214416,108.615182 352.920137,111.04701 353.569616,110.982393 C357.914498,124.885114 359.123906,139.064234 356.89761,152.530158 C350.291974,192.435656 325.558531,222.533645 287.087374,239.945952 C284.932053,241.604088 285.635799,240.515904 283.407847,241.539205 C284.251306,242.35983 279.19079,242.12976 280.076106,242.918389 C265.297232,248.777078 248.686956,252.888567 230.465205,255.108671 C218.660343,257.233648 206.35499,258.401156 193.705083,258.494859 C192.54624,259.536975 191.818108,261.047496 191.818108,262.728211 Z" id="Fill-1-Copy"></path>
            </g>
        </g>
    </g>
</svg>