<?xml version="1.0" encoding="UTF-8" standalone="no"?>
<svg width="32px" height="26px" viewBox="0 0 32 26" version="1.1" xmlns="http://www.w3.org/2000/svg" xmlns:xlink="http://www.w3.org/1999/xlink" xmlns:sketch="http://www.bohemiancoding.com/sketch/ns">
    <!-- Generator: Sketch 3.3.2 (12043) - http://www.bohemiancoding.com/sketch -->
    <title>Vector Smart Object</title>
    <desc>Created with Sketch.</desc>
    <defs></defs>
    <g id="Page-1" stroke="none" stroke-width="1" fill="none" fill-rule="evenodd" sketch:type="MSPage">
        <g id="Vector-Smart-Object" sketch:type="MSLayerGroup" transform="translate(0.000000, -1.000000)" fill="#404040">
            <path d="M32.001,4.0723 C30.824,4.5933 29.558,4.9473 28.23,5.1063 C29.585,4.2933 30.626,3.0083 31.117,1.4743 C29.848,2.2263 28.443,2.7733 26.948,3.0673 C25.75,1.7913 24.044,0.9943 22.156,0.9943 C18.53,0.9943 15.591,3.9333 15.591,7.5593 C15.591,8.0743 15.649,8.5753 15.761,9.0543 C10.305,8.7813 5.467,6.1673 2.23,2.1953 C1.664,3.1653 1.34,4.2923 1.34,5.4963 C1.34,7.7743 2.499,9.7833 4.261,10.9613 C3.185,10.9263 2.173,10.6333 1.287,10.1403 C1.286,10.1673 1.286,10.1953 1.286,10.2223 C1.286,13.4043 3.549,16.0563 6.552,16.6613 C6.001,16.8113 5.421,16.8903 4.822,16.8903 C4.399,16.8903 3.988,16.8493 3.587,16.7733 C4.423,19.3813 6.847,21.2793 9.72,21.3323 C7.473,23.0933 4.642,24.1423 1.565,24.1423 C1.036,24.1423 0.514,24.1113 0,24.0513 C2.905,25.9133 6.356,27.0003 10.063,27.0003 C22.14,27.0003 28.743,16.9963 28.743,8.3203 C28.743,8.0353 28.737,7.7523 28.725,7.4703 C30.008,6.5443 31.121,5.3873 32.001,4.0723" id="Fill-1" sketch:type="MSShapeGroup"></path>
        </g>
    </g>
</svg>