<?xml version="1.0" encoding="UTF-8" standalone="no"?>
<svg width="28px" height="33px" viewBox="0 0 28 33" version="1.1" xmlns="http://www.w3.org/2000/svg" xmlns:xlink="http://www.w3.org/1999/xlink" xmlns:sketch="http://www.bohemiancoding.com/sketch/ns">
    <!-- Generator: Sketch 3.3.3 (12081) - http://www.bohemiancoding.com/sketch -->
    <title>Shape</title>
    <desc>Created with Sketch.</desc>
    <defs></defs>
    <g id="Page-1" stroke="none" stroke-width="1" fill="none" fill-rule="evenodd" sketch:type="MSPage">
        <path d="M16.4368336,25.0310949 L9.18159748,20.2492347 C8.48094205,20.9128058 7.59991381,21.3931213 6.6,21.6 C3.7,22.2 0.8,20.4 0.1,17.4 C-0.5,14.4 1.3,11.5 4.3,10.9 C6.20485112,10.5190298 8.06938604,11.1056483 9.3304315,12.3526701 L16.4954887,7.63024611 C16.0527504,6.60736954 15.9234087,5.44587837 16.2,4.3 C16.8,1.4 19.7,-0.5 22.7,0.1 C25.7,0.7 27.6,3.7 26.9,6.6 C26.3,9.6 23.3,11.5 20.4,10.8 C19.2959048,10.579181 18.3408016,10.0332882 17.609464,9.28694417 L17.609464,9.28694417 L10.4574043,14.0008017 L10.4574043,14.0008017 C10.606773,14.3454848 10.7225489,14.7127446 10.8,15.1 C11.049633,16.3481649 10.8665116,17.5790196 10.3586657,18.6341206 L17.5490473,23.3732357 C18.2664639,22.6463326 19.2030055,22.1193989 20.3,21.9 C23.3,21.3 26.2,23.1 26.8,26.1 C27.4,29.1 25.5,32 22.6,32.6 C19.7,33.2 16.8,31.4 16.1,28.4 C15.8632871,27.2164357 16.0001275,26.0484362 16.4368336,25.0310949 Z" id="Shape" fill="#9D9D9C" sketch:type="MSShapeGroup"></path>
    </g>
</svg>