<?xml version="1.0" encoding="UTF-8" standalone="no"?>
<svg width="79px" height="85px" viewBox="0 0 79 85" version="1.1" xmlns="http://www.w3.org/2000/svg" xmlns:xlink="http://www.w3.org/1999/xlink" xmlns:sketch="http://www.bohemiancoding.com/sketch/ns">
    <!-- Generator: Sketch 3.3.2 (12043) - http://www.bohemiancoding.com/sketch -->
    <title>Vector Smart Object</title>
    <desc>Created with Sketch.</desc>
    <defs></defs>
    <g id="Page-1" stroke="none" stroke-width="1" fill="none" fill-rule="evenodd" sketch:type="MSPage">
        <g id="Vector-Smart-Object" sketch:type="MSLayerGroup" transform="translate(-1.000000, 0.000000)">
            <g id="Group-3" transform="translate(0.000000, 48.000000)" fill="#1D1D1B" sketch:type="MSShapeGroup">
                <path d="M22.4726,3.4595 C12.0576,4.1845 3.9996,12.7545 3.9996,23.2705 L3.9996,30.4875 C3.9996,32.4245 5.5766,33.9995 7.5126,33.9995 L72.6036,33.9995 C74.5396,33.9995 76.1166,32.4245 76.1166,30.4875 L76.1166,23.2705 C76.1166,12.8525 68.1386,4.2915 57.8266,3.4755 L42.5956,21.1335 C42.3106,21.4645 41.8966,21.6545 41.4596,21.6545 L38.8536,21.6545 C38.4166,21.6545 38.0026,21.4645 37.7176,21.1335 L22.4726,3.4595 Z M72.6036,36.9995 L7.5126,36.9995 C3.9216,36.9995 0.9996,34.0785 0.9996,30.4875 L0.9996,23.2705 C0.9996,10.8935 10.6976,0.8575 23.0766,0.4245 C23.5226,0.4095 23.9686,0.5995 24.2646,0.9435 L39.5406,18.6545 L40.7726,18.6545 L56.0396,0.9535 C56.3396,0.6055 56.7866,0.4185 57.2416,0.4345 C69.5076,0.9725 79.1166,11.0025 79.1166,23.2705 L79.1166,30.4875 C79.1166,34.0785 76.1946,36.9995 72.6036,36.9995 L72.6036,36.9995 Z" id="Fill-1"></path>
            </g>
            <path d="M58.4103,25.1473 C58.4743,25.3803 58.5153,25.6313 58.5333,25.8983 C58.5153,25.6313 58.4743,25.3803 58.4103,25.1473" id="Fill-4" fill="#572626" sketch:type="MSShapeGroup"></path>
            <path d="M21.7825,25.8979 C21.8005,25.6309 21.8415,25.3799 21.9055,25.1469 C21.8415,25.3799 21.8005,25.6309 21.7825,25.8979" id="Fill-6" fill="#572626" sketch:type="MSShapeGroup"></path>
            <path d="M60.9066,28.3472 C61.4966,26.0962 61.1866,24.0352 60.0356,22.5422 C59.3866,21.7012 54.9656,22.6362 54.9806,23.4482 C55.3196,23.3412 55.6686,23.2692 56.0316,23.2692 C57.2266,23.2692 58.0926,23.9832 58.4106,25.1472 C58.4736,25.3802 58.5156,25.6312 58.5326,25.8982 C58.5506,26.1642 58.5446,26.4472 58.5136,26.7432 C58.4816,27.0402 58.4246,27.3502 58.3406,27.6722 C56.5956,34.3092 55.9776,34.6542 53.4976,34.6542 C53.4766,34.6542 53.4646,34.6442 53.4436,34.6442 C53.0436,35.8602 52.5806,37.0072 52.0706,38.0812 C51.5606,39.1562 51.0036,40.1592 50.4166,41.0892 C49.8296,42.0192 49.2116,42.8752 48.5806,43.6582 C45.4256,47.5692 41.9266,49.6152 40.1576,49.6152 C38.5676,49.6152 35.5756,47.9582 32.6936,44.7752 C32.3726,44.4212 32.0546,44.0482 31.7386,43.6572 C29.8456,41.3112 28.0756,38.2932 26.8766,34.6432 C26.8536,34.6442 26.8406,34.6542 26.8176,34.6542 C24.3376,34.6542 23.7196,34.3092 21.9756,27.6722 C21.8906,27.3502 21.8336,27.0402 21.8026,26.7432 C21.7706,26.4472 21.7646,26.1642 21.7826,25.8982 C21.8006,25.6312 21.8416,25.3802 21.9056,25.1472 C22.0226,24.7172 22.2216,24.3572 22.4776,24.0632 C22.2466,23.9672 22.0076,23.8852 21.7816,23.7802 C21.1926,23.5042 21.4366,22.1062 20.8876,21.7632 C18.7586,23.6622 18.8566,26.2402 19.4086,28.3452 C20.7696,33.5252 21.6836,36.4022 24.9506,37.1252 C26.2846,40.5342 28.1136,43.4492 30.0946,45.7932 C33.5906,49.9302 37.5646,52.2692 40.1576,52.2692 C42.7576,52.2692 46.7446,49.9202 50.2476,45.7662 C52.2206,43.4262 54.0416,40.5202 55.3706,37.1242 C58.6326,36.3992 59.5456,33.5222 60.9066,28.3472" id="Fill-8" fill="#1D1D1B" sketch:type="MSShapeGroup"></path>
            <g id="Group-12" transform="translate(19.000000, 0.000000)" fill="#1D1D1B" sketch:type="MSShapeGroup">
                <path d="M3.6728,11.7408 C3.4628,12.5158 3.7158,15.6078 4.6148,20.1688 C4.8018,21.2058 5.0558,22.0398 5.3548,22.6078 C5.5488,22.9748 5.7068,23.1178 5.7518,23.1408 C6.0048,23.1858 6.2268,23.2798 6.4198,23.4068 C6.2598,22.1618 6.1008,20.6658 6.0308,18.7698 C6.0088,18.1678 5.9938,17.5368 5.9938,16.8518 C5.9938,16.7528 6.0038,16.6548 6.0238,16.5578 C6.4028,14.6548 6.9628,13.1858 7.7348,12.0698 C7.8708,11.8708 8.0068,11.7058 8.1448,11.5418 L8.2418,11.4238 C9.4218,9.9848 10.7788,9.2558 12.2758,9.2558 C13.9608,9.2558 15.4808,10.1698 16.9488,11.0538 C18.3078,11.8708 19.7108,12.7158 21.0768,12.7158 C22.4438,12.7158 23.8478,11.8708 25.2058,11.0528 C26.6758,10.1688 28.1948,9.2538 29.8798,9.2538 C31.0958,9.2538 32.2198,9.7328 33.2228,10.6778 C33.6818,11.1078 34.0628,11.5508 34.4198,12.0698 C35.1908,13.1848 35.7498,14.6528 36.1318,16.5568 C36.1518,16.6548 36.1608,16.7538 36.1608,16.8528 C36.1598,17.8758 36.1308,18.8628 36.0708,19.8698 C36.0018,21.0578 35.8978,22.0788 35.7888,22.9698 C35.9558,22.8938 36.1168,22.8358 36.2668,22.7958 C36.4338,22.6458 36.7288,22.2448 36.8588,21.9168 C36.9808,21.6048 36.9788,21.4938 36.9678,20.9538 C36.9618,20.6578 36.9558,20.3048 36.9728,19.8438 C36.9758,19.7578 36.9858,19.6728 37.0028,19.5908 C37.5178,16.0588 37.6878,12.4758 37.3718,11.7368 C37.3658,11.7368 36.9978,11.2448 35.3978,10.6048 C35.0598,10.4708 34.7818,10.2168 34.6168,9.8928 C30.9818,2.7518 21.2508,3.7108 21.2318,3.7118 C21.1298,3.7218 21.0238,3.7218 20.9198,3.7108 C20.9178,3.7108 20.4618,3.6648 19.7228,3.6648 C17.1108,3.6648 10.7188,4.2318 7.7528,9.4768 C7.5638,9.8118 7.2518,10.0608 6.8838,10.1738 C5.1018,10.7158 3.9938,11.3508 3.6728,11.7408 M7.7768,30.6878 L7.7758,30.6878 C6.2608,30.6878 5.6578,29.0618 4.8458,26.3858 C4.7838,26.1838 4.7318,26.0428 4.6908,25.9478 C3.8948,25.6528 3.2278,25.0028 2.7018,24.0088 C2.2538,23.1588 1.9048,22.0548 1.6668,20.7238 C-0.0672,11.9358 0.7738,10.6748 1.1328,10.1358 C1.8198,9.1008 3.2718,8.2098 5.4498,7.4818 C9.2938,1.3428 16.6688,0.6648 19.7228,0.6648 C20.3738,0.6648 20.8458,0.6948 21.0768,0.7138 C21.3088,0.6948 21.7768,0.6658 22.4228,0.6658 C25.6108,0.6658 33.2988,1.3958 37.0258,8.0348 C38.4368,8.6578 39.3818,9.3488 39.9058,10.1378 C40.9318,11.6778 40.5088,16.3648 39.9678,20.0538 C39.9578,20.3968 39.9628,20.6678 39.9678,20.8978 C39.9808,21.5668 39.9908,22.1448 39.6508,23.0138 C39.3908,23.6748 38.4078,25.4428 36.9948,25.7038 C36.9638,25.7198 36.8368,25.8108 36.8118,25.8608 C36.6488,26.3978 36.5008,26.9968 36.3658,27.5438 C35.9148,29.3778 35.6158,30.5898 34.2388,30.5898 C32.8098,30.5898 32.5388,29.0568 32.4368,28.4788 C32.1958,27.1168 32.3778,25.8038 32.6088,24.1408 C32.7688,22.9808 32.9688,21.5378 33.0768,19.6938 C33.1298,18.7938 33.1568,17.9118 33.1608,17.0018 C32.8668,15.5968 32.4598,14.5118 31.9508,13.7738 C31.7168,13.4348 31.4688,13.1458 31.1668,12.8628 C30.5938,12.3228 30.1788,12.2538 29.8798,12.2538 C29.0278,12.2538 27.9228,12.9188 26.7528,13.6228 C25.1228,14.6038 23.2768,15.7158 21.0768,15.7158 C18.8778,15.7158 17.0318,14.6048 15.4028,13.6248 C14.2328,12.9208 13.1278,12.2558 12.2758,12.2558 C11.9168,12.2558 11.3488,12.3668 10.5638,13.3248 L10.4438,13.4688 C10.3638,13.5628 10.2838,13.6568 10.2038,13.7718 C9.6938,14.5118 9.2868,15.5978 8.9938,17.0018 C8.9958,17.5908 9.0098,18.1368 9.0288,18.6608 C9.1148,21.0238 9.3548,22.7518 9.5468,24.1408 C9.7768,25.8038 9.9578,27.1168 9.7178,28.4788 C9.4578,29.9448 8.8058,30.6878 7.7768,30.6878" id="Fill-10"></path>
            </g>
        </g>
    </g>
</svg>