<?xml version="1.0" encoding="UTF-8" standalone="no"?>
<svg width="94px" height="66px" viewBox="0 0 94 66" version="1.1" xmlns="http://www.w3.org/2000/svg" xmlns:xlink="http://www.w3.org/1999/xlink" xmlns:sketch="http://www.bohemiancoding.com/sketch/ns">
    <!-- Generator: Sketch 3.3.3 (12081) - http://www.bohemiancoding.com/sketch -->
    <title>Fill 1 Copy</title>
    <desc>Created with Sketch.</desc>
    <defs></defs>
    <g id="Page-1" stroke="none" stroke-width="1" fill="none" fill-rule="evenodd" sketch:type="MSPage">
        <path d="M37.8192509,49.998818 C37.5955545,50.199982 37.455,50.4915644 37.455,50.816 C37.455,51.424 37.947,51.916 38.555,51.916 C45.3831739,51.916 51.4332078,50.7114468 56.4393786,48.4799928 C59.961861,50.7867486 64.6765798,52.0630561 70.2157917,52.0630561 C70.593417,52.0630561 70.8989954,51.7574778 70.8989954,51.3798525 C70.8989954,51.0028483 70.593417,50.69727 70.2157917,50.69727 C65.2537342,50.69727 61.0541698,49.6837037 57.8507559,47.8097583 C65.297768,44.0474133 70.1745682,37.8578334 71.491,29.903 C71.9497015,27.1289941 71.7444355,24.2273562 70.9300913,21.3805962 C78.3242764,21.1677013 84.8307995,23.4830131 88.8374386,27.7677136 C91.5187023,30.6359267 92.7919455,34.0606402 92.4211522,37.4126857 C91.5311242,45.4869106 82.0227928,48.9023077 81.9271443,48.9358467 C81.6495152,49.0327374 81.4650502,49.2973236 81.4693979,49.5904801 L81.5911324,58.0584786 L74.9715102,50.9767623 C74.7137561,50.7009965 74.2808534,50.6860903 74.0057087,50.9438444 C73.7299428,51.2015985 73.7150366,51.63388 73.9727907,51.9096459 L81.8004411,60.2832381 C81.9321131,60.4248476 82.1140937,60.5 82.2998009,60.5 C82.3855119,60.5 82.471844,60.4838516 82.5550706,60.4509336 C82.8171723,60.3453475 82.9867311,60.0894567 82.9823834,59.8074799 L82.8426372,50.0494687 C84.8972169,49.2234134 92.9031214,45.5148598 93.7801064,37.5623694 C94.1949973,33.808476 92.7938088,29.9980629 89.8349159,26.834209 C85.4881059,22.1853996 78.4355846,19.7033791 70.4959439,20.0283408 C69.5844119,17.4702491 68.1805081,14.9809508 66.325,12.696 C60.277,5.248 50.305,0.861 38.243,0.344 C25.403,-0.214 13.991,3.784 6.967,11.296 C2.203,16.39 -0.053,22.525 0.615,28.569 C2.027,41.373 14.917,47.344 18.225,48.674 L18,64.385 C17.993,64.839 18.266,65.251 18.688,65.421 C18.822,65.474 18.961,65.5 19.099,65.5 C19.398,65.5 19.691,65.379 19.903,65.151 L32.506,51.669 C32.921,51.225 32.897,50.529 32.453,50.114 C32.01,49.699 31.313,49.723 30.898,50.167 L20.24,61.569 L20.436,47.935 C20.443,47.463 20.146,47.037 19.699,46.881 C19.545,46.827 4.236,41.328 2.803,28.328 C2.206,22.931 4.256,17.417 8.573,12.799 C15.158,5.757 25.937,2.019 38.149,2.542 C49.572,3.032 58.972,7.131 64.618,14.083 C66.1767862,16.0025071 67.3851221,18.0735066 68.2134815,20.1986765 L68.2134815,20.1986765 C68.0984588,20.2113276 67.983794,20.2245758 67.8694919,20.238419 C68.0309168,20.6751392 68.1758697,21.1169556 68.3038206,21.563473 C68.4282883,21.5495372 68.5532113,21.5363312 68.6785831,21.5238579 L68.6785831,21.5238579 C69.5172941,24.2075593 69.7507513,26.9446154 69.321,29.544 C68.0458859,37.2471284 63.2714839,43.0570715 55.8452325,46.4182434 C55.644713,46.2536214 55.4497931,46.0845888 55.260564,45.9112055 C54.8445118,46.123483 54.4212866,46.3285098 53.9912155,46.5260419 C54.1540321,46.6844506 54.3209213,46.8397931 54.4918176,46.9920255 C51.6389886,48.1229532 48.4326361,48.9166116 44.9152139,49.3451676 C42.636471,49.755361 40.2611162,49.9807301 37.8192509,49.998818 Z" id="Fill-1-Copy" fill="#000000" sketch:type="MSShapeGroup"></path>
    </g>
</svg>