<?xml version="1.0" encoding="UTF-8" standalone="no"?>
<svg width="619px" height="686px" viewBox="0 0 619 686" version="1.1" xmlns="http://www.w3.org/2000/svg" xmlns:xlink="http://www.w3.org/1999/xlink" xmlns:sketch="http://www.bohemiancoding.com/sketch/ns">
    <!-- Generator: Sketch 3.3.3 (12081) - http://www.bohemiancoding.com/sketch -->
    <title>Fill-1</title>
    <desc>Created with Sketch.</desc>
    <defs></defs>
    <g id="Page-1" stroke="none" stroke-width="1" fill="none" fill-rule="evenodd" sketch:type="MSPage">
        <path d="M170.53354,421.145707 C88.25504,426.870707 24.59684,494.544155 24.59684,577.584293 L24.59684,634.581603 C24.59684,649.869328 37.05514,662.306397 52.34954,662.306397 L566.56844,662.306397 C581.86284,662.306397 594.32114,649.861431 594.32114,634.573707 L594.32114,577.584293 C594.32114,495.318017 531.29494,427.715638 449.83014,421.272052 L329.50524,560.709362 C327.25374,563.315224 323.98314,564.823466 320.53084,564.823466 L299.94344,564.823466 C296.49114,564.823466 293.22054,563.323121 290.96904,560.709362 L170.53354,421.145707 L170.53354,421.145707 Z M566.56844,685.996052 L52.34954,685.996052 C23.98064,685.996052 0.89684,662.938121 0.89684,634.581603 L0.89684,577.584293 C0.89684,479.848672 77.51104,400.598879 175.30514,397.179672 C178.82854,397.100707 182.35194,398.561569 184.69034,401.277983 L305.37074,541.13381 L315.10354,541.13381 L435.71284,401.356948 C438.08284,398.608948 441.61414,397.108603 445.20864,397.258638 C542.11004,401.506983 618.02114,480.709397 618.02114,577.584293 L618.02114,634.56581 C618.02114,662.930224 594.93734,685.996052 566.56844,685.996052 Z M309.40132,24.4055759 C208.90542,24.4055759 164.53902,80.5184724 145.01812,127.589817 C113.18112,204.391679 128.76782,301.171817 163.97812,336.398334 C174.91962,347.350852 190.78282,354.378783 206.45642,358.887714 C201.73222,348.464266 197.84542,337.180093 194.02182,326.093334 C192.14952,320.660507 190.26932,315.219783 188.30222,309.881714 C161.85302,301.629817 156.74962,282.188507 147.23802,245.967024 L145.18402,238.188921 C140.29392,219.853128 134.75602,199.061507 146.72452,183.544783 C151.70942,177.085403 162.13742,174.795403 169.55552,174.795403 C176.01772,174.795403 182.07702,176.264162 187.49642,179.075334 C192.62352,163.282231 200.83162,138.487059 209.83762,114.765817 C211.64672,110.01999 216.12602,107.114059 221.37162,107.137748 C226.45922,107.335162 230.85162,110.754369 232.28942,115.634438 C232.77132,117.213748 243.94982,152.092817 287.84222,172.118472 C286.88632,153.324679 285.40112,139.916334 282.07522,125.694645 C280.97712,121.004093 282.83362,116.131921 286.75202,113.344438 C290.67832,110.564852 295.89232,110.422714 299.96082,112.989093 C348.75912,143.8883 403.71152,176.856403 422.98752,185.929541 C429.74202,179.367507 439.84612,174.811197 449.24712,174.811197 C457.19452,174.811197 464.39932,177.969817 469.54222,183.694817 C477.29212,192.333645 480.16772,206.357921 478.09792,225.380714 C473.98992,263.023576 465.94772,298.976576 436.29112,309.739576 C431.97772,320.42361 423.29562,341.183645 414.29752,358.808748 C429.88422,354.299817 445.63682,347.287679 456.51512,336.398334 C491.72542,301.171817 507.31212,204.391679 475.46722,127.581921 C456.03322,80.7158862 411.96702,24.8872655 312.37172,24.3976793 C311.86612,24.4529552 311.35262,24.4845414 310.87072,24.4766448 C310.62582,24.4766448 309.64622,24.421369 309.41712,24.4055759 L309.40132,24.4055759 Z M382.119261,384.986592 C384.691089,387.276962 388.203649,388.378059 391.77462,387.844369 C416.93612,384.046128 451.49862,374.933507 473.28682,353.139024 C513.86122,312.550748 533.72182,206.215783 497.35812,118.516679 C465.86082,42.5439552 399.69042,0.708024138 311.03662,0.708024138 C310.79962,0.708024138 310.55472,0.71592069 310.32562,0.731713793 C310.03332,0.71592069 309.74892,0.708024138 309.45662,0.708024138 C220.80282,0.708024138 154.62452,42.5439552 123.13512,118.516679 C86.76352,206.215783 106.63202,312.550748 147.20642,353.139024 C168.99462,374.941403 203.58082,384.046128 228.75812,387.852266 C229.35062,387.947024 229.94312,387.986507 230.53562,387.986507 C233.458551,387.986507 236.257724,386.903154 238.406019,384.992146 C264.018148,412.286367 291.633087,427.541124 310.2482,427.541124 C328.870399,427.541124 356.498841,412.286488 382.119261,384.986592 Z M213.025575,308.594032 C211.48434,304.232031 209.907272,299.907268 208.24972,295.683714 C207.926055,294.850775 207.512532,294.067196 207.021702,293.343418 C206.439748,291.698077 205.872414,290.035752 205.3204,288.356503 C205.1466,288.356503 205.036,288.443366 204.8543,288.443366 C202.816075,288.443366 200.936722,288.413842 199.189825,288.301772 C182.787806,284.555673 180.406727,278.968637 170.15592,239.949852 L168.07822,232.092783 C167.022729,228.125562 165.92342,223.99802 165.040263,219.998886 C165.48588,210.355143 169.79516,203.239956 176.67105,200.187476 C179.165181,201.505276 181.343212,203.584612 183.18302,206.413197 C185.04742,209.263852 188.04152,211.174817 191.40692,211.664403 C194.78022,212.146093 198.19302,211.182714 200.78422,208.971679 C203.50182,206.673783 203.50182,206.673783 207.49132,194.276197 C210.65922,184.44499 216.22082,167.198921 222.84892,148.294576 C235.15712,166.1013 257.64052,188.622266 296.88772,200.861921 C300.55332,201.991128 304.54282,201.288334 307.59222,198.966748 C310.64952,196.645162 312.38752,192.989059 312.25322,189.151334 C311.67652,172.110576 311.01292,158.954921 309.70152,147.11799 C378.41572,190.051541 417.94732,211.790748 427.34832,211.798645 C432.30162,211.798645 436.67032,208.861128 438.39252,204.210059 C438.964406,203.099056 441.035987,201.339456 443.555704,200.067203 C449.586222,202.630047 453.691128,208.273361 455.020641,215.990164 C454.959177,218.065339 454.802624,220.337929 454.53222,222.814334 C453.913727,228.485327 453.234639,233.729797 452.484531,238.570787 C451.292795,243.002728 450.167438,247.04428 449.08754,250.722328 C448.34494,253.272914 447.61814,255.641879 446.91504,257.86081 C442.68854,271.14281 439.08614,278.676121 434.87544,282.940259 C429.95374,287.922983 424.20254,288.444155 415.63104,288.444155 C415.46514,288.444155 415.37034,288.36519 415.20444,288.36519 C413.47434,293.63219 411.56254,298.693879 409.54804,303.621328 C404.705154,315.793528 390.01517,341.09718 389.685191,341.665088 C385.52617,348.060715 381.213449,354.060546 376.7899,359.536021 C351.8575,390.419434 324.2233,406.583676 310.2482,406.583676 C297.6872,406.583676 274.0504,393.491193 251.2747,368.356469 C248.7467,365.568986 246.2266,362.623572 243.7302,359.536021 C232.431981,345.534254 221.688384,328.508189 213.025575,308.594032 Z" id="Fill-1" fill="#1D1D1B" sketch:type="MSShapeGroup"></path>
    </g>
</svg>