<?xml version="1.0" encoding="UTF-8" standalone="no"?>
<svg width="26px" height="26px" viewBox="0 0 26 26" version="1.1" xmlns="http://www.w3.org/2000/svg" xmlns:xlink="http://www.w3.org/1999/xlink" xmlns:sketch="http://www.bohemiancoding.com/sketch/ns">
    <!-- Generator: Sketch 3.3.2 (12043) - http://www.bohemiancoding.com/sketch -->
    <title>Shape</title>
    <desc>Created with Sketch.</desc>
    <defs></defs>
    <g id="Page-1" stroke="none" stroke-width="1" fill="none" fill-rule="evenodd" sketch:type="MSPage">
        <path d="M20.419,25.735 L20.419,17.381 C20.419,15.389 20.385,12.826 17.645,12.826 C14.867,12.826 14.443,14.997 14.443,17.238 L14.443,25.735 L9.11,25.735 L9.11,8.556 L14.228,8.556 L14.228,10.904 L14.301,10.904 C15.013,9.554 16.755,8.13 19.353,8.13 C24.759,8.13 25.758,11.687 25.758,16.313 L25.758,25.735 L20.419,25.735 L20.419,25.735 Z M3.089,6.208 C1.375,6.208 -0.008,4.822 -0.008,3.112 C-0.008,1.403 1.375,0.015 3.089,0.015 C4.797,0.015 6.184,1.403 6.184,3.112 C6.184,4.822 4.797,6.208 3.089,6.208 L3.089,6.208 Z M5.76,25.735 L0.416,25.735 L0.416,8.556 L5.76,8.556 L5.76,25.735 L5.76,25.735 Z" id="Shape" fill="#000000" sketch:type="MSShapeGroup"></path>
    </g>
</svg>