<svg xmlns="http://www.w3.org/2000/svg" xmlns:xlink="http://www.w3.org/1999/xlink" preserveAspectRatio="xMidYMid" width="15" height="14.969" viewBox="0 0 15 14.969">
  <defs>
    <style>
      .cls-1 {
        fill: #00a5dc;
        fill-rule: evenodd;
      }
    </style>
  </defs>
  <path d="M10.993,8.979 C9.994,9.978 9.994,10.977 8.995,10.977 C7.996,10.977 6.996,9.978 5.997,8.979 C4.998,7.980 3.998,6.981 3.998,5.981 C3.998,4.982 4.998,4.982 5.997,3.983 C6.996,2.983 3.998,-0.015 2.999,-0.015 C2.000,-0.015 0.001,2.983 0.001,2.983 C0.001,4.982 2.055,9.034 3.998,10.977 C5.943,12.922 9.994,14.975 11.993,14.975 C11.993,14.975 14.991,12.977 14.991,11.977 C14.991,10.977 11.993,7.980 10.993,8.979 Z" class="cls-1"/>
</svg>
