<?xml version="1.0" encoding="UTF-8" standalone="no"?>
<svg width="79px" height="87px" viewBox="0 0 79 87" version="1.1" xmlns="http://www.w3.org/2000/svg" xmlns:xlink="http://www.w3.org/1999/xlink" xmlns:sketch="http://www.bohemiancoding.com/sketch/ns">
    <!-- Generator: Sketch 3.3.2 (12043) - http://www.bohemiancoding.com/sketch -->
    <title>Vector Smart Object</title>
    <desc>Created with Sketch.</desc>
    <defs></defs>
    <g id="Page-1" stroke="none" stroke-width="1" fill="none" fill-rule="evenodd" sketch:type="MSPage">
        <g id="Vector-Smart-Object" sketch:type="MSLayerGroup" transform="translate(-1.000000, 0.000000)">
            <g id="Group-3" transform="translate(0.000000, 50.000000)" fill="#1D1D1B" sketch:type="MSShapeGroup">
                <path d="M22.4726,3.4595 C12.0576,4.1845 3.9996,12.7545 3.9996,23.2705 L3.9996,30.4885 C3.9996,32.4245 5.5766,33.9995 7.5126,33.9995 L72.6036,33.9995 C74.5396,33.9995 76.1166,32.4235 76.1166,30.4875 L76.1166,23.2705 C76.1166,12.8525 68.1386,4.2915 57.8266,3.4755 L42.5956,21.1335 C42.3106,21.4635 41.8966,21.6545 41.4596,21.6545 L38.8536,21.6545 C38.4166,21.6545 38.0026,21.4645 37.7176,21.1335 L22.4726,3.4595 Z M72.6036,36.9995 L7.5126,36.9995 C3.9216,36.9995 0.9996,34.0795 0.9996,30.4885 L0.9996,23.2705 C0.9996,10.8935 10.6976,0.8575 23.0766,0.4245 C23.5226,0.4145 23.9686,0.5995 24.2646,0.9435 L39.5406,18.6545 L40.7726,18.6545 L56.0396,0.9535 C56.3396,0.6055 56.7866,0.4155 57.2416,0.4345 C69.5076,0.9725 79.1166,11.0025 79.1166,23.2705 L79.1166,30.4865 C79.1166,34.0785 76.1946,36.9995 72.6036,36.9995 L72.6036,36.9995 Z" id="Fill-1"></path>
            </g>
            <path id="Fill-4" fill="#572626" sketch:type="MSShapeGroup"></path>
            <path d="M51.4281,5.6659 C51.4761,5.7039 51.5281,5.7379 51.5751,5.7759 C51.5261,5.7399 51.4781,5.7009 51.4281,5.6659" id="Fill-6" fill="#572626" sketch:type="MSShapeGroup"></path>
            <path d="M51.9893,6.1212 C52.1103,6.2242 52.2243,6.3362 52.3423,6.4422 C52.2273,6.3262 52.1073,6.2252 51.9893,6.1212" id="Fill-8" fill="#572626" sketch:type="MSShapeGroup"></path>
            <path d="M54.9806,25.4485 C55.3196,25.3415 55.6686,25.2685 56.0316,25.2685 C57.9426,25.2685 59.0156,27.0965 58.3396,29.6725 C58.1216,30.5015 57.9216,31.2335 57.7326,31.8775 C57.6386,32.2005 57.5466,32.5005 57.4576,32.7815 C56.9226,34.4635 56.4666,35.4175 55.9336,35.9575 C55.3106,36.5885 54.5826,36.6545 53.4976,36.6545 C53.4766,36.6545 53.4646,36.6445 53.4436,36.6445 C53.2246,37.3115 52.9826,37.9525 52.7276,38.5765 C52.1076,40.1355 50.2126,43.3955 50.2126,43.3955 L53.1646,43.9385 L54.2126,38.6935 L55.3256,39.2295 C55.3396,39.1935 55.3566,39.1605 55.3706,39.1245 C58.6326,38.3995 59.5456,35.5225 60.9066,30.3475 C61.4966,28.0955 61.1866,26.0355 60.0346,24.5425 C59.6016,23.9805 59.0666,23.5445 58.4676,23.2225 L58.4676,23.8715 C58.4676,23.8715 55.5986,23.7805 54.9806,25.4485" id="Fill-10" fill="#1D1D1B" sketch:type="MSShapeGroup"></path>
            <path d="M50.267,43.3114 C49.724,44.1524 49.16,44.9404 48.581,45.6574 C45.425,49.5684 41.927,51.6154 40.158,51.6154 C38.568,51.6154 35.576,49.9574 32.693,46.7744 C32.373,46.4214 32.054,46.0484 31.738,45.6574 C29.845,43.3104 28.075,40.2924 26.876,36.6434 C26.854,36.6434 26.84,36.6544 26.817,36.6544 C25.733,36.6544 25.004,36.5884 24.382,35.9584 C23.848,35.4184 23.393,34.4634 22.857,32.7814 C22.768,32.5004 22.677,32.2004 22.583,31.8774 C22.394,31.2334 22.193,30.5024 21.975,29.6724 C21.3,27.0964 22.373,25.2694 24.283,25.2694 C24.645,25.2694 24.993,25.3404 25.331,25.4474 C23.746,23.0154 21.648,25.4504 21.648,23.4154 L21.648,23.3364 C21.131,23.6474 20.665,24.0434 20.28,24.5424 C19.128,26.0354 18.819,28.0954 19.408,30.3454 C20.77,35.5254 21.684,38.4024 24.95,39.1254 C26.278,42.5184 28.097,45.4224 30.068,47.7604 C33.571,51.9174 37.558,54.2694 40.158,54.2694 C42.759,54.2694 46.748,51.9174 50.252,47.7594 C52.046,45.6314 53.705,43.0254 54.991,40.0154 C53.815,41.8744 52.024,42.8244 50.267,43.3114" id="Fill-12" fill="#1D1D1B" sketch:type="MSShapeGroup"></path>
            <path d="M40.0508,3.2173 C27.3298,3.2173 21.7138,10.3233 19.2428,16.2843 C15.2128,26.0103 17.1858,38.2663 21.6428,42.7273 C23.0278,44.1143 25.0358,45.0043 27.0198,45.5753 C26.4218,44.2553 25.9298,42.8263 25.4458,41.4223 C25.2088,40.7343 24.9708,40.0453 24.7218,39.3693 C21.3738,38.3243 20.7278,35.8623 19.5238,31.2753 L19.2638,30.2903 C18.6448,27.9683 17.9438,25.3353 19.4588,23.3703 C20.0898,22.5523 21.4098,22.2623 22.3488,22.2623 C23.1668,22.2623 23.9338,22.4483 24.6198,22.8043 C25.2688,20.8043 26.3078,17.6643 27.4478,14.6603 C27.6768,14.0593 28.2438,13.6913 28.9078,13.6943 C29.5518,13.7193 30.1078,14.1523 30.2898,14.7703 C30.3508,14.9703 31.7658,19.3873 37.3218,21.9233 C37.2008,19.5433 37.0128,17.8453 36.5918,16.0443 C36.4528,15.4503 36.6878,14.8333 37.1838,14.4803 C37.6808,14.1283 38.3408,14.1103 38.8558,14.4353 C45.0328,18.3483 51.9888,22.5233 54.4288,23.6723 C55.2838,22.8413 56.5628,22.2643 57.7528,22.2643 C58.7588,22.2643 59.6708,22.6643 60.3218,23.3893 C61.3028,24.4833 61.6668,26.2593 61.4048,28.6683 C60.8848,33.4353 59.8668,37.9883 56.1128,39.3513 C55.5668,40.7043 54.4678,43.3333 53.3288,45.5653 C55.3018,44.9943 57.2958,44.1063 58.6728,42.7273 C63.1298,38.2663 65.1028,26.0103 61.0718,16.2833 C58.6118,10.3483 53.0338,3.2783 40.4268,3.2163 C40.3628,3.2233 40.2978,3.2273 40.2368,3.2263 C40.2058,3.2263 40.0818,3.2193 40.0528,3.2173 L40.0508,3.2173 Z M30.0678,49.2603 C29.9928,49.2603 29.9178,49.2553 29.8428,49.2433 C26.6558,48.7613 22.2778,47.6083 19.5198,44.8473 C14.3838,39.7073 11.8688,26.2413 16.4728,15.1353 C20.4588,5.5143 28.8358,0.2163 40.0578,0.2163 C40.0948,0.2163 40.1308,0.2173 40.1678,0.2193 C40.1968,0.2173 40.2278,0.2163 40.2578,0.2163 C51.4798,0.2163 59.8558,5.5143 63.8428,15.1353 C68.4458,26.2413 65.9318,39.7073 60.7958,44.8473 C58.0378,47.6073 53.6628,48.7613 50.4778,49.2423 C49.8558,49.3353 49.2478,49.0363 48.9448,48.4923 C48.6388,47.9473 48.7028,47.2703 49.1068,46.7933 C50.3708,45.2923 52.5928,40.1093 53.5918,37.5783 C53.7748,37.1153 54.1798,36.7613 54.6658,36.6533 C56.7678,36.1863 57.8208,33.8563 58.4218,28.3433 C58.6068,26.6483 58.3708,25.7073 58.0888,25.3923 C58.0308,25.3273 57.9568,25.2643 57.7528,25.2643 C57.1838,25.2643 56.5028,25.7463 56.3788,25.9873 C56.1608,26.5763 55.6078,26.9483 54.9808,26.9483 C53.7908,26.9473 48.7868,24.1943 40.0888,18.7573 C40.2548,20.2563 40.3388,21.9223 40.4118,24.0803 C40.4288,24.5663 40.2088,25.0293 39.8218,25.3233 C39.4358,25.6173 38.9308,25.7063 38.4668,25.5633 C33.4988,24.0133 30.6528,21.1613 29.0948,18.9063 C28.2558,21.3003 27.5518,23.4843 27.1508,24.7293 C26.6458,26.2993 26.6458,26.2993 26.3018,26.5903 C25.9738,26.8703 25.5418,26.9923 25.1148,26.9313 C24.6888,26.8693 24.3098,26.6273 24.0738,26.2663 C23.6408,25.6003 23.0598,25.2623 22.3488,25.2623 C22.0738,25.2623 21.8598,25.3153 21.7358,25.3573 C21.2828,26.2183 21.7488,27.9653 22.1618,29.5183 L22.4248,30.5133 C23.7378,35.5133 24.0308,36.1783 26.1748,36.6533 C26.6628,36.7613 27.0658,37.1053 27.2468,37.5713 C27.6128,38.5043 27.9478,39.4763 28.2818,40.4443 C29.1428,42.9413 29.9548,45.2993 31.2148,46.7933 C31.6168,47.2713 31.6818,47.9473 31.3758,48.4923 C31.1088,48.9713 30.6048,49.2603 30.0678,49.2603 L30.0678,49.2603 Z" id="Fill-14" fill="#1D1D1B" sketch:type="MSShapeGroup"></path>
            <path id="Fill-16" fill="#572626" sketch:type="MSShapeGroup"></path>
        </g>
    </g>
</svg>