<?xml version="1.0" encoding="UTF-8" standalone="no"?>
<svg width="187px" height="184px" viewBox="0 0 187 184" version="1.1" xmlns="http://www.w3.org/2000/svg" xmlns:xlink="http://www.w3.org/1999/xlink" xmlns:sketch="http://www.bohemiancoding.com/sketch/ns">
    <!-- Generator: Sketch 3.3.3 (12081) - http://www.bohemiancoding.com/sketch -->
    <title>heart-plus</title>
    <desc>Created with Sketch.</desc>
    <defs>
        <rect id="path-1" x="0" y="0" width="186.2" height="183.8"></rect>
        <rect id="path-3" x="0" y="0" width="186.2" height="183.8"></rect>
        <rect id="path-5" x="0" y="0" width="186.2" height="183.8"></rect>
        <rect id="path-7" x="0" y="0" width="186.2" height="183.8"></rect>
        <rect id="path-9" x="0" y="0" width="186.2" height="183.8"></rect>
    </defs>
    <g id="Page-1" stroke="none" stroke-width="1" fill="none" fill-rule="evenodd" sketch:type="MSPage">
        <g id="heart-plus" sketch:type="MSLayerGroup">
            <g id="Group">
                <g id="Clipped">
                    <mask id="mask-2" sketch:name="SVGID_1_" fill="white">
                        <use xlink:href="#path-1"></use>
                    </mask>
                    <g id="SVGID_1_"></g>
                    <path d="M113.4,161.6 C106.7,167.2 99.9,172.4 93.1,177.1 C71.8,162.4 51,143.6 36,125.3 C16.3,101.3 6,77.7 6,57.2 C6,28.5 25.6,6 50.6,6 C67.5,6 82.8,17.1 90.4,34.9 C90.9,36 92,36.7 93.2,36.7 C94.4,36.7 95.5,36 96,34.9 C103.5,17.1 118.8,6 135.7,6 C160.3,6 180.3,29.5 180.3,58.5 C180.3,67.9 178,77.9 173.5,88.4 C172.8,89.9 173.6,91.7 175.1,92.3 C176.6,93 178.4,92.2 179,90.7 C183.8,79.5 186.3,68.6 186.3,58.4 C186.3,26.2 163.6,-0.1 135.7,-0.1 C118.2,-0.1 102.4,10.1 93.1,26.8 C83.9,10.2 68,0 50.6,0 C22.2,0 0,25.1 0,57.2 C0,104.6 49.3,154.7 91.4,183.3 C91.9,183.6 92.5,183.8 93.1,183.8 C93.7,183.8 94.3,183.6 94.8,183.3 C102.3,178.1 109.8,172.4 117.2,166.3 C118.5,165.2 118.6,163.3 117.6,162.1 C116.6,160.7 114.7,160.6 113.4,161.6" id="Shape" fill="#242633" sketch:type="MSShapeGroup" mask="url(#mask-2)"></path>
                </g>
                <g id="Clipped">
                    <mask id="mask-4" sketch:name="SVGID_1_" fill="white">
                        <use xlink:href="#path-3"></use>
                    </mask>
                    <g id="SVGID_1_"></g>
                    <path d="M23.1,37.4 C24.1,37.4 25.2,36.9 25.7,35.9 C31.4,26 40.4,20.3 50.5,20.3 C58.5,20.3 66,24.2 71.7,31.4 C72.7,32.7 74.6,32.9 75.9,31.9 C77.2,30.9 77.4,29 76.4,27.7 C69.5,19.1 60.3,14.4 50.5,14.4 C38.4,14.4 27.1,21.3 20.5,33 C19.7,34.4 20.2,36.3 21.6,37.1 C22.1,37.3 22.6,37.4 23.1,37.4" id="Shape" fill="#242633" sketch:type="MSShapeGroup" mask="url(#mask-4)"></path>
                </g>
                <g id="Clipped">
                    <mask id="mask-6" sketch:name="SVGID_1_" fill="white">
                        <use xlink:href="#path-5"></use>
                    </mask>
                    <g id="SVGID_1_"></g>
                    <path d="M19.2,43.4 C17.6,43 16,44 15.6,45.7 C14.8,49.4 14.3,53.3 14.3,57.2 C14.3,58.9 15.6,60.2 17.3,60.2 C19,60.2 20.3,58.9 20.3,57.2 C20.3,53.7 20.7,50.3 21.4,47 C21.8,45.4 20.8,43.8 19.2,43.4" id="Shape" fill="#242633" sketch:type="MSShapeGroup" mask="url(#mask-6)"></path>
                </g>
                <g id="Clipped">
                    <mask id="mask-8" sketch:name="SVGID_1_" fill="white">
                        <use xlink:href="#path-7"></use>
                    </mask>
                    <g id="SVGID_1_"></g>
                    <path d="M148.8,93.1 C128.8,93.1 112.6,109.3 112.6,129.3 C112.6,149.3 128.8,165.5 148.8,165.5 C168.8,165.5 185,149.3 185,129.3 C185,109.3 168.8,93.1 148.8,93.1 M148.8,159.5 C132.2,159.5 118.6,146 118.6,129.3 C118.6,112.6 132.1,99.1 148.8,99.1 C165.4,99.1 179,112.6 179,129.3 C179,146 165.5,159.5 148.8,159.5" id="Shape" fill="#242633" sketch:type="MSShapeGroup" mask="url(#mask-8)"></path>
                </g>
                <g id="Clipped">
                    <mask id="mask-10" sketch:name="SVGID_1_" fill="white">
                        <use xlink:href="#path-9"></use>
                    </mask>
                    <g id="SVGID_1_"></g>
                    <path d="M164,126.9 L151.8,126.9 L151.8,114.7 C151.8,113 150.5,111.7 148.8,111.7 C147.1,111.7 145.8,113 145.8,114.7 L145.8,126.9 L133.6,126.9 C131.9,126.9 130.6,128.2 130.6,129.9 C130.6,131.6 131.9,132.9 133.6,132.9 L145.8,132.9 L145.8,145.1 C145.8,146.8 147.1,148.1 148.8,148.1 C150.5,148.1 151.8,146.8 151.8,145.1 L151.8,132.9 L164,132.9 C165.7,132.9 167,131.6 167,129.9 C167,128.3 165.7,126.9 164,126.9" id="Shape" fill="#242633" sketch:type="MSShapeGroup" mask="url(#mask-10)"></path>
                </g>
            </g>
        </g>
    </g>
</svg>