<?xml version="1.0" encoding="UTF-8" standalone="no"?>
<svg width="233px" height="122px" viewBox="0 0 233 122" version="1.1" xmlns="http://www.w3.org/2000/svg" xmlns:xlink="http://www.w3.org/1999/xlink" xmlns:sketch="http://www.bohemiancoding.com/sketch/ns">
    <!-- Generator: Sketch 3.3.3 (12081) - http://www.bohemiancoding.com/sketch -->
    <title>fit</title>
    <desc>Created with Sketch.</desc>
    <defs></defs>
    <g id="Page-1" stroke="none" stroke-width="1" fill="none" fill-rule="evenodd" sketch:type="MSPage">
        <g id="fit" sketch:type="MSLayerGroup" fill="#242633">
            <path d="M219.4,47.2 L214.7,47.2 L214.7,24.1 C214.7,16.9 208.9,11.1 201.7,11.1 L196.9,11.1 C194.3,11.1 191.9,11.9 189.9,13.2 L189.9,13 C189.9,5.8 184.1,0 176.9,0 L169.9,0 C162.7,0 156.9,5.8 156.9,13 L156.9,47.2 L75.4,47.2 L75.4,13 C75.4,5.8 69.6,0 62.4,0 L55.4,0 C48.2,0 42.4,5.8 42.4,13 L42.4,13.2 C40.4,11.9 38,11.1 35.4,11.1 L30.6,11.1 C23.4,11.1 17.6,16.9 17.6,24.1 L17.6,47.3 L13,47.3 C5.8,47.3 0,53.1 0,60.3 L0,61 C0,68.2 5.8,74 13,74 L17.7,74 L17.7,97.2 C17.7,104.4 23.5,110.2 30.7,110.2 L35.5,110.2 C38.1,110.2 40.5,109.4 42.5,108.1 L42.5,108.3 C42.5,115.5 48.3,121.3 55.5,121.3 L62.5,121.3 C69.7,121.3 75.5,115.5 75.5,108.3 L75.5,73.9 L157,73.9 L157,108.1 C157,115.3 162.8,121.1 170,121.1 L177,121.1 C184.2,121.1 190,115.3 190,108.1 L190,108 C192,109.3 194.4,110.1 197,110.1 L201.8,110.1 C209,110.1 214.8,104.3 214.8,97.1 L214.8,73.9 L219.5,73.9 C226.7,73.9 232.5,68.1 232.5,60.9 L232.5,60.2 C232.3,53 226.5,47.2 219.4,47.2 L219.4,47.2 Z M13,67.9 C9.2,67.9 6,64.8 6,60.9 L6,60.2 C6,56.4 9.1,53.2 13,53.2 L17.7,53.2 L17.7,67.9 L13,67.9 L13,67.9 Z M35.5,104 L30.7,104 C26.9,104 23.7,100.9 23.7,97 L23.7,24 C23.7,20.2 26.8,17 30.7,17 L35.5,17 C39.3,17 42.5,20.1 42.5,24 L42.5,97 C42.5,100.9 39.3,104 35.5,104 L35.5,104 Z M69.4,108.2 C69.4,112 66.3,115.2 62.4,115.2 L55.4,115.2 C51.6,115.2 48.4,112.1 48.4,108.2 L48.4,97.1 L48.4,24.1 L48.4,13 C48.4,9.2 51.5,6 55.4,6 L62.4,6 C66.2,6 69.4,9.1 69.4,13 L69.4,108.2 L69.4,108.2 Z M75.4,67.9 L75.4,53.2 L156.9,53.2 L156.9,67.9 L75.4,67.9 L75.4,67.9 Z M183.9,108.2 C183.9,112 180.8,115.2 176.9,115.2 L169.9,115.2 C166.1,115.2 162.9,112.1 162.9,108.2 L162.9,13 C162.9,9.2 166,6 169.9,6 L176.9,6 C180.7,6 183.9,9.1 183.9,13 L183.9,24.1 L183.9,97.1 L183.9,108.2 L183.9,108.2 Z M208.6,97.1 C208.6,100.9 205.5,104.1 201.6,104.1 L196.8,104.1 C193,104.1 189.8,101 189.8,97.1 L189.8,24.1 C189.8,20.3 192.9,17.1 196.8,17.1 L201.6,17.1 C205.4,17.1 208.6,20.2 208.6,24.1 L208.6,97.1 L208.6,97.1 Z M226.3,60.9 C226.3,64.7 223.2,67.9 219.3,67.9 L214.6,67.9 L214.6,53.2 L219.3,53.2 C223.1,53.2 226.3,56.3 226.3,60.2 L226.3,60.9 L226.3,60.9 Z" id="Shape" sketch:type="MSShapeGroup"></path>
        </g>
    </g>
</svg>