<svg xmlns="http://www.w3.org/2000/svg" xmlns:xlink="http://www.w3.org/1999/xlink" preserveAspectRatio="xMidYMid" width="22.906" height="36.656" viewBox="0 0 22.906 36.656">
  <defs>
    <style>
      .cls-1 {
        fill: #464646;
        fill-rule: evenodd;
      }
    </style>
  </defs>
  <path d="M19.861,19.222 L19.861,35.902 C19.861,36.211 19.675,36.489 19.389,36.607 C19.295,36.647 19.195,36.666 19.097,36.666 C18.898,36.666 18.703,36.588 18.557,36.442 L14.514,32.399 L10.470,36.442 C10.251,36.661 9.924,36.727 9.638,36.607 C9.352,36.489 9.166,36.211 9.166,35.902 L9.166,28.579 L8.403,27.816 L4.359,31.859 C4.213,32.005 4.018,32.083 3.819,32.083 C3.721,32.083 3.622,32.064 3.527,32.025 C3.241,31.907 3.055,31.628 3.055,31.319 L3.055,19.222 C1.166,17.178 0.000,14.455 0.000,11.458 C0.000,5.140 5.140,0.000 11.458,0.000 C17.777,0.000 22.916,5.140 22.916,11.458 C22.916,14.455 21.751,17.178 19.861,19.222 ZM13.974,30.778 C14.272,30.480 14.755,30.480 15.054,30.778 L18.333,34.058 L18.333,20.603 C16.415,22.048 14.039,22.916 11.458,22.916 C11.198,22.916 10.950,22.869 10.694,22.852 L10.694,28.263 C10.694,28.263 10.694,28.263 10.694,28.263 L10.694,34.058 L13.974,30.778 ZM4.583,29.475 L7.863,26.196 C8.161,25.897 8.644,25.897 8.943,26.196 L9.166,26.419 L9.166,22.656 C7.477,22.307 5.915,21.606 4.583,20.603 L4.583,29.475 ZM11.458,1.528 C5.983,1.528 1.528,5.983 1.528,11.458 C1.528,16.933 5.983,21.389 11.458,21.389 C16.934,21.389 21.388,16.933 21.388,11.458 C21.388,5.983 16.934,1.528 11.458,1.528 ZM11.458,18.333 C7.666,18.333 4.582,15.249 4.582,11.458 C4.582,7.667 7.666,4.582 11.458,4.582 C15.249,4.582 18.333,7.667 18.333,11.458 C18.333,15.249 15.249,18.333 11.458,18.333 ZM11.458,6.110 C8.509,6.110 6.109,8.509 6.109,11.458 C6.109,14.406 8.509,16.805 11.458,16.805 C14.406,16.805 16.805,14.406 16.805,11.458 C16.805,8.509 14.406,6.110 11.458,6.110 Z" class="cls-1"/>
</svg>
