<?xml version="1.0" encoding="UTF-8" standalone="no"?>
<svg width="187px" height="184px" viewBox="0 0 187 184" version="1.1" xmlns="http://www.w3.org/2000/svg" xmlns:xlink="http://www.w3.org/1999/xlink" xmlns:sketch="http://www.bohemiancoding.com/sketch/ns">
    <!-- Generator: Sketch 3.3.3 (12081) - http://www.bohemiancoding.com/sketch -->
    <title>heart-plus</title>
    <desc>Created with Sketch.</desc>
    <defs></defs>
    <g id="Page-1" stroke="none" stroke-width="1" fill="none" fill-rule="evenodd" sketch:type="MSPage">
        <path d="M138.673,-5.68434189e-14 L132.706,-5.68434189e-14 C116.409,1.092 101.866,11.058 93.1,26.8 C83.9,10.2 68,-5.68434189e-14 50.6,-5.68434189e-14 C22.2,-5.68434189e-14 0,25.1 0,57.2 C0,104.6 49.3,154.7 91.4,183.3 C91.89,183.594 92.476,183.792 93.064,183.8 L93.135,183.8 C93.724,183.792 94.31,183.594 94.8,183.3 C102.3,178.1 109.8,172.4 117.2,166.3 C118.5,165.2 118.6,163.3 117.6,162.1 C117.037,161.312 116.189,160.936 115.324,160.936 C114.651,160.936 113.968,161.163 113.4,161.6 C106.7,167.2 99.9,172.4 93.1,177.1 C71.8,162.4 51,143.6 36,125.3 C16.3,101.3 6,77.7 6,57.2 C6,28.5 25.6,6 50.6,6 C67.5,6 82.8,17.1 90.4,34.9 C90.9,36 92,36.7 93.2,36.7 C94.4,36.7 95.5,36 96,34.9 C103.5,17.1 118.8,6 135.7,6 C160.3,6 180.3,29.5 180.3,58.5 C180.3,67.9 178,77.9 173.5,88.4 C172.8,89.9 173.6,91.7 175.1,92.3 C175.475,92.475 175.869,92.556 176.258,92.556 C177.425,92.556 178.55,91.825 179,90.7 C183.245,80.794 185.692,71.123 186.2,61.963 L186.2,54.711 C184.608,25.349 164.137,1.717 138.673,-5.68434189e-14 Z M50.5,14.4 C38.4,14.4 27.1,21.3 20.5,33 C20.242,33.452 20.119,33.955 20.118,34.457 L20.118,34.468 C20.12,35.518 20.655,36.56 21.6,37.1 C22.1,37.3 22.6,37.4 23.1,37.4 C24.1,37.4 25.2,36.9 25.7,35.9 C31.4,26 40.4,20.3 50.5,20.3 C58.5,20.3 66,24.2 71.7,31.4 C72.276,32.148 73.15,32.532 74.036,32.532 C74.689,32.532 75.349,32.324 75.9,31.9 C76.646,31.326 77.03,30.456 77.032,29.573 L77.032,29.554 C77.03,28.904 76.822,28.249 76.4,27.7 C69.5,19.1 60.3,14.4 50.5,14.4 Z M18.498,43.312 L18.484,43.312 C17.147,43.316 15.94,44.255 15.6,45.7 C14.8,49.4 14.3,53.3 14.3,57.2 C14.3,58.9 15.6,60.2 17.3,60.2 C19,60.2 20.3,58.9 20.3,57.2 C20.3,53.7 20.7,50.3 21.4,47 C21.8,45.4 20.8,43.8 19.2,43.4 C18.965,43.341 18.729,43.313 18.498,43.312 Z M148.8,159.5 C132.2,159.5 118.6,146 118.6,129.3 C118.6,112.6 132.1,99.1 148.8,99.1 C165.4,99.1 179,112.6 179,129.3 C179,146 165.5,159.5 148.8,159.5 Z M148.8,93.1 C128.8,93.1 112.6,109.3 112.6,129.3 C112.6,149.3 128.8,165.5 148.8,165.5 C168.8,165.5 185,149.3 185,129.3 C185,109.3 168.8,93.1 148.8,93.1 Z M148.8,111.7 C147.1,111.7 145.8,113 145.8,114.7 L145.8,126.9 L133.6,126.9 C131.9,126.9 130.6,128.2 130.6,129.9 C130.6,131.6 131.9,132.9 133.6,132.9 L145.8,132.9 L145.8,145.1 C145.8,146.8 147.1,148.1 148.8,148.1 C150.5,148.1 151.8,146.8 151.8,145.1 L151.8,132.9 L164,132.9 C165.7,132.9 167,131.6 167,129.9 C167,128.3 165.7,126.9 164,126.9 L151.8,126.9 L151.8,114.7 C151.8,113 150.5,111.7 148.8,111.7 Z" id="heart-plus" fill="#242633" sketch:type="MSShapeGroup"></path>
    </g>
</svg>