<svg xmlns="http://www.w3.org/2000/svg" xmlns:xlink="http://www.w3.org/1999/xlink" preserveAspectRatio="xMidYMid" width="22.688" height="24.969" viewBox="0 0 22.688 24.969">
  <defs>
    <style>
      .cls-1 {
        fill: #464646;
        fill-rule: evenodd;
      }
    </style>
  </defs>
  <path d="M18.703,17.020 C17.642,17.020 16.646,17.434 15.900,18.185 C15.610,18.476 15.373,18.805 15.189,19.160 L7.293,15.213 C7.711,14.574 7.937,13.829 7.937,13.049 C7.937,12.345 7.752,11.671 7.409,11.076 L15.464,6.245 C16.180,7.269 17.365,7.942 18.706,7.943 L18.706,7.943 C19.769,7.943 20.769,7.530 21.521,6.779 C22.274,6.029 22.688,5.032 22.688,3.972 C22.688,2.911 22.274,1.913 21.522,1.162 C20.771,0.413 19.771,-0.000 18.703,-0.000 C17.642,-0.000 16.646,0.413 15.900,1.165 C15.154,1.914 14.744,2.911 14.745,3.972 C14.745,4.411 14.819,4.833 14.952,5.228 L6.703,10.177 C5.959,9.469 4.989,9.077 3.953,9.077 C2.891,9.077 1.895,9.491 1.149,10.242 C0.404,10.991 -0.006,11.988 -0.006,13.049 C-0.006,15.237 1.771,17.019 3.955,17.020 L3.956,17.020 C4.901,17.020 5.796,16.692 6.512,16.091 L14.816,20.243 C14.770,20.487 14.745,20.737 14.745,20.991 C14.745,23.180 16.522,24.962 18.706,24.963 L18.706,24.963 C19.769,24.963 20.769,24.550 21.521,23.799 C22.274,23.049 22.688,22.052 22.688,20.991 C22.688,19.930 22.274,18.933 21.522,18.183 C20.771,17.433 19.771,17.020 18.703,17.020 ZM16.704,1.965 C17.236,1.430 17.946,1.135 18.708,1.135 C19.469,1.135 20.183,1.430 20.721,1.966 C21.258,2.502 21.554,3.213 21.553,3.972 C21.553,4.728 21.257,5.441 20.720,5.976 C20.182,6.512 19.467,6.808 18.707,6.808 C17.148,6.807 15.880,5.535 15.880,3.972 C15.880,3.212 16.172,2.500 16.704,1.965 ZM3.956,15.886 C2.397,15.884 1.129,14.612 1.129,13.049 C1.129,12.290 1.421,11.577 1.953,11.042 C2.486,10.507 3.195,10.212 3.957,10.212 C4.718,10.212 5.433,10.507 5.970,11.043 C6.508,11.579 6.803,12.291 6.802,13.049 C6.802,13.806 6.506,14.518 5.969,15.053 C5.432,15.590 4.716,15.886 3.956,15.886 ZM20.720,22.996 C20.182,23.532 19.467,23.828 18.707,23.828 C17.148,23.827 15.880,22.555 15.880,20.991 C15.880,20.232 16.172,19.520 16.704,18.985 C17.236,18.450 17.946,18.155 18.708,18.155 C19.469,18.155 20.183,18.450 20.721,18.986 C21.258,19.522 21.554,20.234 21.553,20.991 C21.553,21.748 21.257,22.461 20.720,22.996 Z" class="cls-1"/>
</svg>
