<?xml version="1.0" encoding="UTF-8" standalone="no"?>
<svg width="79px" height="90px" viewBox="0 0 79 90" version="1.1" xmlns="http://www.w3.org/2000/svg" xmlns:xlink="http://www.w3.org/1999/xlink" xmlns:sketch="http://www.bohemiancoding.com/sketch/ns">
    <!-- Generator: Sketch 3.3.2 (12043) - http://www.bohemiancoding.com/sketch -->
    <title>Vector Smart Object</title>
    <desc>Created with Sketch.</desc>
    <defs></defs>
    <g id="Page-1" stroke="none" stroke-width="1" fill="none" fill-rule="evenodd" sketch:type="MSPage">
        <g id="Vector-Smart-Object" sketch:type="MSLayerGroup" transform="translate(-1.000000, 0.000000)" fill="#1D1D1B">
            <g id="Group-3" transform="translate(0.000000, 53.000000)" sketch:type="MSShapeGroup">
                <path d="M21.5205,3.5464 C11.6255,4.7254 3.9995,13.2224 3.9995,23.2704 L3.9995,30.4884 C3.9995,32.4244 5.5755,34.0004 7.5115,34.0004 L72.6035,34.0004 C74.5405,34.0004 76.1155,32.4244 76.1165,30.4874 L76.1165,23.2704 C76.1165,13.3134 68.5725,4.8264 58.7815,3.5644 L45.6855,24.1474 C45.3305,24.7074 44.6525,24.9654 44.0105,24.7854 C43.3725,24.6044 42.9295,24.0264 42.9195,23.3634 C42.7905,14.2854 41.5185,11.6604 41.5055,11.6344 C41.2905,11.2074 41.2755,10.6704 41.4945,10.2454 L44.2075,4.9434 L36.1045,4.9434 L38.8185,10.2454 C39.0485,10.6944 39.0375,11.2284 38.7895,11.6684 C38.7905,11.6684 37.5235,14.2984 37.3935,23.3634 C37.3835,24.0264 36.9405,24.6044 36.3025,24.7854 C35.6655,24.9654 34.9845,24.7074 34.6275,24.1474 L21.5205,3.5464 Z M72.6035,37.0004 L7.5115,37.0004 C3.9205,37.0004 0.9995,34.0794 0.9995,30.4884 L0.9995,23.2704 C0.9995,11.3634 10.3035,1.3484 22.1815,0.4694 C22.7405,0.4384 23.2625,0.6944 23.5575,1.1604 L34.5925,18.5024 C34.8965,14.3134 35.4645,12.0744 35.8355,11.0024 L32.3165,4.1274 C32.0785,3.6624 32.0995,3.1064 32.3725,2.6604 C32.6445,2.2154 33.1285,1.9434 33.6515,1.9434 L46.6615,1.9434 C47.1835,1.9434 47.6675,2.2154 47.9405,2.6604 C48.2125,3.1064 48.2345,3.6624 47.9965,4.1274 L44.4765,11.0024 C44.8475,12.0744 45.4155,14.3134 45.7205,18.5024 L56.7495,1.1694 C57.0475,0.6994 57.5755,0.4344 58.1385,0.4804 C69.9015,1.4544 79.1165,11.4654 79.1165,23.2704 L79.1165,30.4884 C79.1155,34.0794 76.1935,37.0004 72.6035,37.0004 L72.6035,37.0004 Z" id="Fill-1"></path>
            </g>
            <path d="M55.8965,26.8483 C55.4995,26.9203 55.1265,27.4943 54.7855,28.1923 L55.5535,28.1753 C55.8585,28.1683 56.1625,28.1613 56.5155,28.1613 C56.7565,28.1613 56.8205,28.2443 56.8635,28.2993 C57.1155,28.6263 57.2295,29.4883 56.9175,30.6783 C55.6025,35.6813 54.9395,35.6743 54.1435,35.6773 L52.9885,35.6603 L52.5855,36.9633 C52.5515,37.0853 52.5185,37.2083 52.4775,37.3243 L52.4085,37.6393 C52.1725,40.1653 51.9675,40.7243 51.9305,40.8083 C51.1265,42.4963 45.8385,48.9263 43.9905,49.6443 C43.9745,49.6493 43.5765,49.7773 41.9725,49.7773 C41.0085,49.7773 40.1425,49.7313 40.1295,49.7303 L40.0595,49.7263 L39.9885,49.7303 C39.9765,49.7313 39.1095,49.7773 38.1435,49.7773 C36.5395,49.7773 36.1405,49.6493 36.1325,49.6473 C34.2785,48.9263 28.9925,42.4963 28.1885,40.8093 C28.1435,40.7093 27.9045,40.0463 27.6435,36.8853 L27.5405,35.6423 L25.8665,35.6813 C25.1705,35.6813 24.5135,35.6813 23.1985,30.6793 C22.8865,29.4893 23.0015,28.6263 23.2535,28.3003 C23.2955,28.2443 23.3605,28.1613 23.6005,28.1613 C24.0935,28.1613 24.5165,28.1713 24.9345,28.1823 L25.5545,28.1993 C25.3855,27.8223 25.2135,27.4753 25.0405,27.2103 C24.7515,27.4293 24.4085,27.5833 24.0175,27.5833 C23.0655,27.5833 22.2935,26.8113 22.2935,25.8593 C22.2935,25.8353 22.3065,25.8153 22.3075,25.7913 C21.8585,25.9873 21.4595,26.2803 21.1525,26.6793 C20.3245,27.7523 20.1345,29.4563 20.6315,31.3533 C22.0365,36.6953 23.1855,38.0563 25.1065,38.2933 C25.3505,40.7353 25.5875,41.5203 25.7925,41.9493 C26.6465,43.7433 32.3035,51.0063 35.1735,52.1213 C35.5455,52.2653 36.2195,52.4313 38.1435,52.4313 C39.0215,52.4313 39.8215,52.3953 40.0595,52.3843 C40.2965,52.3953 41.0965,52.4313 41.9725,52.4313 C43.8965,52.4313 44.5705,52.2653 44.9435,52.1203 C47.8135,51.0073 53.4715,43.7433 54.3265,41.9493 C54.5285,41.5243 54.7655,40.7533 55.0115,38.2933 C56.9315,38.0563 58.0795,36.6943 59.4845,31.3523 C59.9815,29.4543 59.7925,27.7503 58.9645,26.6783 C58.4995,26.0753 57.8455,25.7053 57.0975,25.5733 C56.8225,26.2763 56.4365,26.7483 55.8965,26.8483" id="Fill-4" sketch:type="MSShapeGroup"></path>
            <g id="Group-8" transform="translate(19.000000, 0.000000)" sketch:type="MSShapeGroup">
                <path d="M23.8549,0.8466 C22.5859,0.8466 21.4789,1.5146 20.8479,2.5136 C20.2159,1.5146 19.1089,0.8466 17.8399,0.8466 C16.4799,0.8466 15.3129,1.6166 14.7119,2.7366 C14.1179,2.2946 13.3889,2.0236 12.5919,2.0236 C11.0029,2.0236 9.6739,3.0686 9.2129,4.5046 C9.0559,4.4766 8.9139,4.4106 8.7499,4.4106 C7.2429,4.4106 6.0219,5.6326 6.0219,7.1386 C6.0219,7.2806 6.0809,7.4016 6.1019,7.5376 C4.9129,7.8326 4.0139,8.8566 4.0139,10.1366 C4.0139,10.3566 4.0899,10.5516 4.1389,10.7556 C4.0949,10.7536 4.0579,10.7306 4.0139,10.7306 C2.5069,10.7306 1.2859,11.9516 1.2859,13.4586 C1.2859,14.0316 1.5029,14.5336 1.8059,14.9726 C1.0759,15.4626 0.5659,16.2546 0.5659,17.1986 C0.5659,18.4446 1.4169,19.4516 2.5569,19.7786 C1.8099,20.2646 1.2859,21.0666 1.2859,22.0256 C1.2859,23.4416 2.3769,24.5666 3.7569,24.7016 C3.4909,24.9916 3.3249,25.3706 3.3069,25.7916 C3.3059,25.8146 3.2939,25.8346 3.2939,25.8596 C3.2939,26.8116 4.0659,27.5836 5.0179,27.5836 C5.4089,27.5836 5.7509,27.4296 6.0409,27.2106 C6.2129,27.4756 6.3859,27.8226 6.5549,28.1996 C7.1409,29.5056 7.6889,31.1866 8.0749,31.1866 C8.2109,31.1866 8.3279,30.9756 8.4179,30.4636 C8.6489,29.1576 8.3999,27.8106 8.1289,25.7896 C9.4659,25.6126 10.5129,24.5156 10.5129,23.1316 C10.5129,22.2626 10.0799,21.5226 9.4469,21.0226 C10.0799,20.5236 10.5129,19.7836 10.5129,18.9146 C10.5129,18.2236 10.2339,17.6106 9.8109,17.1296 C10.2689,17.0696 10.6769,16.9026 11.0339,16.6456 C11.6879,16.4626 12.2199,16.0576 12.5769,15.4986 C12.7339,15.5266 12.8779,15.5926 13.0429,15.5926 C13.5339,15.5926 13.9699,15.4276 14.3679,15.2006 C14.6919,16.3446 15.7009,17.1986 16.9479,17.1986 C17.4049,17.1986 17.8159,17.0586 18.1939,16.8606 C18.6539,17.7176 19.5279,18.3206 20.5679,18.3206 C20.7419,18.3206 20.8939,18.2526 21.0589,18.2216 C21.2239,18.2526 21.3759,18.3206 21.5499,18.3206 C22.5899,18.3206 23.4639,17.7176 23.9239,16.8606 C24.3019,17.0586 24.7139,17.1986 25.1699,17.1986 C26.4179,17.1986 27.4259,16.3446 27.7499,15.2006 C28.1479,15.4276 28.5839,15.5926 29.0749,15.5926 C29.2399,15.5926 29.3839,15.5266 29.5409,15.4986 C29.8979,16.0576 30.4299,16.4626 31.0839,16.6456 C31.4409,16.9026 31.8499,17.0696 32.3069,17.1296 C31.8839,17.6106 31.6049,18.2236 31.6049,18.9146 C31.6049,19.7836 32.0379,20.5236 32.6709,21.0226 C32.0379,21.5226 31.6049,22.2626 31.6049,23.1316 C31.6049,24.6376 32.8269,25.8596 34.3329,25.8596 C34.3469,25.8596 34.3589,25.8516 34.3729,25.8516 C34.1059,27.8376 33.8639,29.1706 34.0919,30.4636 C34.1639,30.8696 34.2539,31.0386 34.3619,31.0386 C34.6939,31.0386 35.1879,29.4196 35.7859,28.1926 C36.1259,27.4946 36.4999,26.9206 36.8969,26.8486 C37.4359,26.7486 37.8229,26.2766 38.0969,25.5736 C38.1989,25.3116 38.2889,25.0236 38.3599,24.7016 C39.7399,24.5666 40.8319,23.4416 40.8319,22.0256 C40.8319,21.0666 40.3079,20.2646 39.5609,19.7786 C40.7009,19.4516 41.5519,18.4446 41.5519,17.1986 C41.5519,16.2546 41.0419,15.4626 40.3129,14.9726 C40.6149,14.5336 40.8319,14.0316 40.8319,13.4586 C40.8319,11.9516 39.6109,10.7306 38.1039,10.7306 C38.0599,10.7306 38.0229,10.7536 37.9789,10.7556 C38.0279,10.5516 38.1039,10.3566 38.1039,10.1366 C38.1039,8.8566 37.2049,7.8326 36.0159,7.5376 C36.0369,7.4016 36.0969,7.2806 36.0969,7.1386 C36.0969,5.6326 34.8749,4.4106 33.3689,4.4106 C33.2039,4.4106 33.0619,4.4766 32.9049,4.5046 C32.4439,3.0686 31.1149,2.0236 29.5259,2.0236 C28.5929,2.0236 27.7499,2.3896 27.1139,2.9776 C26.5619,1.7246 25.3129,0.8466 23.8549,0.8466 M23.8549,3.8466 C24.1239,3.8466 24.2999,4.0306 24.3689,4.1876 C24.7599,5.0746 25.5549,5.7176 26.5039,5.9146 C26.7069,5.9566 26.9109,5.9776 27.1139,5.9776 C27.8619,5.9776 28.5909,5.6976 29.1509,5.1806 C29.2639,5.0756 29.3899,5.0236 29.5259,5.0236 C29.7989,5.0236 29.9849,5.2226 30.0489,5.4216 C30.4529,6.6796 31.6209,7.5046 32.9029,7.5046 C32.9409,7.5046 32.9779,7.5036 33.0159,7.5026 C32.9999,8.7766 33.7979,9.9316 35.0049,10.3626 C34.8959,11.1836 35.1319,12.0196 35.6659,12.6656 C36.1519,13.2546 36.8389,13.6306 37.5829,13.7296 C37.3279,14.2916 37.2509,14.9236 37.3679,15.5376 C37.4829,16.1346 37.7759,16.6806 38.2019,17.1036 C37.3479,17.5376 36.7419,18.3636 36.5959,19.3346 C36.4559,20.2666 36.7649,21.1966 37.4009,21.8596 C36.7109,22.0916 36.1299,22.5686 35.7659,23.1946 C35.5239,23.0676 35.2649,22.9736 34.9969,22.9166 C35.4279,22.3856 35.6689,21.7176 35.6689,21.0206 C35.6689,20.2046 35.3349,19.4266 34.7539,18.8646 C35.3259,18.0576 35.4679,17.0126 35.1149,16.0746 C34.7349,15.0616 33.8389,14.3336 32.7739,14.1666 C32.5379,14.0056 32.2799,13.8796 32.0089,13.7916 C31.4439,12.9746 30.5169,12.4976 29.5419,12.4976 C29.3999,12.4976 29.2569,12.5086 29.1149,12.5286 C28.6879,12.3106 28.2199,12.2006 27.7499,12.2006 C27.3659,12.2006 26.9799,12.2746 26.6159,12.4236 C25.8699,12.7286 25.2839,13.3166 24.9789,14.0516 C24.6349,13.9226 24.2789,13.8596 23.9269,13.8596 C22.9299,13.8596 21.9639,14.3586 21.3989,15.2406 C21.2859,15.2276 21.1729,15.2216 21.0589,15.2216 C20.9459,15.2216 20.8319,15.2276 20.7189,15.2406 C20.1539,14.3586 19.1879,13.8596 18.1909,13.8596 C17.8389,13.8596 17.4829,13.9226 17.1389,14.0516 C16.8349,13.3166 16.2479,12.7286 15.5029,12.4236 C15.1379,12.2746 14.7519,12.2006 14.3679,12.2006 C13.8979,12.2006 13.4299,12.3106 13.0039,12.5286 C12.8609,12.5086 12.7179,12.4976 12.5759,12.4976 C11.6009,12.4976 10.6739,12.9746 10.1099,13.7916 C9.8379,13.8796 9.5809,14.0056 9.3449,14.1666 C8.2789,14.3336 7.3849,15.0636 7.0049,16.0776 C6.6529,17.0136 6.7949,18.0576 7.3639,18.8646 C6.7819,19.4266 6.4499,20.2066 6.4499,21.0246 C6.4489,21.7356 6.7029,22.4176 7.1519,22.9536 C6.8929,23.0426 6.6469,23.1676 6.4219,23.3226 C6.0629,22.6296 5.4499,22.1066 4.7179,21.8596 C5.3559,21.1976 5.6639,20.2666 5.5239,19.3326 C5.3789,18.3626 4.7709,17.5376 3.9169,17.1036 C4.3439,16.6806 4.6379,16.1346 4.7519,15.5356 C4.8689,14.9216 4.7909,14.2906 4.5359,13.7296 C5.2789,13.6306 5.9649,13.2546 6.4509,12.6676 C6.9849,12.0206 7.2219,11.1846 7.1129,10.3626 C8.3199,9.9316 9.1179,8.7766 9.1019,7.5026 C9.1399,7.5036 9.1779,7.5046 9.2149,7.5046 C10.4969,7.5046 11.6659,6.6796 12.0699,5.4216 C12.1329,5.2226 12.3189,5.0236 12.5919,5.0236 C12.6329,5.0236 12.7589,5.0236 12.9199,5.1426 C13.4419,5.5316 14.0719,5.7366 14.7119,5.7366 C14.9289,5.7366 15.1479,5.7126 15.3639,5.6646 C16.2159,5.4756 16.9429,4.9236 17.3549,4.1546 C17.3939,4.0826 17.5439,3.8466 17.8399,3.8466 C18.1119,3.8466 18.2609,4.0356 18.3119,4.1166 C18.8619,4.9866 19.8189,5.5136 20.8479,5.5136 C21.8759,5.5136 22.8339,4.9856 23.3829,4.1166 C23.4349,4.0356 23.5829,3.8466 23.8549,3.8466" id="Fill-6"></path>
            </g>
        </g>
    </g>
</svg>