<?xml version="1.0" encoding="UTF-8" standalone="no"?>
<svg width="77px" height="70px" viewBox="0 0 77 70" version="1.1" xmlns="http://www.w3.org/2000/svg" xmlns:xlink="http://www.w3.org/1999/xlink" xmlns:sketch="http://www.bohemiancoding.com/sketch/ns">
    <!-- Generator: Sketch 3.3.3 (12081) - http://www.bohemiancoding.com/sketch -->
    <title>moneykeeper</title>
    <desc>Created with Sketch.</desc>
    <defs></defs>
    <g id="Page-1" stroke="none" stroke-width="1" fill="none" fill-rule="evenodd" sketch:type="MSPage">
        <path d="M53.3,31.6 L55.4,29.8 C55.2,29.7 53.1,28.4 49.6,27.2 C50.4,26.1 51.5,23.4 51.9,22.2 C54.8,23.3 57,24.1 59.4,25.9 C59.729,26.147 60.126,26.326 60.591,26.326 C60.691,26.326 60.794,26.318 60.9,26.3 L67.8,25.9 L66.3,31 C66.1,31.6 66.2,32.3 66.5,32.9 C67.9,35 68.4,36.4 68.8,38.7 C69,39.6 69.6,40.3 70.5,40.4 L74.1,41.5 L72.3,54.6 L66.9,53.5 C66.798,53.487 66.698,53.481 66.6,53.481 C65.925,53.481 65.337,53.776 64.9,54.3 C64.2,55.2 63.8,56.1 62.9,56.9 C62.5,57.3 62.2,57.8 62.2,58.4 L62.6,67.6 L56.8,67.6 L55.2,63.4 C54.846,62.692 54.141,62.285 53.44,62.285 C53.151,62.285 52.863,62.354 52.6,62.5 C48.3,64.3 43.5,65.2 38.6,65.2 C33.7,65.2 30.2,64.3 25.9,62.5 C25.637,62.395 25.367,62.345 25.103,62.345 C24.363,62.345 23.668,62.737 23.3,63.4 L21.8,67.1 L15.3,67.1 L15.3,57.7 C15.3,57.1 15.1,56.5 14.6,56.2 C8.5,50.6 8.9,42.7 8.9,42.3 C8.9,34 16.4,25.8 26,22.4 C26.4,23.6 27.5,26.2 28.2,27.3 C24.8,28.5 22.6,29.8 22.4,29.9 L23.8,32.3 C23.9,32.3 30.9,28.1 38.9,28.1 C46.9,28.1 53.2,31.6 53.3,31.6 Z M60.9,36.2 C59.8,36.2 58.9,37.1 58.9,38.2 C58.9,39.3 59.8,40.2 60.9,40.2 C62,40.2 62.9,39.3 62.9,38.2 C62.9,37.1 62,36.2 60.9,36.2 Z M30.7,26.6 C29,24.9 28.2,21 28.2,18.6 C28.3,13.6 33.5,9.1 38.5,8.9 C38.608,8.896 38.716,8.895 38.822,8.895 C44.755,8.895 49,14.288 49,19.2 C49,21.7 48.3,24.7 46.6,26.4 C44.7,26 41,25.4 38.7,25.4 C36.4,25.4 32.6,26.2 30.7,26.6 M50.1,0 L50.1,0 C45.8,0 42.3,2.6 40.7,6.4 C40.2,6.3 39.3,6.3 38.8,6.3 C31.5,6.3 25.6,12.2 25.6,19.5 C25.6,19.5 25.6,19.5 25.6,19.6 C15.2,23.1 7.5,31.9 6,40.8 C5.2,40.5 4.3,40 3.4,39.2 C2.99,38.835 2.496,38.657 2.014,38.657 C1.439,38.657 0.881,38.91 0.5,39.4 C-0.3,40.3 0.1,40.3 0.9,41.1 C2.8,42.7 4.7,43.5 6,43.8 C6.2,46.4 7.2,52.5 12.7,57.9 L12.7,67.9 C12.7,69.1 13.6,70 14.8,70 L21.4,70 C22.2,70 22.9,69.6 23.2,68.9 L25,65.5 C29.35,67.05 34.125,67.825 38.888,67.825 C43.65,67.825 48.4,67.05 52.7,65.5 L54.5,68.9 C54.9,69.6 55.6,70 56.3,70 L62.9,70 C64.1,70 65,69.1 65,67.9 L65,57.9 C65.5,57.4 66,56.9 66.4,56.4 L70.5,57.1 C70.7,57.1 70.9,57.2 71.1,57.2 C73.1,57.2 74.7,55.8 75.1,53.8 L76.9,42.9 L76.9,42.897 L76.9,41.737 C76.662,39.93 75.321,38.448 73.5,38.2 L71,37.8 C70.5,35.8 69.6,33.9 68.5,32 L69.9,28.3 C70.3,27.1 70.2,26 69.6,25.1 C68.959,24.184 67.982,23.687 66.669,23.687 C66.549,23.687 66.426,23.692 66.3,23.7 L61.1,24.3 C58.4,22.4 55.3,20.8 52,19.7 L52,19.6 C52,14.3 48.8,9.3 43.3,7 C44.3,5 46.7,2.9 50,2.6 C50.13,2.589 50.261,2.583 50.394,2.583 C53.723,2.583 57.704,6.141 57.8,9.7 C57.9,12.5 55.9,15 54.4,16.2 L56.1,18.3 C58.6,16.3 60.7,12.9 60.8,10.3 C61.1,4.4 55.9,0 50.1,0" id="moneykeeper" fill="#414141" sketch:type="MSShapeGroup"></path>
    </g>
</svg>