<?xml version="1.0" encoding="UTF-8" standalone="no"?>
<svg width="83px" height="60px" viewBox="0 0 83 60" version="1.1" xmlns="http://www.w3.org/2000/svg" xmlns:xlink="http://www.w3.org/1999/xlink" xmlns:sketch="http://www.bohemiancoding.com/sketch/ns">
    <!-- Generator: Sketch 3.3.3 (12081) - http://www.bohemiancoding.com/sketch -->
    <title>people</title>
    <desc>Created with Sketch.</desc>
    <defs></defs>
    <g id="Page-1" stroke="none" stroke-width="1" fill="none" fill-rule="evenodd" sketch:type="MSPage">
        <g id="people" sketch:type="MSLayerGroup" transform="translate(1.000000, 1.000000)">
            <path d="M34.5,25.1 C35,25.5 35.7,25.4 36,25 C36.4,24.5 36.3,23.8 35.9,23.4 C32,20.1 30.4,13.7 32.3,8.6 C33.7,4.8 36.8,2.5 40.7,2.5 C43.4,2.5 45.6,3.5 47.2,5.3 C49.6,8.1 49.9,12.2 49.7,15.1 C49.4,18.5 48.8,20.9 45.6,23.7 C45.1,24.1 45,24.7 45.3,25.2 C45.5,25.5 45.9,25.7 46.2,25.7 C46.4,25.7 46.6,25.6 46.8,25.5 C48.1,24.7 51.3,21.5 51.8,15.4 C52.1,12 51.6,7.1 48.8,3.8 C46.8,1.4 43.9,0.2 40.6,0.2 C35.7,0.2 31.9,2.9 30.1,7.7 C28,13.9 29.8,21.2 34.5,25.1" id="Shape" fill="#000000" sketch:type="MSShapeGroup"></path>
            <path d="M34.5,25.1 C35,25.5 35.7,25.4 36,25 C36.4,24.5 36.3,23.8 35.9,23.4 C32,20.1 30.4,13.7 32.3,8.6 C33.7,4.8 36.8,2.5 40.7,2.5 C43.4,2.5 45.6,3.5 47.2,5.3 C49.6,8.1 49.9,12.2 49.7,15.1 C49.4,18.5 48.8,20.9 45.6,23.7 C45.1,24.1 45,24.7 45.3,25.2 C45.5,25.5 45.9,25.7 46.2,25.7 C46.4,25.7 46.6,25.6 46.8,25.5 C48.1,24.7 51.3,21.5 51.8,15.4 C52.1,12 51.6,7.1 48.8,3.8 C46.8,1.4 43.9,0.2 40.6,0.2 C35.7,0.2 31.9,2.9 30.1,7.7 C28,13.9 29.8,21.2 34.5,25.1 L34.5,25.1 Z" id="Shape" stroke="#FFFFFF" stroke-width="0.75" sketch:type="MSShapeGroup"></path>
            <path d="M61.1,39.6 C59.3,34.1 50.7,30.4 50.3,30.2 C50,30.1 49.7,30.1 49.4,30.2 C49.1,30.3 48.9,30.5 48.8,30.8 C47.3,34.6 44.1,37 40.6,37 L40.6,37 C37.1,37 34,34.7 32.5,30.8 C32.4,30.5 32.2,30.3 31.9,30.2 C31.6,30.1 31.3,30.1 31,30.2 C30.6,30.4 22.1,34 20.2,39.6 C19.1,43 19.1,45.3 19.2,48.1 L19.2,49.9 C19.2,50.5 19.7,51 20.3,51 C20.9,51 21.4,50.5 21.4,49.9 L21.4,48.1 C21.4,45.5 21.3,43.4 22.3,40.4 C23.5,36.8 28.7,33.9 30.9,32.8 C32.9,36.9 36.5,39.3 40.6,39.3 L40.6,39.3 C44.7,39.3 48.4,36.8 50.4,32.8 C53.1,34.1 57.8,37 58.9,40.4 C59.7,42.8 60.1,48.2 60.2,56.2 L20.2,56.2 C19.6,56.2 19.1,56.7 19.1,57.3 C19.1,57.9 19.6,58.4 20.2,58.4 L61.5,58.4 C62.1,58.4 62.6,57.9 62.6,57.3 C62.6,57.1 62.5,56.9 62.5,56.8 C62.5,53 62.5,43.6 61.1,39.6" id="Shape" fill="#000000" sketch:type="MSShapeGroup"></path>
            <path d="M61.1,39.6 C59.3,34.1 50.7,30.4 50.3,30.2 C50,30.1 49.7,30.1 49.4,30.2 C49.1,30.3 48.9,30.5 48.8,30.8 C47.3,34.6 44.1,37 40.6,37 L40.6,37 C37.1,37 34,34.7 32.5,30.8 C32.4,30.5 32.2,30.3 31.9,30.2 C31.6,30.1 31.3,30.1 31,30.2 C30.6,30.4 22.1,34 20.2,39.6 C19.1,43 19.1,45.3 19.2,48.1 L19.2,49.9 C19.2,50.5 19.7,51 20.3,51 C20.9,51 21.4,50.5 21.4,49.9 L21.4,48.1 C21.4,45.5 21.3,43.4 22.3,40.4 C23.5,36.8 28.7,33.9 30.9,32.8 C32.9,36.9 36.5,39.3 40.6,39.3 L40.6,39.3 C44.7,39.3 48.4,36.8 50.4,32.8 C53.1,34.1 57.8,37 58.9,40.4 C59.7,42.8 60.1,48.2 60.2,56.2 L20.2,56.2 C19.6,56.2 19.1,56.7 19.1,57.3 C19.1,57.9 19.6,58.4 20.2,58.4 L61.5,58.4 C62.1,58.4 62.6,57.9 62.6,57.3 C62.6,57.1 62.5,56.9 62.5,56.8 C62.5,53 62.5,43.6 61.1,39.6 L61.1,39.6 Z" id="Shape" stroke="#FFFFFF" stroke-width="0.75" sketch:type="MSShapeGroup"></path>
            <path d="M76.8,23.1 C76.8,16.2 72.1,10.6 66.2,10.6 C63,10.6 59.9,12.3 58.1,15.2 C56,18.5 55.8,22.8 57.7,26.8 C58,27.4 58.6,27.6 59.2,27.3 C59.8,27 60,26.4 59.7,25.8 C58.1,22.4 58.2,19 60,16.3 C61.4,14.1 63.8,12.7 66.3,12.7 C70.9,12.7 74.7,17.3 74.7,23 C74.7,28.7 70.9,33.3 66.3,33.3 C65.7,33.3 65.2,33.8 65.2,34.4 C65.2,35 65.7,35.5 66.3,35.5 C72.1,35.6 76.8,30 76.8,23.1" id="Shape" fill="#000000" sketch:type="MSShapeGroup"></path>
            <path d="M76.8,23.1 C76.8,16.2 72.1,10.6 66.2,10.6 C63,10.6 59.9,12.3 58.1,15.2 C56,18.5 55.8,22.8 57.7,26.8 C58,27.4 58.6,27.6 59.2,27.3 C59.8,27 60,26.4 59.7,25.8 C58.1,22.4 58.2,19 60,16.3 C61.4,14.1 63.8,12.7 66.3,12.7 C70.9,12.7 74.7,17.3 74.7,23 C74.7,28.7 70.9,33.3 66.3,33.3 C65.7,33.3 65.2,33.8 65.2,34.4 C65.2,35 65.7,35.5 66.3,35.5 C72.1,35.6 76.8,30 76.8,23.1 L76.8,23.1 Z" id="Shape" stroke="#FFFFFF" stroke-width="0.75" sketch:type="MSShapeGroup"></path>
            <path d="M80.5,45.3 C79.7,40.8 77,38.3 75.5,37.2 C75,36.9 74.3,37 74,37.5 C73.6,38 73.8,38.7 74.3,39 C75.5,39.9 77.7,41.9 78.4,45.7 C78.9,48.5 79.2,51.9 79.3,53.6 L69.8,53.6 C69.2,53.6 68.7,54.1 68.7,54.7 C68.7,55.3 69.2,55.8 69.8,55.8 L80.5,55.8 C80.8,55.8 81.1,55.7 81.3,55.5 C81.5,55.3 81.6,55 81.6,54.7 C81.4,54.5 81.2,49.3 80.5,45.3" id="Shape" fill="#000000" sketch:type="MSShapeGroup"></path>
            <path d="M80.5,45.3 C79.7,40.8 77,38.3 75.5,37.2 C75,36.9 74.3,37 74,37.5 C73.6,38 73.8,38.7 74.3,39 C75.5,39.9 77.7,41.9 78.4,45.7 C78.9,48.5 79.2,51.9 79.3,53.6 L69.8,53.6 C69.2,53.6 68.7,54.1 68.7,54.7 C68.7,55.3 69.2,55.8 69.8,55.8 L80.5,55.8 C80.8,55.8 81.1,55.7 81.3,55.5 C81.5,55.3 81.6,55 81.6,54.7 C81.4,54.5 81.2,49.3 80.5,45.3 L80.5,45.3 Z" id="Shape" stroke="#FFFFFF" stroke-width="0.75" sketch:type="MSShapeGroup"></path>
            <path d="M15.5,33.4 C10.9,33.4 7.1,28.8 7.1,23.1 C7.1,17.4 10.9,12.8 15.5,12.8 C18,12.8 20.4,14.2 21.8,16.4 C23.5,19.1 23.6,22.6 22.1,25.9 C21.8,26.5 22.1,27.1 22.6,27.4 C23.2,27.7 23.8,27.4 24.1,26.9 C26,22.8 25.8,18.6 23.7,15.3 C21.8,12.4 18.8,10.7 15.6,10.7 C9.7,10.6 5,16.2 5,23.1 C5,30 9.7,35.6 15.5,35.6 C16.1,35.6 16.6,35.1 16.6,34.5 C16.6,33.9 16.1,33.4 15.5,33.4" id="Shape" fill="#000000" sketch:type="MSShapeGroup"></path>
            <path d="M15.5,33.4 C10.9,33.4 7.1,28.8 7.1,23.1 C7.1,17.4 10.9,12.8 15.5,12.8 C18,12.8 20.4,14.2 21.8,16.4 C23.5,19.1 23.6,22.6 22.1,25.9 C21.8,26.5 22.1,27.1 22.6,27.4 C23.2,27.7 23.8,27.4 24.1,26.9 C26,22.8 25.8,18.6 23.7,15.3 C21.8,12.4 18.8,10.7 15.6,10.7 C9.7,10.6 5,16.2 5,23.1 C5,30 9.7,35.6 15.5,35.6 C16.1,35.6 16.6,35.1 16.6,34.5 C16.6,33.9 16.1,33.4 15.5,33.4 L15.5,33.4 Z" id="Shape" stroke="#FFFFFF" stroke-width="0.75" sketch:type="MSShapeGroup"></path>
            <path d="M12.1,53.6 L2.6,53.6 C2.7,51.9 3,48.4 3.5,45.7 C4.1,42.3 6,40.2 7.4,39.2 C7.9,38.8 8,38.1 7.6,37.7 C7.2,37.2 6.5,37.1 6.1,37.5 C4.3,38.8 2.1,41.2 1.3,45.4 C0.5,49.4 0.3,54.6 0.3,54.8 C0.3,55.1 0.4,55.4 0.6,55.6 C0.8,55.8 1.1,55.9 1.4,55.9 L12,55.9 C12.6,55.9 13.1,55.4 13.1,54.8 C13.2,54.1 12.7,53.6 12.1,53.6" id="Shape" fill="#000000" sketch:type="MSShapeGroup"></path>
            <path d="M12.1,53.6 L2.6,53.6 C2.7,51.9 3,48.4 3.5,45.7 C4.1,42.3 6,40.2 7.4,39.2 C7.9,38.8 8,38.1 7.6,37.7 C7.2,37.2 6.5,37.1 6.1,37.5 C4.3,38.8 2.1,41.2 1.3,45.4 C0.5,49.4 0.3,54.6 0.3,54.8 C0.3,55.1 0.4,55.4 0.6,55.6 C0.8,55.8 1.1,55.9 1.4,55.9 L12,55.9 C12.6,55.9 13.1,55.4 13.1,54.8 C13.2,54.1 12.7,53.6 12.1,53.6 L12.1,53.6 Z" id="Shape" stroke="#FFFFFF" stroke-width="0.75" sketch:type="MSShapeGroup"></path>
        </g>
    </g>
</svg>