<?xml version="1.0" encoding="UTF-8" standalone="no"?>
<svg width="116px" height="221px" viewBox="0 0 116 221" version="1.1" xmlns="http://www.w3.org/2000/svg" xmlns:xlink="http://www.w3.org/1999/xlink" xmlns:sketch="http://www.bohemiancoding.com/sketch/ns">
    <!-- Generator: Sketch 3.3.3 (12081) - http://www.bohemiancoding.com/sketch -->
    <title>logo-sm</title>
    <desc>Created with Sketch.</desc>
    <defs></defs>
    <g id="Page-1" stroke="none" stroke-width="1" fill="none" fill-rule="evenodd" sketch:type="MSPage">
        <g id="logo-sm" sketch:type="MSLayerGroup">
            <path d="M27.7,30.4 C36.1,30.4 42.9,23.6 42.9,15.2 C42.9,6.8 36.1,0 27.7,0 C19.3,0 12.5,6.8 12.5,15.2 C12.5,23.5 19.4,30.4 27.7,30.4 L27.7,30.4 L27.7,30.4 Z" id="Shape" fill="#E30613" sketch:type="MSShapeGroup"></path>
            <path d="M98.9,113.4 C94.2,86.1 69.1,75.3 47.2,62.8 C28.6,52.1 15,41.3 6,22.4 C6.6,34.7 10.9,59.7 39.6,75.5 C60.6,87 81.7,94.7 98.9,113.4 L98.9,113.4 L98.9,113.4 Z" id="Shape" fill="#FFCC00" sketch:type="MSShapeGroup"></path>
            <path d="M91.6,155.5 C83.2,112.9 19.1,126.7 4.2,78.6 C4,88.7 6.8,120 35.2,130.9 C61.6,140.9 73.7,137 91.6,155.5 L91.6,155.5 L91.6,155.5 Z" id="Shape" fill="#009FE3" sketch:type="MSShapeGroup"></path>
            <path d="M19,123.2 L27.1,129.1 L20.1,136.1 C13.2,143 11.4,153.3 11.4,163 C11.4,188.4 32.2,209.2 57.6,209.2 C83,209.2 104.8,188.4 103.8,163 C102.3,123.3 70.6,121.1 44,108.6 C5.5,90.5 2.3,56.1 2.6,42.9 C22.5,98.8 115.1,90.6 115.1,163 C115.1,194.7 89.3,220.6 57.5,220.6 C25.7,220.6 0,194.8 0,163.1 C0,152.3 2.4,142.4 8.2,134.1 C11.3,129.6 14.6,126.5 19,123.2 L19,123.2 L19,123.2 Z" id="Shape" fill="#E30613" sketch:type="MSShapeGroup"></path>
        </g>
    </g>
</svg>